<?xml version="1.0" encoding="UTF-8"?>
<svg id="Layer_2" data-name="Layer 2" xmlns="http://www.w3.org/2000/svg" viewBox="0 0 676 827">
  <defs>
    <style>
      .cls-1 {
        fill: #ffb287;
      }

      .cls-2 {
        fill: #6b271d;
      }

      .cls-3 {
        fill: #da6451;
      }

      .cls-4 {
        fill: #4e2559;
      }

      .cls-5 {
        fill: #2b223f;
      }

      .cls-6 {
        fill: #602b64;
      }

      .cls-7 {
        fill: #f9d4b2;
      }

      .cls-8 {
        fill: #c85548;
      }

      .cls-9 {
        fill: #3c1b4c;
      }

      .cls-10 {
        fill: #ffaa81;
      }

      .cls-11 {
        fill: #663069;
      }

      .cls-12 {
        fill: #4c2357;
      }

      .cls-13 {
        fill: #4d275a;
      }

      .cls-14 {
        fill: #422452;
      }

      .cls-15 {
        fill: #ffedd2;
      }

      .cls-16 {
        fill: #3e1f4f;
      }

      .cls-17 {
        fill: #a94b35;
      }

      .cls-18 {
        fill: #ffb087;
      }

      .cls-19 {
        fill: #e4bb9c;
      }

      .cls-20 {
        fill: #793a73;
      }

      .cls-21 {
        fill: #381b46;
      }

      .cls-22 {
        fill: #783a72;
      }

      .cls-23 {
        fill: #fff9e3;
      }

      .cls-24 {
        fill: #630;
      }

      .cls-25 {
        fill: #f07e68;
      }

      .cls-26 {
        fill: #f9865c;
      }

      .cls-27 {
        fill: #592965;
      }

      .cls-28 {
        fill: #ffab7e;
      }

      .cls-29 {
        fill: #f0c6a7;
      }

      .cls-30 {
        fill: #451a55;
      }

      .cls-31 {
        fill: #4f245b;
      }

      .cls-32 {
        fill: #f67c52;
      }

      .cls-33 {
        fill: #82447c;
      }

      .cls-34 {
        fill: #f98966;
      }

      .cls-35 {
        fill: #602b63;
      }

      .cls-36 {
        fill: #ffebd2;
      }

      .cls-37 {
        fill: #e16d49;
      }

      .cls-38 {
        fill: #feecd0;
      }

      .cls-39 {
        fill: #f6845f;
      }

      .cls-40 {
        fill: #5b3069;
      }

      .cls-41 {
        fill: #7a3c74;
      }

      .cls-42 {
        fill: #e5b79a;
      }

      .cls-43 {
        fill: #e1b395;
      }

      .cls-44 {
        fill: #432251;
      }

      .cls-45 {
        fill: #fd8d71;
      }

      .cls-46 {
        fill: #feaa80;
      }

      .cls-47 {
        fill: #50255d;
      }

      .cls-48 {
        fill: #7b3c76;
      }

      .cls-49 {
        fill: #4c2659;
      }

      .cls-50 {
        fill: #441e57;
      }

      .cls-51 {
        fill: #fee8cf;
      }
    </style>
  </defs>
  <path class="cls-24" d="M307.67,776.19s-1.05,15.95-2.67,26c-12,10.11-86.58,13.31-92.67,13.34-6.08.02-27.72-.17-29.77-8.45-2.06-8.28,33.61-35.36,57.11-35.55,14.77,6.09,37.08,14.46,67.66,4.76.06-.01.12-.03.18-.05.05-.02.11-.03.16-.05Z"/>
  <path class="cls-13" d="M308.25,766.22c-.24,4-.46,6.78-.58,9.97-.05.02-.11.03-.16.05-.06.02-.12.04-.18.05-30.58,9.7-52.89,1.33-67.66-4.76.89-4.8,1.83-8.23,2.33-12.48,4.16,2.44,9.17,4.22,14.61,5.48.45.1.91.2,1.38.3.42.09.84.18,1.27.25.44.09.88.17,1.32.24.75.15,1.51.28,2.28.39,5.36.87,10.97,1.31,16.46,1.49,1.04.04,2.08.07,3.12.08.49.01.98.02,1.46.01,2.38.03,4.72.01,7-.05h.06c.84-.02,1.67-.05,2.49-.08.89-.02,1.76-.06,2.62-.1,1.08-.05,2.19-.11,3.31-.17.93-.05,1.85-.11,2.73-.18.04,0,.07,0,.1-.01.86-.05,1.69-.11,2.49-.18.16-.01.33-.03.49-.04,1-.08,2.03-.17,3.06-.26Z"/>
  <path class="cls-24" d="M476.61,816.67c.12,7.77-41.06,7.1-47,5.77-5.45-1.22-51.96-3.63-63.96-13.74-1.62-10.05-5.51-27.98-5.51-27.98.09.02.17.04.26.06.08.02.16.03.23.05.14.03.28.06.41.09.18.04.35.08.52.12.45.09.9.19,1.34.28.22.04.44.08.65.13.37.07.72.14,1.08.21.26.05.53.1.79.15.31.06.62.12.92.17.27.05.54.1.81.14,6.23,1.12,11.83,1.74,16.9,1.94.44.02.89.03,1.33.05.47.02.93.03,1.38.04,2.98.06,5.98-.01,8.88-.29.35-.03.71-.07,1.06-.1.51-.06,1.02-.11,1.51-.18.32-.04.63-.08.94-.12.92-.11,1.82-.25,2.69-.4.13-.01.26-.03.38-.06.73-.12,1.43-.25,2.11-.39.29-.05.57-.11.85-.17.49-.11.98-.22,1.46-.33.37-.09.74-.18,1.1-.27.52-.13,1.02-.27,1.52-.41.49-.14.97-.28,1.45-.42,1.32-.41,2.59-.85,3.83-1.31.43-.16.85-.32,1.26-.48.84-.33,1.67-.66,2.51-1.02.42-.17.85-.35,1.27-.53,3.41-1.44,7.04-3.06,11.64-4.81,13.84,9.92,45.39,26.36,45.39,43.81Z"/>
  <path class="cls-13" d="M431.22,772.86c-4.6,1.75-8.23,3.37-11.64,4.81-.42.18-.85.36-1.27.53-.84.36-1.67.69-2.51,1.02-.41.16-.83.32-1.26.48-1.24.46-2.51.9-3.83,1.31-.48.14-.96.28-1.45.42-.5.14-1,.28-1.52.41-.36.09-.73.18-1.1.27-.48.11-.97.22-1.46.33-.28.06-.56.12-.85.17-.68.14-1.38.27-2.11.39-.12.03-.25.05-.38.06-.86.15-1.76.28-2.69.4-.31.04-.62.08-.94.12-.49.07-1,.12-1.51.18-.35.03-.71.07-1.06.1-2.77.23-5.72.34-8.88.29-.45-.01-.91-.02-1.38-.04-.44-.02-.89-.03-1.33-.05-6.39-.31-12.47-1.17-16.9-1.94-.27-.04-.54-.09-.81-.14-.3-.05-.61-.11-.92-.17-.26-.05-.53-.1-.79-.15-.36-.07-.71-.14-1.08-.21-.21-.05-.43-.09-.65-.13-.44-.09-.89-.19-1.34-.28-.17-.04-.34-.08-.52-.12-.13-.03-.27-.06-.41-.09-.07-.02-.15-.03-.23-.05-.09-.02-.17-.04-.26-.06-.62-4.48-1.18-6.03-1.42-10.03,7.97-.39,19.02-.52,30.41-1.34,12.32-1.03,21.94-2.59,29.05-4.53.12-.03.23-.07.34-.09,4.2-1.24,8.02-2.76,11.23-4.65.5,4.25.58,7.99,1.47,12.78Z"/>
  <path class="cls-21" d="M429.75,760.08c-3.21,1.89-7.03,3.41-11.23,4.65-.11.02-.22.06-.34.09-7.11,1.94-16.73,3.5-29.05,4.53-11.39.82-22.44.95-30.41,1.34-.4-3.65-1.4-11.44-1.67-15.53,25.81-.64,51.32-2.81,71.52-6.39.44,3.83.71,6.73,1.18,11.31Z"/>
  <path class="cls-21" d="M310.21,754.6c-.29,3.89-1.09,8.61-1.96,11.62-1.03.09-2.06.18-3.06.26-.16.01-.33.03-.49.04-.84.07-1.67.13-2.49.18-.03.01-.06.01-.1.01-.92.06-1.83.12-2.73.18-1.12.06-2.23.12-3.31.17-.86.04-1.73.08-2.62.1-.82.03-1.65.06-2.49.08h-.06c-.9.02-1.79.03-2.67.04-1.43.02-2.87.03-4.33.01-.48.01-.97,0-1.46-.01-1.03-.02-2.08-.05-3.12-.08-5.5-.19-11.1-.65-16.46-1.49-.76-.12-1.52-.25-2.28-.39-.44-.07-.88-.15-1.32-.24-.43-.07-.85-.16-1.27-.25-.47-.1-.93-.2-1.38-.3-5.44-1.26-10.45-3.04-14.61-5.48.87-4.61.37-8.91.78-13.01,0-.16.03-.33.05-.49,12.97,4.2,28.43,6.38,43.94,7.46t.01.02c3.18.47,6.49.39,6.49.39,5.44.49,11.11.88,16.94,1.18Z"/>
  <path class="cls-48" d="M469.44,731.55c-2.29,7.43-18.25,13.21-40.87,17.22-20.2,3.58-45.71,5.75-71.52,6.39-15.88.4-31.89.22-46.84-.56-5.83-.3-11.5-.69-16.94-1.18-2.52-4.03-3.04-20.97-2.59-42.64.91-44.07,5.83-107.67,6.09-121.95.01-.39.01-.74.01-1.05.31.03.62.07.95.1,26.26,2.66,111.77-1.18,129.85-7.42,1.65-.57,2.74-1.16,3.17-1.77.06.18.14.44.25.77.05.16.11.34.18.54.89,2.81,2.83,9.09,5.39,17.6.09.29.18.59.27.89.75,2.5,1.55,5.19,2.4,8.04.24.84.5,1.69.75,2.55,4.47,15.12,9.92,34.06,14.92,52.63.2.76.41,1.52.61,2.29.4,1.49.8,2.97,1.18,4.45.39,1.48.78,2.95,1.16,4.42.54,2.06,1.06,4.09,1.58,6.11.4,1.58.8,3.15,1.18,4.71.18.71.36,1.41.53,2.11.92,3.73,1.8,7.36,2.61,10.85.21.93.42,1.85.63,2.76.1.45.2.9.3,1.35.1.45.2.9.3,1.34.1.44.2.88.29,1.32.19.87.38,1.73.56,2.58.05.23.09.45.14.67.13.62.26,1.24.38,1.84.16.77.31,1.52.46,2.27.21,1.05.4,2.08.59,3.08.08.44.16.87.24,1.3.38,2.13.72,4.13.99,5.98.1.74.2,1.46.29,2.15.02.07.03.14.03.21.07.57.13,1.12.19,1.66,0,.02,0,.04,0,.05.13,1.31.23,2.51.28,3.59.01.22.02.44.02.64.02.77.02,1.48-.02,2.11Z"/>
  <path class="cls-33" d="M286.77,753.01c-15.51-1.08-30.97-3.26-43.94-7.46-.02.16-.04.33-.05.49-11.75-2.95-22.8-6.39-30.42-9.33-.2-.08-.38-.15-.57-.22,0-.01-.03-.01-.04-.02-2.73-1.07-4.98-2.07-6.62-2.95-.01-.01-.02-.01-.02-.01-1.03-.56-1.81-1.06-2.33-1.51-.91-1.46-1.22-4.45-1.04-8.63.01-.21.02-.43.03-.65.01-.08.01-.17.02-.26.02-.47.05-.96.09-1.46.06-.66.11-1.33.18-2.04.05-.48.1-.96.15-1.46.23-2.08.53-4.32.89-6.72.47-3.07,1.04-6.38,1.69-9.89.12-.62.24-1.25.36-1.89.08-.41.16-.82.24-1.24.93-4.72,1.98-9.74,3.14-14.95.15-.68.3-1.36.46-2.04.86-3.82,1.77-7.73,2.7-11.68.19-.78.38-1.55.56-2.33.15-.62.3-1.24.45-1.86.15-.61.3-1.22.45-1.83.08-.35.17-.71.26-1.07.24-.97.47-1.93.71-2.9,2.3-9.3,4.71-18.65,7.05-27.51.19-.71.38-1.42.56-2.13.43-1.59.84-3.16,1.25-4.71.21-.77.42-1.54.62-2.3.74-2.76,1.46-5.44,2.16-8.02.18-.65.35-1.29.52-1.92.91-3.35,1.77-6.52,2.58-9.47.1-.36.2-.72.29-1.07.91-3.33,1.75-6.37,2.48-9.05.05-.17.1-.34.14-.51,1.16-4.22,2.06-7.55,2.62-9.72.04-.15.07-.29.1-.42.11-.4.2-.75.27-1.06.01-.07.02-.1.02-.1,1.46.56,5.98,1.35,11.94,2.2.07,0,.14.02.21.03,12.71,1.8,31.85,3.84,42.16,4.39.35.02.69.03,1.02.05.1.12.19.33.27.63.03.11.06.24.08.38,1.92,9.48-2.69,76.27-4.31,121.99-.76,21.27-.87,37.97.62,42.23Z"/>
  <path class="cls-31" d="M430.75,578.69c-.43.61-1.52,1.2-3.17,1.77-18.08,6.24-103.59,10.08-129.85,7.42-.33-.03-.64-.07-.95-.1,0,.31,0,.66-.01,1.05-.26,14.28-5.18,77.88-6.09,121.95-.45,21.67.07,38.61,2.59,42.64,0,0-3.31.08-6.49-.39t-.01-.02c-1.49-4.26-1.38-20.96-.62-42.23,1.62-45.72,6.23-112.51,4.31-121.99,0-.14.02-.27.03-.38h-.11c-.08-.3-.17-.51-.27-.63-.33-.02-.67-.03-1.02-.05-10.31-.55-29.45-2.59-42.16-4.39-.07-.01-.14-.02-.21-.03-5.96-.85-10.48-1.64-11.94-2.2.04-.9.09-1.75.13-2.55.41-8.69.62-12.07,1.38-22.39,9.84,6.61,162.5,6.61,194.46-2-.02,1.24-.01,2.35.01,3.43.11,4.41.5,8.6-.01,21.09Z"/>
  <path class="cls-9" d="M236.29,556.17c-.66,8.9-.9,12.64-1.22,19.07-.05,1.03-.1,2.12-.16,3.32-.04.8-.09,1.65-.13,2.55,0,0-.01.03-.02.1-.18.73-.44,1.75-.77,3.02-.09.32-.18.66-.27,1.01-.03.12-.07.24-.1.37-.1.37-.2.76-.32,1.17-.01.05-.02.11-.04.16-.08.31-.16.62-.25.94-.19.71-.4,1.46-.62,2.25-.19.73-.4,1.49-.62,2.28-.07.28-.15.57-.23.86-.16.56-.32,1.13-.48,1.73,0,0-.01.03-.01.05-.17.61-.34,1.23-.51,1.87-.09.32-.18.65-.27.98-.25.91-.51,1.86-.78,2.83-.02.08-.04.16-.06.24-.1.35-.19.71-.29,1.06-.1.36-.2.72-.3,1.09-.2.71-.4,1.44-.6,2.17-.83,3.04-1.7,6.27-2.62,9.65-.13.48-.26.96-.39,1.44-.53,1.97-1.07,3.99-1.63,6.07-.2.76-.41,1.53-.62,2.3-1.08,4.06-2.19,8.27-3.31,12.56-.28,1.07-.56,2.15-.84,3.23-.1.4-.21.8-.31,1.2-.3,1.14-.59,2.29-.89,3.44-.44,1.73-.89,3.46-1.33,5.2-.14.58-.29,1.16-.44,1.74-.46,1.82-.91,3.65-1.36,5.48-.37,1.47-.73,2.94-1.09,4.4-.09.36-.17.71-.26,1.07-.15.61-.3,1.22-.45,1.83-.15.62-.3,1.24-.45,1.86-.18.78-.37,1.55-.56,2.33-.12.52-.24,1.05-.37,1.57-.22.96-.45,1.91-.67,2.85-.57,2.45-1.12,4.87-1.66,7.26-.16.68-.31,1.36-.46,2.04-.58,2.61-1.13,5.18-1.66,7.68-.04.19-.08.38-.12.57-.21.98-.41,1.95-.6,2.9-.41,2.01-.8,3.98-1.16,5.9-.16.83-.31,1.66-.46,2.48-.08.44-.16.89-.24,1.33-.22,1.21-.43,2.4-.62,3.56-.01.1-.03.2-.05.3-.12.71-.23,1.4-.34,2.09-.27,1.75-.51,3.42-.72,5.02-.06.43-.11.85-.16,1.27-.07.54-.13,1.07-.19,1.59-.05.5-.1.98-.15,1.46-.04.36-.06.7-.09,1.04-.04.34-.06.67-.09,1-.02.25-.04.5-.05.74-.02.25-.03.49-.04.72-.03.56-.05,1.09-.07,1.6,0,.26-.02.52-.02.76-.06,3.42.27,5.9,1.08,7.18.52.45,1.3.95,2.33,1.51,0,0,.01,0,.02.01,1.64.88,3.89,1.88,6.62,2.95.01.01.03.01.04.02.19.07.37.14.57.22-5.06-.1-53.31-1.53-65.68-20.24,3.45-30.25,38.95-131.75,38.95-131.75l2.58-1.23c2.42-1.16,4.83-2.35,7.21-3.58,10.12-5.19,19.92-11.01,29.34-17.4.83-.55,1.65-1.11,2.47-1.68l6.73-4.66h2.33Z"/>
  <path class="cls-16" d="M469.44,731.55c.04-.63.04-1.33.02-2.11,0-.2-.01-.42-.02-.64-.04-1.08-.14-2.28-.28-3.59,0-.01,0-.03,0-.05-.05-.53-.11-1.09-.19-1.66,0-.07-.01-.14-.03-.21-.08-.69-.18-1.41-.29-2.15-.13-.92-.28-1.88-.45-2.88s-.35-2.03-.54-3.1c-.07-.42-.15-.86-.24-1.3-.32-1.71-.67-3.49-1.05-5.35-.12-.6-.25-1.22-.38-1.84-.05-.22-.09-.44-.14-.67-.18-.84-.37-1.71-.56-2.58-1.05-4.81-2.26-9.99-3.58-15.39-.18-.74-.36-1.48-.55-2.23-.17-.7-.35-1.4-.53-2.11-.63-2.57-1.29-5.17-1.97-7.8-.26-1-.52-2.01-.79-3.02,0-.03-.01-.06-.02-.1-.37-1.43-.75-2.87-1.14-4.32-.38-1.48-.78-2.96-1.18-4.45-.2-.76-.4-1.53-.61-2.29-2.5-9.29-5.11-18.67-7.66-27.61-.22-.77-.43-1.53-.65-2.29-.1-.35-.2-.7-.3-1.04-.47-1.66-.94-3.29-1.41-4.91-.71-2.48-1.42-4.91-2.11-7.28-.21-.72-.42-1.44-.63-2.15-1.93-6.6-3.73-12.68-5.31-17.94-.09-.3-.18-.6-.27-.89-.06-.22-.13-.43-.19-.63-.2-.66-.39-1.3-.58-1.92-.1-.35-.21-.69-.31-1.02-.2-.67-.4-1.32-.59-1.95-1.1-3.62-2.03-6.64-2.73-8.91-.09-.3-.18-.58-.26-.84-.05-.14-.09-.27-.12-.39-.04-.13-.08-.25-.12-.38-.19-.6-.36-1.12-.49-1.56-.07-.2-.13-.38-.18-.54-.11-.33-.19-.59-.25-.77.51-12.49.12-16.68.01-21.09-.02-1.08-.03-2.19-.01-3.43l6.31-4.88c2.07-1.6,3.22-4.11,3.08-6.73,0,0-3.64-30.23-1.66-28.65.06.07.11.13.16.19,2.33,3.33,19.5,15.83,24.83,18.33,0,0,.1.41.28,1.21.06.26.12.54.2.87,0,.02.01.03.01.04.07.34.16.72.26,1.13.34,1.5.8,3.49,1.36,5.9.14.65.3,1.33.46,2.04.02.04.02.08.03.12.16.7.33,1.43.51,2.19.09.4.19.81.28,1.23.09.41.19.83.29,1.26.37,1.61.77,3.33,1.18,5.15.14.6.28,1.2.42,1.82,1.49,6.43,3.22,13.95,5.12,22.22.29,1.26.59,2.55.89,3.84.3,1.3.6,2.61.9,3.94.28,1.21.56,2.43.85,3.66.97,4.21,1.97,8.55,2.99,12.99.31,1.34.62,2.7.94,4.07,2.79,12.12,5.72,24.87,8.64,37.53.18.78.36,1.57.54,2.35.18.78.36,1.57.54,2.34.18.78.36,1.57.54,2.34,1.97,8.58,3.93,17.05,5.8,25.2.12.52.24,1.05.36,1.57.9,3.88,1.77,7.67,2.62,11.37.17.72.33,1.44.5,2.15,1.98,8.62,3.83,16.63,5.46,23.73.15.63.28,1.23.41,1.79.33,1.42.65,2.8.96,4.14.07.3.13.57.18.8.08.35.16.69.24,1.04.02.09.03.13.03.13,0,0-28.02,2.08-37.82,8.96Z"/>
  <path class="cls-27" d="M566.14,711.22c-9.04,26.37-48.54,34.71-54.06,32.31-.8-3.46-2.5-10.88-4.82-20.94-.01-.04-.02-.09-.03-.13-.08-.35-.16-.69-.24-1.04-.06-.26-.12-.53-.18-.8-.31-1.34-.63-2.72-.96-4.14-.13-.59-.27-1.19-.41-1.79-1.63-7.1-3.48-15.11-5.46-23.73-.17-.71-.33-1.43-.5-2.15-.85-3.7-1.72-7.49-2.62-11.37-.12-.52-.24-1.05-.36-1.57-1.87-8.15-3.83-16.62-5.8-25.2-.18-.77-.36-1.56-.54-2.34-.18-.77-.36-1.56-.54-2.34-.18-.78-.36-1.57-.54-2.35-2.92-12.66-5.85-25.41-8.64-37.53-.32-1.37-.63-2.73-.94-4.07-1.02-4.44-2.02-8.78-2.99-12.99-.28-1.23-.56-2.45-.85-3.66-.3-1.33-.6-2.64-.9-3.94-.3-1.3-.59-2.58-.89-3.84-1.9-8.27-3.63-15.79-5.12-22.22-.13-.62-.27-1.22-.41-1.82h-.01c-.41-1.82-.81-3.54-1.18-5.15-.1-.43-.19-.85-.29-1.26-.09-.42-.19-.83-.28-1.23-.18-.76-.34-1.49-.51-2.19-.01-.04-.01-.08-.03-.12-.16-.71-.31-1.39-.46-2.04-.56-2.41-1.02-4.4-1.36-5.9-.1-.41-.18-.79-.26-1.13,0-.01-.01-.02-.01-.04-.08-.33-.14-.62-.2-.87-.18-.8-.28-1.21-.28-1.21,0,0,32.19,15.66,43.58,17,7.72,24.5,53.63,145.25,59.09,161.79Z"/>
  <path class="cls-6" d="M440.14,542.56c-6.58-.68-24.62-31.57-19.67-49.67.2-.74,1.18-.94,1.65-.33,4.32,5.46,11.12,15.1,16.36,21.35-1.98-1.58,1.66,28.65,1.66,28.65Z"/>
  <path class="cls-35" d="M336.25,501.58c-.85,1.21-1.74,2.34-2.68,3.41-.23.26-.47.53-.71.78-1.82,1.97-3.79,3.68-5.84,5.17-.23.17-.46.33-.69.49-.28.2-.56.39-.85.58-.24.16-.49.32-.73.47-.28.18-.56.35-.85.53-.25.15-.5.3-.76.44-.29.17-.59.34-.89.51-.51.28-1.03.54-1.54.8-.49.25-.99.49-1.48.72t-.02.01h-.01c-2,.92-4.01,1.68-5.98,2.32-.5.16-1,.31-1.49.46-.32.1-.64.19-.95.27-.48.13-.96.26-1.43.38-.26.07-.52.14-.78.19-.46.11-.91.22-1.35.31-.06.02-.12.03-.19.04-.25.06-.5.11-.75.16-1,.21-1.97.38-2.91.53-.41.07-.81.13-1.2.18-.32.05-.63.09-.94.13-.19.03-.38.05-.56.07-.96.12-1.88.21-2.73.29-.29.02-.56.05-.84.07-.76.06-1.46.1-2.1.14-.39.02-.75.03-1.08.05h-.17c-.21.01-.41.02-.59.03-.23.01-.44.01-.63.02-2.56.14-5.18,0-7.83-.39-.44-.06-.88-.12-1.31-.2-1.97-.32-3.95-.77-5.92-1.32-.3-.08-.59-.16-.89-.25-.79-.23-1.57-.47-2.35-.73-1.17-.38-2.35-.8-3.51-1.23-2.91-1.09-5.77-2.34-8.52-3.67-.55-.26-1.1-.53-1.64-.8-2.17-1.08-4.26-2.21-6.26-3.33-1-.57-1.97-1.13-2.92-1.68-.32-.18-.63-.37-.94-.55h0s-.01-.01-.01-.01c-.15-.09-.3-.18-.45-.27-.45-.28-.91-.55-1.35-.82-3.28-2-6.13-3.86-8.38-5.35-.34-.22-.66-.43-.96-.63-2.61-1.72-4.22-2.77-4.51-2.65-.66,2.33-1.3,4.87-1.89,7.55-4.35,19.8-6.19,47.1,1.07,51.37l-6.73,4.66c-.82.57-1.64,1.13-2.47,1.68-9.42,6.39-19.22,12.21-29.34,17.4,16.64-12.89,26.58-48.84,31.5-69.99h0c.48-2.06.91-3.96,1.29-5.7,1.29-5.83,2.06-9.7,2.38-10.31-.95-.71-1.92-1.51-2.92-2.36-2.44-2.11-4.99-4.58-7.52-7.1-4.47-4.47-8.88-9.1-12.56-12.2,3.41-2.42,5.27-3.65,6.98-6,.38.61.77,1.21,1.16,1.79.03.03.05.06.07.09.36.54.73,1.07,1.11,1.59.45.64.91,1.26,1.38,1.86.12.16.24.31.35.46.07.08.13.15.19.23.68.87,1.38,1.72,2.1,2.54.23.26.45.51.68.77.22.25.45.5.68.75.37.41.75.82,1.14,1.21.38.4.77.78,1.16,1.17.54.54,1.09,1.06,1.64,1.57.32.3.65.6.97.88.24.22.48.42.72.63.41.35.82.7,1.23,1.04.07.07.14.13.22.18.48.4.97.78,1.45,1.16.49.38.98.75,1.46,1.11.2.15.39.29.59.43.63.45,1.25.89,1.87,1.31,1.02.7,2.05,1.35,3.07,1.96.38.23.76.45,1.13.67.37.23.75.44,1.12.64.38.21.75.41,1.12.61.33.18.65.35.97.52.78.41,1.56.79,2.33,1.15.36.17.72.34,1.08.5,3.29,1.5,6.39,2.62,9.15,3.43.25.07.49.14.73.21s.48.13.71.2c.4.1.79.21,1.17.3.47.11.93.22,1.37.31,1.3.29,2.46.49,3.47.62.18.02.35.04.52.06.22.02.43.04.63.06.14.01.27.02.4.03.65.04,1.18.04,1.59,0,.1-.01.19-.03.29-.04,9.83,8.55,19.72,8.55,28.33,8.66,17.76.22,31.06-11.43,32.67-12.66,0,0,0,0,0,.02,1,1.52,1.94,2.71,2.84,3.64,2.57,2.66,4.79,3.26,6.81,3.67Z"/>
  <path class="cls-49" d="M604.09,520.75c-.31.1-.62.19-.93.25-6.26,1.39-12.1-3.9-17.49-12.12-4.56-6.96-8.79-16.01-12.68-24.88-.01-.03-.03-.06-.04-.09-3.19-7.27-6.15-14.41-8.86-20.16-8.95-27.5-18.03-38.92-18-61,1.22.2,2.54.53,3.93,1,13.72,4.58,34.71,21.88,46.71,46.46,2.6,5.3,4.77,10.94,6.36,16.87,4.66,21.67,4.55,47.67,1,53.67Z"/>
  <path class="cls-14" d="M585.67,508.88s-.01.03-.02.05c-4.97-6.07-8.19-14.09-12.66-24.93-.01-.03-.03-.06-.04-.09-2.35-5.71-5.05-12.19-8.54-19.58-.35-1.08-.71-2.14-1.06-3.18,0-.01,0-.03-.02-.04h0c-.92-2.72-1.84-5.27-2.75-7.68-.18-.49-.36-.97-.54-1.44-.24-.63-.48-1.26-.73-1.88-.47-1.22-.94-2.41-1.4-3.58-.02-.06-.05-.13-.08-.2-.32-.8-.64-1.59-.95-2.37-.07-.18-.15-.36-.22-.54-.24-.6-.48-1.18-.71-1.76-.04-.1-.08-.2-.12-.29-.32-.79-.63-1.56-.94-2.32-.52-1.29-1.03-2.54-1.51-3.78-.34-.87-.68-1.73-1-2.58-.11-.29-.22-.57-.32-.85-.21-.56-.42-1.12-.62-1.68-.1-.28-.2-.56-.3-.84-.15-.43-.3-.86-.45-1.29-.34-1.01-.67-2.02-.98-3.03-.16-.5-.31-1-.45-1.5-.04-.14-.08-.27-.12-.4-.17-.62-.34-1.23-.49-1.85-.02-.07-.04-.14-.06-.21-.01-.03-.01-.07-.02-.1-1.35-5.3-2.14-10.83-2.16-17.27v-.34c1.23.2,2.44.52,3.64.95,11.06,3.98,20.42,17.78,28.24,39.49h0c1.23,3.4,2.41,6.98,3.56,10.75.93,3.04,1.83,6.2,2.71,9.48,2.28,10.54,3.43,20.04,3.62,27.71.19,8.05-.7,14.08-2.51,17.17Z"/>
  <path class="cls-12" d="M265.59,498.25c-.1,0-.19.03-.29.04-.41.04-.94.04-1.59,0-.13-.01-.26-.02-.4-.03-.2-.02-.41-.04-.63-.06-.17-.02-.34-.04-.52-.06-1.01-.13-2.17-.33-3.47-.62-.44-.09-.9-.2-1.37-.31-.38-.09-.77-.2-1.17-.3-.23-.07-.47-.13-.71-.2s-.48-.14-.73-.21c-2.76-.81-5.86-1.93-9.15-3.43-.36-.16-.72-.33-1.08-.5-.77-.36-1.55-.74-2.33-1.15-.32-.17-.64-.34-.97-.52-.37-.2-.74-.4-1.12-.61-.37-.2-.75-.41-1.12-.64-.37-.22-.75-.44-1.13-.67-1.02-.61-2.05-1.26-3.07-1.96-.62-.42-1.24-.86-1.87-1.31-.2-.14-.39-.28-.59-.43-.48-.36-.97-.73-1.46-1.11-.48-.38-.97-.76-1.45-1.16-.08-.05-.15-.11-.22-.18-.41-.34-.82-.69-1.23-1.04-.24-.21-.48-.41-.72-.63-.32-.28-.65-.58-.97-.88-.55-.51-1.1-1.03-1.64-1.57-.39-.39-.78-.77-1.16-1.17-.39-.39-.77-.8-1.14-1.21-.23-.25-.46-.5-.68-.75-.23-.26-.45-.51-.68-.77-.72-.82-1.42-1.67-2.1-2.54-.06-.08-.12-.15-.19-.23-.11-.15-.23-.3-.35-.46-.47-.6-.93-1.22-1.38-1.86-.38-.52-.75-1.05-1.11-1.59-.02-.03-.04-.06-.07-.09-.39-.58-.78-1.18-1.16-1.79-7.82-16.75.45-24.03.45-24.03,0,0,6.89,26.89,32.23,31.34.25.73.69,1.83,1.3,3.18.03.05.05.1.07.15,2.68,5.87,8.59,16.24,16.97,21.36Z"/>
  <path class="cls-40" d="M463.9,435.27c-.64,2.58-1.74,5.27-3.4,8.04-3.2,6.29-29.42,22.33-62.13,39.89-5.52,2.96-11.01,5.84-16.34,8.45-18.8,9.2-35.7,15.11-45.78,9.93-2.02-.41-4.24-1.01-6.81-3.67-.9-.93-1.84-2.12-2.84-3.64,0-.01,0-.02,0-.02,0,0,9.11-7.74,12.18-12.58.01-.01.01-.02.02-.03.44-.7.75-1.34.89-1.89.01-.02.01-.03.01-.03,0,0,.01.01.04.02,30.65,10.75,50.21-10.5,60.32-27.55,5.26-8.87,7.95-16.61,8.31-18.13.18-.04.37-.09.55-.14.44-.11.87-.22,1.3-.34s.85-.24,1.27-.37c.42-.13.83-.26,1.23-.4.34-.11.66-.23.99-.34.19-.07.37-.14.56-.22.28-.1.55-.21.83-.32.44-.17.88-.36,1.31-.55.32-.14.63-.28.94-.43.36-.16.72-.34,1.07-.51.01,0,.03-.02.04-.03.34-.17.68-.35,1.01-.53.34-.17.66-.36.98-.54.03-.01.06-.03.09-.05.32-.18.63-.37.94-.56,3.49-2.13,6.42-4.61,8.88-7.22.24-.25.46-.49.68-.74.66-.73,1.29-1.48,1.89-2.23.2-.25.39-.5.58-.75.38-.51.75-1.01,1.1-1.51.18-.25.35-.5.52-.75.33-.5.65-1,.96-1.49.16-.25.31-.5.45-.74.15-.24.29-.49.43-.73.17-.29.33-.58.49-.86.39-.71.76-1.42,1.1-2.1.21-.43.4-.84.59-1.25.35-.75.66-1.48.95-2.17.07-.18.14-.35.21-.53.06-.17.13-.33.19-.5.15-.38.29-.75.41-1.11.19-.52.35-1,.5-1.45.3-.95.52-1.74.68-2.33.05-.19.09-.36.12-.51.11-.45.16-.7.16-.7,0,0,.12.07.35.2,3.14,1.8,26.2,15.83,21.19,36.01Z"/>
  <path class="cls-41" d="M603.16,521c-23,41.67-96.11,28.43-96.11,28.43-11.39-1.34-43.58-17-43.58-17-5.33-2.5-22.5-15-24.83-18.33-.05-.06-.1-.12-.16-.19-5.24-6.25-12.04-15.89-16.36-21.35-.47-.61-1.45-.41-1.65.33-4.95,18.1,13.09,48.99,19.67,49.67.14,2.62-1.01,5.13-3.08,6.73l-6.31,4.88c-31.96,8.61-184.62,8.61-194.46,2h-2.33c-8.24-4.85-4.76-39.37.82-58.92,1.36-.55,32.75,25.22,57.75,23.88,5.95-.22,30.67-.88,43.72-19.55,12.94,6.65,37.12-4.97,62.12-18.38,32.71-17.56,58.93-33.6,62.13-39.89,15.59,4.4,27.36,3.83,34.55-1.09,37.63-20.18,33.29-35.43,51.04-39.47-.03,22.08,9.05,33.5,18,61,2.71,5.75,5.67,12.89,8.86,20.16.01.03.03.06.04.09,4.47,10.84,7.69,18.86,12.66,24.93,0-.02.02-.03.02-.05,5.39,8.22,11.23,13.51,17.49,12.12Z"/>
  <path class="cls-28" d="M669.28,388.61c-2,2-15.33,18-27.5,25.66-3.83,3.84-11.5,17.67-25.83,27.34-2,1.75-7.87,8.35-19.22,8.6-2.51.06-5.28-.2-8.34-.88-2.86-.73-6.39-2.79-10.1-5.55h0c-11-8.22-23.65-22.67-25.4-27.28-1.9-4.19-2.65-8.23-2.84-12.22-.01-.18-.02-.35-.03-.53-.26-7.26,1.21-14.37.73-22-.72-11.39-1.51-21.5-1.47-23.48-.86-7.47,3.97-10.97,8.5-11,4.53-.02,15.25,3.31,20.64,28.81,1.39-1.22,28.81-45.35,30.86-47.31,2.06-1.96,7.24-7.16,13.17-3.66s5,7.16,4.64,11.04c-.36,3.87-5.88,16.91-14.9,31.31-.79,1.17,1.36,2.19,2.32,1.39.96-.79,26.77-24.58,30.27-26.24,3.5-1.67,7.29-1.95,10,.83,2.71,2.78,3.21,3.86,3.17,8,.83,5.67-25.17,34.17-24.67,35.17s21.5-10.67,24.67-11.34c3.16-.66,8.5-1.66,11.33,2.84.81,1.42,4,5.5,0,10.5Z"/>
  <path class="cls-34" d="M588.39,449.33c-.57,1.01-3.17,2.99-6.54,5.19-5.52,3.59-13.12,7.74-17.29,9.09-.24-.4-.67-1.27-1.23-2.5h0c-5.9-17.34-11.7-28.13-14.74-40.07-.07-.4-.12-.74-.14-1.04.85-.6,1.5-.89,4.44-3.5,1.75,4.61,14.4,19.06,25.4,27.27h0c3.71,2.77,7.24,4.83,10.1,5.56Z"/>
  <path class="cls-32" d="M588.77,397.49c-1.67-16.08-13.75-14.58-11.17-20.08,2.13-3.14,14.75,5.42,16.25,17.33,2,16.42-4.83,26.67-10.25,24.25-3.75-3.58,7.58-7.58,5.17-21.5Z"/>
  <path class="cls-4" d="M131.08,491.69c-.01.22-.02.44-.03.66-.2,5.15-.48,10.77-.72,16.72-.01.17-.02.35-.02.52-.18,4.43-.34,9.03-.43,13.76.13,3.85.16,7.49.11,10.93-.28,19.35-3.19,32.39-7.1,40.42-.62,1.3-1.28,2.47-1.96,3.51-3.12,4.83-6.65,6.97-9.88,6.97-2.9-.68-5.43-2.8-7.58-6.27-5.75-9.28-8.75-28.2-8.75-54.89,0-35.19,20.26-57.48,29.7-62.16.4-.21.77-.37,1.13-.51,1.03,0,1.88.36,2.6,1.05,3.43,3.32,3.51,14.26,2.93,29.29Z"/>
  <path class="cls-44" d="M131.54,481.64c-.04,1-.08,2.04-.13,3.12-.03.71-.06,1.45-.1,2.2-.07,1.5-.15,3.08-.23,4.73-.01.22-.02.44-.03.66-.24,4.95-.51,10.52-.72,16.72-.01.17-.02.35-.02.52-.11,3.4-.2,6.98-.26,10.76.04.49.08,1,.11,1.53.06,1.09.09,2.24.1,3.45,0,2.73-.4,5.76-.27,8.95-.22,15.25-2.07,26.57-4.77,34.62,0,.01,0,.02,0,.03-.8,2.1-1.61,3.97-2.32,5.77-.66,1.68-1.32,2.89-1.96,3.51-.3.3-.59.46-.88.48-3.63-1.48-15.28-19.37-19.65-41.95-.06-.3-.11-.6-.16-.9-.96-5.14-1.52-10.52-1.52-15.99,0-2.03.1-4.04.3-6.03.17-1.67.4-3.32.69-4.95.84-4.81,2.2-9.45,3.87-13.81.65-1.71,1.35-3.37,2.09-4.98,4.11-8.97,9.38-16.45,13.95-21.37,2.53-2.73,4.84-4.68,6.61-5.65.69-.39,1.31-.63,1.82-.71.03.01.07.03.1.05.13.05.25.11.36.18.18.1.35.21.5.35.09.07.17.14.25.23.33.31.62.7.86,1.16.04.06.07.12.1.19.01,0,0,.01,0,.01.07.12.13.24.17.37,0,0,.01,0,.01.01.06.12.11.26.16.39.09.22.16.45.23.69.12.42.23.87.33,1.36.02.08.03.17.05.26.04.24.08.49.12.75.03.22.07.46.09.7.02.15.04.31.06.48.04.37.07.75.09,1.15,0,.09.02.17.02.26.02.27.04.55.05.84.03.57.05,1.16.06,1.78,0,.28.01.56.01.86.02,2.13-.03,4.53-.13,7.22Z"/>
  <path class="cls-22" d="M230.59,493.91c-.41.79-1.59,7.08-3.67,16h0c-4.92,21.16-14.86,57.11-31.5,70-2.38,1.23-4.79,2.42-7.21,3.58l-2.58,1.23s-51.41,19.07-76.97.46c-2.11-1.54-3.83-3.66-5.19-6.27,2.15,3.47,4.68,5.59,7.58,6.27,3.23,0,6.76-2.14,9.88-6.97.64-.62,1.3-1.83,1.96-3.51.82-1.7,1.6-3.62,2.32-5.77,0-.01,0-.02,0-.03,2.7-8.05,4.55-19.37,4.77-34.62.2-3.19.3-6.22.27-8.95-.01-1.21-.04-2.36-.1-3.45-.03-.53-.07-1.04-.11-1.53.06-3.78.15-7.36.26-10.76,0-.17.01-.35.02-.52.24-5.95.52-11.57.72-16.72.01-.22.02-.44.03-.66.08-1.65.16-3.23.23-4.73.04-.75.07-1.48.1-2.2.05-1.08.09-2.12.13-3.12.1-2.69.15-5.1.13-7.22,0-.3-.01-.58-.01-.86,0-.62-.03-1.21-.06-1.78,0-.29-.03-.57-.05-.84,0-.09-.01-.17-.02-.26-.02-.4-.05-.78-.09-1.15-.02-.17-.04-.33-.06-.48-.02-.24-.06-.48-.09-.7-.04-.26-.08-.51-.12-.75-.02-.09-.03-.18-.05-.26-.1-.49-.21-.94-.33-1.36-.07-.24-.14-.47-.23-.69-.05-.13-.1-.27-.16-.39,0-.01-.01-.01-.01-.01-.05-.13-.1-.25-.17-.37,0,0,.01-.01,0-.01-.03-.07-.06-.13-.1-.19-.24-.46-.53-.85-.86-1.16-.08-.09-.16-.16-.25-.23-.15-.14-.32-.25-.5-.35-.11-.07-.23-.13-.36-.18-.72-.69-1.57-1.05-2.6-1.05,7.56-.78,14.67,4.9,39.56,15.67,14.22,4.22,28.66,5.33,42.48-4.77,5.76,4.85,13.34,13.48,20.08,19.3,1,.85,1.97,1.65,2.92,2.36Z"/>
  <path class="cls-39" d="M131.08,491.69c-.01.22-.02.44-.03.66-.2,5.15-.48,10.77-.72,16.72-.01.17-.02.35-.02.52-.11,3.4-.2,6.98-.26,10.76.04.49.08,1,.11,1.53h0c-4.93,1.36-20.84-5.58-25.76-8.04-.09-.04-.18-.09-.26-.13,15.84-3.58,21.67-21,22.92-42.42,1.68,1.04,3.76,1.92,4.61,2.27.09,4.61-.21,10.64-.58,18.13Z"/>
  <path class="cls-46" d="M127.05,471.29c-1.25,21.42-7.08,38.84-22.92,42.42.08.04.17.09.26.13-1.62-.01-3.11.27-4.89.05-.16-.01-.32-.04-.48-.07-.08,0-.17-.02-.25-.04-.39-6.57-.25-12.39.08-15.81.03-.28.05-.53.08-.77h0c.06-.5.12-.93.19-1.28.06-.3.25-.57.5-.74.2-.14.44-.22.68-.22.03,0,.06.01.09.01,1.03.1,2.08.12,3.19.09.83-.02,1.69-.07,2.59-.14.75-.05,1.33-.69,1.3-1.44v-.05c-.05-1.35-.71-2.62-1.8-3.35-.17-.13-.36-.23-.55-.32-.9-.41-1.75-1.07-2.48-1.85-.82-.88-1.49-1.9-1.93-2.89-.34-.78-.55-1.53-.57-2.18-.08-2.77-.67-12.15,0-13.08.27-.38.68-.48,1.27-1.32.5-.72,1.14-1.97,1.95-4.36,1.61-4.78,2.17-9.93,1.19-14.88-.25-1.29-1-2.75-2.15-3.44-1.02-.61-2.71-.05-3.22.79-.75,1.22-.72,2.79.22,3.67.48.47.69,1.15.69,1.82,0,2.49-.15,7.74-1.49,10.81-.1.24-.21.46-.33.67-.59,1.02-1.57,3.43-3.67,4.76-1.77,1.13-4.35,1.48-8.16-.43-2.33-1.5-6-2-7-14.67.01-.27.02-.63.04-1.05h0c.1-3.01.46-9.47,3.96-14.28,4-5.5,3-7,11.17-9.83.83-.67,24.83-8.67,30.94,33.33.26.62.49,1.19.68,1.71,1.6,4.27,1.17,5.61.82,8.23Z"/>
  <path class="cls-37" d="M107.47,493.43v.05c.03.75-.55,1.39-1.3,1.44-.9.07-1.76.12-2.59.14-1.11.03-2.16,0-3.19-.09-.03,0-.06-.01-.09-.01-.24,0-.48.08-.68.22-.25.17-.44.44-.5.74-.07.35-.13.78-.19,1.27h0c-.03.25-.05.5-.08.78v-.53l-.1-17.42c-.01-.88-.67-1.58-1.46-2.45,0,0-1.91-1.56-2.15.06-.47,3.08-6.69,6.4-10.35,7.1-.21.04-.32.06-.32.06-.43.07-1.17.1-2.14.11-7.11.08-26.54-1.21-26.54-1.21-.08,0-.17,0-.25-.03-.08-.01-.15-.03-.23-.05-.08-.02-.15-.05-.22-.08-.07-.02-.14-.06-.2-.09-.27-.15-.5-.36-.67-.6-.14-.16-.23-.35-.3-.54-.05-.13-.09-.27-.11-.42-.01-.1-.02-.19-.02-.29,0-.23.04-.47.13-.71.32-.9,1.82-1.96,2.77-1.95,5.61.1,24.53.65,24.95.61.5-.04.98-.08,1.44-.13.28-.03.55-.06.81-.09.32-.04.63-.08.93-.12.08-.01.15-.02.22-.03.61-.09,1.19-.19,1.73-.3h.01c.86-.17,1.63-.37,2.32-.57.24-.08.47-.16.69-.23.22-.07.42-.14.62-.22.39-.15.76-.31,1.09-.46.17-.08.33-.16.48-.24.32-.17.62-.34.88-.5.21-.14.39-.27.57-.4,1.54-1.19,1.71-2.21,1.71-2.21h-4.86c-2.28,0-4.57-.47-6.57-1.56-8.03-4.39-8.4-15.02-8.4-15.02,0,0-17.48.31-22.55.24-.07,0-.15-.01-.22-.01-.06,0-.11-.02-.16-.03-.15-.02-.29-.06-.43-.12-.1-.04-.2-.09-.3-.14-.33-.19-.61-.46-.81-.78-.17-.25-.28-.55-.33-.87-.02-.16-.03-.33-.05-.54-.07-1.14.3-2.17,1.94-2.05.81.01,1.8.03,2.91.04.41.01.84.01,1.28.01.98.01,2.02.02,3.1.03,2.36.03,4.87.04,7.17.04h.03c1.84.01,3.55.01,4.91-.01h.2c.22,0,.42,0,.62-.01,1.05-.02,1.82-.05,2.2-.09.06-.01.12-.01.16-.02.04,0,.07-.01.08-.02-.04-.28-.07-.57-.09-.87h0c-.01-.09-.02-.17-.02-.25-.02-.36-.04-.72-.04-1.09s.01-.76.04-1.15v-.02c.02-.39.06-.78.1-1.18v-.02c.05-.39.11-.78.17-1.18v-.02c.07-.39.14-.79.23-1.18v-.02c.09-.39.18-.78.28-1.17-.01-.01,0-.01,0-.01.1-.39.21-.77.32-1.15v-.02c.12-.38.24-.75.36-1.11h0c.13-.37.26-.73.4-1.08,1.09-2.82,2.48-5.02,3.65-5.64.17-.1.44-.13.57.02,1.41,1.51,2.41,1.86,2.41,1.86-3.5,4.81-3.86,11.27-3.96,14.27h0c-.02.43-.03.79-.04,1.06,1,12.67,4.67,13.17,7,14.67,3.81,1.91,6.39,1.56,8.16.43,2.1-1.33,3.08-3.74,3.67-4.76.12-.21.23-.43.33-.67,1.34-3.07,1.5-8.32,1.49-10.81,0-.67-.21-1.35-.69-1.82-.94-.88-.97-2.45-.22-3.67.51-.84,2.2-1.4,3.22-.79,1.15.69,1.9,2.15,2.15,3.44.98,4.95.42,10.1-1.19,14.88-.81,2.39-1.45,3.64-1.95,4.36-.59.84-1,.94-1.27,1.32-.67.93-.08,10.31,0,13.08.02.65.23,1.4.57,2.18.44.99,1.11,2.01,1.93,2.89.73.78,1.58,1.44,2.48,1.85.19.09.38.19.55.32,1.09.73,1.75,2,1.8,3.35Z"/>
  <path class="cls-10" d="M80.46,435.97c-1.17.62-2.56,2.82-3.65,5.64-.14.34-.27.7-.4,1.07h0c-.13.37-.25.74-.36,1.12v.02c-.12.38-.23.76-.32,1.15,0,0-.01,0,0,.01-.11.38-.2.78-.28,1.17v.02c-.09.39-.16.79-.23,1.18v.02c-.07.4-.12.79-.17,1.18v.02c-.04.4-.08.79-.1,1.18v.02c-.03.39-.04.77-.04,1.15s.02.73.04,1.09c0,.08.01.16.02.24h0c.02.31.05.6.09.88-.01.01-.04.02-.08.02-.04.01-.1.01-.16.02-.38.04-1.15.07-2.2.09-.2,0-.4,0-.62.01h-.2c-1.37.02-3.07.02-4.91.01h-.03c-2.3,0-4.81-.01-7.17-.04-1.08,0-2.12-.01-3.1-.03-.44,0-.87,0-1.28-.01-1.11-.01-2.1-.03-2.91-.04-1.64-.12-2.01.91-1.94,2.05.02.21.03.38.05.54,0,0-8.43-19.03,18.07-23.03h.15c8.56.04,11.73,3.25,11.73,3.25Z"/>
  <path class="cls-10" d="M95.14,474.04s-.78,4.56-13.5,5.5c-.42.04-19.34-.51-24.95-.61-.95-.01-2.45,1.05-2.77,1.95-.09.24-.13.48-.13.71,0,.25.04.49.13.71,0,0-6.29-2.82-6.79-10.15-2-10.87,2.67-12.92,3.71-15.53.4.65,1.12,1.07,1.92,1.08,5.07.07,22.55-.24,22.55-.24,0,0,.37,10.63,8.4,15.02,2,1.09,4.29,1.56,6.57,1.56h4.86Z"/>
  <path class="cls-10" d="M95.25,496.67c-1.09,4.65-6.5,10.4-22.84,11.15-.34.06-.69.11-1.03.16-8.9,1.17-17.54-3.26-19.3-12.33-1.83-9.42,2.13-12.81,2.13-12.81h.01c.17.24.4.45.67.6.06.03.13.07.2.09.07.03.14.06.22.08.08.02.15.04.23.05.08.02.17.03.25.03,0,0,19.43,1.29,26.54,1.21.97-.01,1.71-.04,2.14-.11,0,0,.11-.02.32-.06,2.09-.33,13.66-1.58,10.46,11.94Z"/>
  <path class="cls-17" d="M102.61,814.51c-11.92,1.5-12.56-15.44-12.56-15.44l-18.67-291.09c.34-.05.69-.1,1.03-.16,16.34-.75,21.75-6.5,22.84-11.15,3.2-13.52-8.37-12.27-10.46-11.94,3.66-.7,9.88-4.02,10.35-7.1.24-1.62,2.15-.06,2.15-.06.79.87,1.45,1.57,1.46,2.45l.1,17.43v.52c-.33,3.42-.47,9.24-.08,15.81.08.02.17.03.25.04-.2,1.99-.3,4-.3,6.03,0,5.47.56,10.85,1.52,15.99l1.86,40.55,10.17,221.79s2.25,14.83-9.66,16.33Z"/>
  <path class="cls-17" d="M75.38,257.49s13.2,8.13,16.34,22.77c1.08,28.7-2.7,102.03,2.89,147.43-8.17,2.83-7.17,4.33-11.17,9.83,0,0-1-.35-2.41-1.86-.13-.15-.4-.12-.57-.02,0,0-3.17-3.21-11.73-3.25-3.54-36.35-9.64-117.15-11.71-139.34-.22-2.35-.87-4.64-1.96-6.73-1.42-2.72-2.58-4.02-4.81-6.03-3.95-3.58-8.24-6.77-12.74-9.61-10.15-6.37-12.53-9.22-21.24-19.19-9.94-12.67-11.81-25.53-12.62-35.07-.36-4.21,0-9.42,0-9.42,4.34-37.33,42.05-65.18,70.4-65.18,43.85,0,56.52,37.24,57.63,57.83,2.04,38.17-24.21,57.84-56.3,57.84Z"/>
  <path class="cls-2" d="M71.63,208.88c-.58,1.25-2.25,2.48-2.41,4.34-.24,2.69,5.05,6.14,10.91,6.5,4.81-.22,13.27-3.58,15.36-12.98.57-2.52.52-5.15.01-7.69-1.67-8.38-5.16-15.16-12.62-19.15-8.35-4.46-18.5-3.8-26.56,1.16-8.17,5.02-16.65,14.24-19.96,28.33-.86,3.71-.86,7.56-.1,11.28,2.24,10.94,5.42,17.59,19.64,26.39,2.64,1.64,5.46,3,8.32,4.22,5.57,2.37,11.16,6.54,11.16,6.54,0,0,13.14,8.45,16.34,22.77-5.06-3.18-6.4-7.51-15.93-15.13-2.2-1.76-4.57-3.3-7.07-4.59-8.2-4.2-19.97-10.25-27.59-17.82-2.86-2.8-11.66-10.17-11.41-30.03-.22-11.66,9.11-29,19.08-34.47,5.58-3.53,11.92-8.3,26.17-7.33,9.08.47,25.41,10.25,27.16,29.16.7,4.31-.86,22.31-20,25.52-8.41,0-14.41-2.21-17.83-9.52-.69-3.36-1.58-7.69,2.5-11,.92-.8,2.64-.97,3.83,0,1.2.98,1.53,2.39,1,3.5Z"/>
  <path class="cls-1" d="M438.76,292.73c-.11.94-.21,1.71-.28,2.2-.02.12-.03.22-.05.3-.03.19-.05.29-.05.29-.96.55-5.19,14.75-12.24,29.09-5.08,10.36-11.64,20.79-19.49,26.25-1.59,1.11-3.24,2.01-4.93,2.66-9.04,4.17-18.52,2.44-26.2-.28-2.3-6.74-7.45-12.85-13.75-15.84-.08-.04-.16-.08-.24-.11-3.88-.8-7.6-2.07-11.1-3.75-.36-.17-.72-.35-1.08-.54-.58-.29-1.16-.6-1.72-.93-.48-.26-.96-.54-1.43-.83-.27-.16-.53-.32-.79-.49-.27-.17-.53-.33-.79-.51-4.11-2.72-7.82-6.06-10.99-9.88v-.04c-.6-1.01-1.35-2.25-2.17-3.68-4.02-6.96-9.82-18.29-9.55-27.92.01-.21.02-.42.03-.63-.16-.12-.32-.24-.49-.35-.02-.01-.03-.02-.05-.03-.19-.13-.39-.24-.6-.35-.04-.02-.09-.04-.14-.07-.23-.12-.47-.22-.72-.32h-.01c-.52-.21-1.08-.38-1.67-.51-.07-.01-.14-.03-.21-.04-.26-.06-.52-.1-.8-.14-.02-.01-.04-.01-.06-.01-.32-.05-.64-.09-.98-.12-.25-.03-.51-.05-.77-.06-.97-.06-2-.05-3.06.02-.3.01-.6.03-.91.06-.39.03-.79.07-1.2.12-.16.02-.32.04-.48.05-.42.06-.85.12-1.28.19-.48.07-.97.15-1.45.25-.49.08-.98.18-1.47.29-.98.2-1.96.44-2.93.69h0c-.32.08-.64.16-.96.25-2.41.65-4.74,1.42-6.84,2.19-3.89,1.45-6.99,2.95-8.35,3.92-2.94,2.13-6.22,4.35-9.12,7.76-3.22,3.78-5.96,9.02-7.26,17.22-.09.54-.17,1.09-.24,1.66-.01,2.23-.09,4.61.48,7.16.04.15.08.31.12.47-.05.03-.1.06-.15.09-10.68,3.8-20.14,13.05-24.19,21.75-8.03.4-26.85-4.48-30.42-22.04.03-8.58,2.99-13.32,3.67-17.18h0c.63-3.52,2.35-6.53,3.6-8.14.11-.16.23-.3.34-.43.75-1.53,6-6.72,7.33-11.56.27-.98.65-3.41,1.09-6.69,1.72-13,4.31-39.39,4.37-41.93h0c.07-3.18-.01-5.11.86-9.83,2.88-13.68,8.69-29.57,19.24-40.21,18.89.03,126.03,7.16,179.78,32-5.75,16.82-3.5,52.53,3.05,61.56h0c.12,2.42-.08,5.04-.29,6.95Z"/>
  <path class="cls-7" d="M445.44,366.68c.5,13.2-.61,23.91-2.73,32.58-.23-.13-.35-.2-.35-.2,0,0-.05.25-.16.7-.03.15-.07.32-.12.51-.16.59-.38,1.38-.68,2.33-.15.45-.31.94-.5,1.45-.12.36-.26.73-.41,1.11-.06.17-.13.33-.19.5-.07.18-.14.35-.21.53-.29.69-.6,1.42-.95,2.17-.19.41-.39.83-.59,1.25-.34.68-.71,1.39-1.1,2.1-.16.28-.32.57-.49.86-.14.24-.28.49-.43.73-.15.25-.3.49-.45.74-.31.49-.63.99-.96,1.49-.17.25-.34.5-.52.75-.35.5-.72,1-1.1,1.51-.19.25-.38.5-.58.75-.6.75-1.23,1.5-1.89,2.23-.22.25-.45.5-.68.74-2.46,2.61-5.39,5.09-8.88,7.22-.31.19-.62.38-.94.56-.03.02-.06.04-.09.05-.32.18-.64.37-.98.54-.33.18-.67.36-1.01.53-.01.01-.03.02-.04.03-.35.17-.71.35-1.07.51-.31.15-.62.29-.94.43-.43.19-.87.38-1.31.55-.28.11-.55.22-.83.32-.19.08-.37.15-.56.22-.33.11-.65.23-.99.34-.4.14-.81.27-1.23.4-.42.13-.84.25-1.27.37s-.86.23-1.3.34c-.18.05-.37.1-.55.14-.36,1.52-3.05,9.26-8.31,18.13-10.11,17.05-29.67,38.3-60.32,27.55-.03-.01-.04-.02-.04-.02,0,0,0,.01-.01.03-.07.15-.38.82-.89,1.89,0,.01,0,.02-.02.03-3.07,4.84-12.18,12.58-12.18,12.58-1.61,1.23-14.91,12.88-32.67,12.66-8.61-.11-18.5-.11-28.33-8.66-8.38-5.12-14.29-15.49-16.97-21.36-.02-.05-.04-.1-.07-.15-.43-1.04-.87-2.1-1.3-3.18-25.34-4.45-32.23-31.34-32.23-31.34-1.66-7.67-1.5-13.34,0-18.03-28.5-17.64-30-48.64-19.6-72.33,2.27-5.64,10.94-20.48,20.3-23.67,3.57,17.56,22.39,22.44,30.42,22.04.2-.01.39-.02.58-.04-1.64,2.95-2.37,5.37-2.51,7.36-.44,6.1,4.59,8.13,5.51,8.97,23.22,14.7,43.36-2.52,45-2.66.06-.01.23-.1.47-.28.46-.33,1.21-.94,2.13-1.75.2-.17.41-.36.63-.56,1.73-1.54,3.91-3.63,5.91-5.8.02.02.03.05.05.07.07.1.14.2.22.3,5.25,7.16,20.39,17.66,36.25,17.68h.09c23.56.44,28.87-4.28,32.91-8.66,2.93-3.17,2.83-5.98,2.44-8.64-.16-1.03-.35-2.03-.44-3.03.05.02.09.03.14.05,7.68,2.72,17.16,4.45,26.2.28,21.69-8.36,34.91-57.26,36.71-58.29,4.26,1.23,8.3,2.5,10.98,3.56.22.09.42.17.62.25.12.05.24.1.35.15-9.05,12.92-8.67,26.8-5.61,59.5.19,2.09.39,4.25.61,6.5.02.5.04,1,.06,1.49Z"/>
  <path class="cls-29" d="M408.91,433.92c-.18.05-.37.1-.55.14-.36,1.52-3.05,9.26-8.31,18.13-10.11,17.05-29.67,38.3-60.32,27.55-.03-.01-.04-.02-.04-.02,0,0,0,.01-.01.03-.07.15-.38.82-.89,1.89,0,.01,0,.02-.02.03-3.07,4.84-12.18,12.58-12.18,12.58-1.61,1.23-14.91,12.88-32.67,12.66-8.61-.11-18.5-.11-28.33-8.66-8.38-5.12-14.29-15.49-16.97-21.36-.02-.05-.04-.1-.07-.15-.43-1.04-.87-2.1-1.3-3.18-25.34-4.45-32.23-31.34-32.23-31.34,0,0,0-.02-.01-.06-.07-.78-.79-9.05-.33-16.79.1-.4.22-.79.34-1.18-.08-.05-.16-.1-.24-.16,0-.1,0-.21.02-.31-1.38-.78-3.29-1.96-5.44-3.49-.02-.02-.04-.03-.07-.05-14.59-11.49-20.14-27.13-19.74-42.65.44-7.1,2.28-15.68,6.58-26.99,0,9.66-13.38,50.73,20.34,60.84.94,3.34-6.67,45.67,34.33,50.61-3,26.39,49.83,65.32,90.67-5.37,18.39,46.89,64.44-18.4,65-53.29,2.62,1.36,2.69,18.93,2.44,30.59Z"/>
  <path class="cls-8" d="M340.47,373.52c-.53.82-1.15,1.61-1.87,2.35-4.25,4.43-11.66,7.36-20.08,7.36-11.12,0-20.46-10.39-23.13-18.98-.07-.22-.14-.45-.2-.67.46-.33,1.21-.94,2.13-1.75.2-.17.41-.36.63-.56,1.73-1.54,3.91-3.63,5.91-5.8.02.02.03.05.05.07.07.1.14.2.22.3,5.25,7.16,20.39,17.66,36.25,17.68h.09Z"/>
  <g id="left_beard" data-name="left beard">
    <path class="cls-38" d="M303.91,355.54s-.03-.05-.05-.07c-2,2.17-4.18,4.26-5.91,5.8-.22.2-.43.39-.63.56-.92.81-1.67,1.42-2.13,1.75-.24.18-.41.27-.47.28-1.64.14-21.78,17.36-45,2.66-1.22-1.11-9.67-4.33-3-16.33-.19.02-.38.03-.58.04,4.05-8.7,13.51-17.95,24.19-21.75,30.5-18.33,37.83-3.89,41.55,4.5,2.94,6.62-1.17,14.65-7.97,22.56Z"/>
  </g>
  <g id="right_beard" data-name="right beard">
    <path class="cls-38" d="M373.38,364.86c-4.04,4.38-9.35,9.1-32.91,8.66h-.09c-15.86-.02-31-10.52-36.25-17.68-5.72-11.56-2.74-24.59-.47-29.72,2.14-4.81,13.59-12.24,30.22-5.39,6.59,3.5,17.73,11.84,27.89,16.67,6.3,2.99,11.45,9.1,13.75,15.84-.05-.02-.09-.03-.14-.05.31,3.58,2.06,7.28-2,11.67Z"/>
  </g>
  <ellipse class="cls-23" cx="272.55" cy="286.82" rx="26.22" ry="20.7" transform="translate(-56.01 507.27) rotate(-80.32)"/>
  <ellipse class="cls-23" cx="368.82" cy="291.23" rx="24" ry="26.72" transform="translate(-10.57 13.92) rotate(-2.13)"/>
  <ellipse class="cls-5" cx="278.63" cy="286.71" rx="13.67" ry="15.75"/>
  <ellipse class="cls-5" cx="372.14" cy="291.41" rx="13.67" ry="15.39"/>
  <path class="cls-36" d="M256.22,192.22c-.47.47-.92.95-1.37,1.44-9.69,10.6-15.12,25.69-17.87,38.77-.87,4.72-.79,6.65-.86,9.82h0c-.04,1.73-1.24,14.34-2.53,26.35-.63,5.76-1.28,11.38-1.84,15.59-.44,3.28-.82,5.71-1.09,6.69-1.33,4.84-6.58,10.03-7.33,11.56-.11.13-.23.27-.34.43-1.25,1.61-2.97,4.62-3.6,8.13-.01,0-.01-.01-.01-.01h0c-3.28-8.7-4.08-17.98-3.93-27.41.03-2.34.13-4.68.26-7.03.48-8.87,1.46-17.78,1.68-26.38h0c.49-20.08,4.25-43.99,32.03-57.95,3.11,0,4.89.19,6.8,0Z"/>
  <path class="cls-15" d="M396.59,234.37c-.59,1.95-2.19,3.47-4.49,4.6-6.88,3.39-20.01,3.18-30.81-.07-2.13-.65-4.11-1.34-5.93-2.08-10.45-4.26-15.55-10.06-13.55-16.69.43-1.4,1.3-2.69,2.54-3.84,5.61-5.21,18.64-7.44,30.43-3.88,9.71,2.93,17.31,8.35,20.51,13.96,1.55,2.71,2.07,5.46,1.3,8Z"/>
  <path class="cls-15" d="M279.23,234.3c-.07.02-.14.04-.21.06-11.88,3.53-26.27,2.63-28.55-4.9-.1-.35-.19-.7-.25-1.06-.84-4.33,1.03-9.14,5.08-13.18h.01c2.83-2.83,6.73-5.28,11.52-6.91,9.79-3.34,21.06-.33,25.91,5.11h.01c1,1.11,1.72,2.33,2.11,3.62,2.28,7.57-3.7,13.66-15.63,17.26Z"/>
  <path class="cls-5" d="M439.05,285.78c-1.95-.44-3.85-.86-5.66-1.26-6.26-1.4-11.34-2.48-12.51-2.73l-.18-.03c-2.15-26.67-23.51-47.62-49.55-47.62s-45.71,19.33-49.21,44.49c-.02-.04-.04-.08-.06-.12-6.32-3.72-13.69-2.21-18.56,1.24.01-.21.01-.42.01-.63,0-26.81-19-48.8-43.18-50.96-1.29-.12-2.61-.18-3.93-.18-6.85,0-13.37,1.59-19.24,4.45-7.95,3.86-14.72,10.03-19.59,17.73h0c-4.27,6.72-7.08,14.59-7.97,23.1-.19,1.77-.29,3.56-.3,5.38-.01.16-.01.32-.01.48,0,12.05,3.83,23.12,10.27,31.86h0s0,.02.01.02h0c8.63,11.74,21.92,19.26,36.83,19.26,4.93,0,9.68-.82,14.14-2.34.91-.31,1.82-.65,2.7-1.03,2.21-.91,4.34-2.01,6.38-3.26,12.06-7.43,20.81-20.48,23.21-35.87h0c.48-.12.97-.25,1.46-.36.49-.12.98-.23,1.47-.33.04,0,.09-.02.13-.03.25-.05.49-.1.73-.15.21-.04.41-.07.61-.11.48-.1.97-.18,1.45-.25.36-.06.73-.11,1.08-.16.07-.01.13-.02.2-.03.16-.02.32-.04.48-.05.41-.05.81-.09,1.2-.12.31-.03.61-.05.91-.06.15-.01.3-.02.45-.03.41-.02.82-.03,1.22-.03.47,0,.94.01,1.39.04.33.02.64.05.96.08.27.03.53.06.79.1.02,0,.04,0,.06.01.12.02.24.04.35.05.15.03.3.06.45.09.07.01.14.03.21.04.03.01.07.02.1.03.26.06.51.12.76.2.05.01.09.03.13.04.24.07.46.15.68.24h.01c.15.06.3.12.44.19.09.04.19.09.28.13.05.03.1.05.14.07.2.1.38.21.56.32.01,0,.03.02.04.03.02.01.03.02.05.03.35,12.47,4.88,23.84,12.18,32.62.12.15.25.3.38.44,3.08,3.64,6.66,6.83,10.61,9.44.26.18.52.34.79.51.26.17.52.33.79.49.47.29.95.57,1.43.83.56.33,1.14.64,1.72.93.36.19.72.37,1.08.54,3.5,1.68,7.22,2.95,11.1,3.75h.02c3.1.64,6.32.97,9.6.97,26,0,47.33-20.88,49.54-47.49,3.02.52,10.68,2.42,17.74,4.46,4.26,1.23,8.3,2.5,10.98,3.56.22.09.42.17.62.25.12.05.24.1.35.15.25-.34,2.07-1.45,4.32-2.66,2.8-1.52,6.27-3.21,8.3-3.85.13-.03.22-.07.27-.12.86-.84-12.3-4.06-24.22-6.78ZM270.12,319.1c-4.33,1.72-9.01,2.65-13.9,2.65-13.84,0-26.04-7.49-33.23-18.88-3.4-5.4-5.67-11.67-6.46-18.44-.21-1.74-.31-3.51-.31-5.31,0-15.74,8-29.48,19.9-36.87,5.82-3.61,12.57-5.71,19.77-5.77h.33c22.09,0,40,19.09,40,42.64,0,3.83-.47,7.55-1.37,11.08-3.36,13.37-12.67,24.14-24.73,28.9ZM371.15,330.14c-23.04,0-41.73-19.67-41.73-43.94s18.69-43.94,41.73-43.94,41.73,19.67,41.73,43.94-18.68,43.94-41.73,43.94Z"/>
  <path class="cls-45" d="M333.63,320.32c-.2,5.56-2.99,10.11-9.12,15.72-1.46,1.34-3.11,2.73-4.96,4.22-13.05,9.39-23.83,7.33-33.33,4.5-17-9.67-16.36-17.44-16.34-24,.1-.78.21-1.53.34-2.26,2.57-15.14,10.18-19.95,16.28-24.38,2.09-1.5,8.34-4.25,15.19-6.11,7.72-2.11,16.18-3.1,20.25.08-.01.21-.02.42-.03.63-.33,11.61,8.17,25.68,11.72,31.6Z"/>
  <path class="cls-43" d="M501.45,399.06c0,21.54-21.74,36.46-34.81,36.46-.91,0-1.83-.08-2.74-.25,5.01-20.18-18.05-34.21-21.19-36.01,2.12-8.67,3.23-19.38,2.73-32.58,5.5.8,13.01.84,23.11-.03,3.86-.77,7.38-2.12,10.58-4.01,11.17,7.25,22.32,21.34,22.32,36.42Z"/>
  <path class="cls-18" d="M501.42,325.63c-.25,1.12-.51,2.23-.79,3.31-4.05,15.81-11.06,27.58-21.5,33.7-3.2,1.89-6.72,3.24-10.58,4.01-10.1.87-17.61.83-23.11.03-.02-.49-.04-.99-.06-1.49-.22-2.25-.42-4.41-.61-6.5-.15-1.57-.29-3.1-.42-4.59-.14-1.55-.27-3.05-.39-4.51-.23-2.7-.43-5.26-.6-7.68-.4-5.88-.61-10.99-.53-15.52.01-.37.01-.73.02-1.09.01-.36.02-.72.04-1.07.08-2.04.22-3.96.43-5.78.04-.34.08-.66.12-.99.06-.41.12-.81.18-1.21.09-.55.18-1.1.29-1.64.11-.61.24-1.22.38-1.81.07-.3.14-.6.22-.89.21-.82.43-1.61.68-2.39.12-.34.23-.68.35-1.01.09-.28.19-.55.3-.82.15-.41.32-.82.49-1.22.16-.4.34-.79.52-1.18.05-.11.1-.22.15-.32.23-.5.48-.99.74-1.48.23-.43.47-.86.72-1.29.06-.12.13-.24.22-.36.21-.39.45-.77.7-1.15.32-.5.65-1,1-1.5.25-.34,2.07-1.45,4.32-2.66,2.8-1.52,6.27-3.21,8.3-3.85.13-.03.22-.07.27-.12.77-.17,1.54-.32,2.33-.43,1.9-.29,3.84-.4,5.82-.34,8.9.29,16.45,3.31,21.74,8.82,5.52,5.73,8.61,14.16,8.26,25.02Z"/>
  <path class="cls-51" d="M493.16,300.61c-5.29-5.51-12.84-8.53-21.74-8.82-1.98-.06-3.92.05-5.82.34-.79.11-1.56.26-2.33.43.86-.84-12.3-4.06-24.22-6.78-6.55-9.03-8.8-44.74-3.05-61.56,15.72,5.16,46.96,18.49,52.06,20.82,23.66,29.08,8.53,52.14,5.1,55.57Z"/>
  <path class="cls-20" d="M474.45,98.21c-1.43.52,2.16,37.48,4.96,69.01.06.66.12,1.31.17,1.97.09.95.18,1.89.26,2.82.28,3.2.55,6.32.8,9.31.09.96.16,1.91.24,2.84.36,4.3.67,8.29.92,11.82.06.82.11,1.62.16,2.39,0,.15.02.3.03.44.04.62.08,1.22.11,1.8.03.42.05.84.07,1.24.02.31.04.61.05.91.06,1.06.1,2.03.13,2.91.01.28.02.55.02.81.03.92.04,1.73.03,2.41,45.02,29.22,73.18,69.07,70.16,90.12-3.72-17.55-26.3-36.31-64.49-53.96h-.01s-.01-.01-.02-.02c-.02-.01-.03-.01-.05-.03-5.3-2.4-36.34-15.65-51.99-20.78-2.11-.97-4.3-1.92-6.56-2.83-.74-.31-1.49-.61-2.25-.9-.62-.25-1.24-.49-1.86-.72-.91-.35-1.84-.69-2.77-1.03-2.68-.97-5.44-1.91-8.28-2.81-.89-.29-1.79-.57-2.7-.85-.98-.31-1.98-.61-2.98-.9-.63-.19-1.26-.37-1.9-.56-1.53-.44-3.08-.88-4.65-1.3-.88-.24-1.76-.48-2.65-.71-1.01-.27-2.02-.53-3.04-.79-4.57-1.18-9.24-2.28-13.97-3.31-1.26-.28-2.52-.55-3.79-.82-.53-.11-1.06-.22-1.59-.33-2.05-.43-4.1-.84-6.16-1.24-1.63-.32-3.26-.63-4.89-.94-2.98-.55-5.96-1.09-8.95-1.59-1.16-.2-2.31-.4-3.46-.58-1.03-.18-2.07-.34-3.11-.51-1.03-.17-2.07-.33-3.1-.49-1.79-.28-3.57-.56-5.34-.81-1.3-.2-2.6-.39-3.89-.57-5.72-.82-11.35-1.56-16.82-2.23-.58-.07-1.16-.14-1.74-.21-.21-.02-.42-.05-.62-.07-.34-.05-.68-.08-1.02-.12-6.86-.81-13.44-1.5-19.6-2.08-.76-.07-1.51-.14-2.25-.21-2.73-.25-5.37-.48-7.91-.7-.73-.06-1.44-.11-2.15-.17-3.01-.24-5.86-.45-8.54-.63-.76-.06-1.51-.11-2.24-.15-.68-.05-1.34-.09-1.98-.13-1.12-.07-2.2-.13-3.24-.19-.76-.04-1.49-.08-2.2-.12-1.29-.07-2.51-.13-3.65-.18-.26,0-.52-.02-.77-.03-3.03-.13-5.46-.19-7.16-.19-1.91.19-3.69,0-6.8,0-57.33-5.27-89.7,10.79-92.77,18.85,6.31-25.19,58.2-43.48,110.97-49.58,1.1-1.97,2.48-4.16,4.12-6.54C302.72,109.89,424.64-2.29,450.38,3.99c23.23,10.05,66.4,64.11,69.84,66.22,6.78-2.39,20.93-11.39,26.19-14.22,5.26-2.83,8.93,0,8.93,0,0,0,3,3.33-1.84,13.83-5.12,9.11-18,44.5-39.5,45.5-18-2.16-37.28-17.94-39.55-17.11Z"/>
  <path class="cls-30" d="M249.42,192.22c-.87.44-1.71.88-2.53,1.34-.42.23-.82.46-1.22.69-.92.53-1.82,1.08-2.68,1.65-.39.24-.77.5-1.14.75-.4.27-.79.54-1.17.82-.37.26-.74.53-1.1.81-.34.25-.68.51-1.01.78-1.49,1.16-2.87,2.37-4.15,3.61-.29.27-.57.55-.84.83-.55.56-1.09,1.12-1.6,1.69-.05.06-.1.11-.14.16-1.66,1.85-3.13,3.77-4.43,5.74-.19.28-.37.56-.55.85-.17.27-.34.53-.5.8-.29.47-.57.95-.83,1.43-.17.28-.32.57-.48.86-.69,1.27-1.31,2.57-1.88,3.87-4.47,10.23-5.53,21.22-5.78,31.26h0c-4.27,6.72-7.08,14.59-7.97,23.1-35.93-19.35-55.44-39.92-53.32-59.05.16-.72.27-1.43.31-2.11.07-.34.15-.69.24-1.03,3.07-8.06,35.44-24.12,92.77-18.85Z"/>
  <path class="cls-50" d="M552.56,299.01c-.06.55-.16,1.08-.28,1.6-5.75,19.46-24.99,26.82-51.65,28.33.28-1.08.54-2.19.79-3.31.35-10.86-2.74-19.29-8.26-25.02,1.68-1.68,6.16-8.07,7.52-17.56h0c1.02-7.11.3-15.94-4.65-25.85-.02-.05-.04-.09-.07-.13-1.84-3.66-4.26-7.46-7.39-11.38-.28-.36-.45-.58-.5-.64,38.19,17.65,60.77,36.41,64.49,53.96Z"/>
  <path class="cls-47" d="M482.4,208.89c-5.99-6.49-114.9-58.62-214.78-47.4,1.1-1.97,2.48-4.16,4.12-6.54,5.79-7.81,16.27-20.27,21.88-26.9,62.76-13.34,157.42,11.76,185.79,39.17,1.68,18.72,3.08,35.53,2.99,41.67Z"/>
  <path class="cls-11" d="M516.47,114.35c0,.26-.05.5-.12.72-.77.13-1.55.21-2.35.25-18-2.16-37.28-17.94-39.55-17.11-1.52-4.03-1.91-24.45-1.97-32.09,0-.5.63-.72.93-.31,9.55,12.86,38.41,43.75,43.06,48.54Z"/>
  <path class="cls-42" d="M500.68,283.04c-21.1-18.94-44.11-32.95-67.56-43.21.49-5.92,1.43-11.37,2.88-15.61,15.65,5.13,46.69,18.38,51.99,20.78.02.02.03.02.05.03.01.01.02.01.02.01h.01c.05.07.22.29.5.65.07.1.16.21.25.33,1.34,1.78,4.26,5.84,7.14,11.05.03.04.05.08.07.13,4.95,9.91,5.67,18.74,4.65,25.84Z"/>
  <path class="cls-25" d="M436,224.22c-1.45,4.24-2.39,9.69-2.88,15.61-12.56-5.5-25.24-9.93-37.83-13.46-3.2-5.61-10.8-11.03-20.51-13.96-11.79-3.56-24.82-1.33-30.43,3.88-18.47-2.25-35.94-2.98-51.6-2.87h-.01c-4.85-5.44-16.12-8.45-25.91-5.11-4.79,1.63-8.69,4.08-11.52,6.91h-.01c-5.12.46-9.75.95-13.8,1.42.02-.06.04-.12.07-.19.13-.35.26-.7.4-1.05,1.24-3.2,2.66-6.36,4.29-9.39.22-.4.43-.8.65-1.2.48-.85.98-1.7,1.49-2.53.71-1.15,1.45-2.26,2.21-3.35.45-.62.9-1.24,1.36-1.84.16-.21.33-.41.49-.62.77-.97,1.56-1.9,2.39-2.81.45-.49.9-.97,1.37-1.44,1.7,0,4.13.06,7.16.19.25.01.51.02.77.03,1.14.05,2.36.11,3.65.18.71.04,1.44.08,2.2.12,1.04.06,2.12.12,3.24.19.64.04,1.3.08,1.98.13.73.04,1.48.09,2.24.15,2.68.18,5.53.39,8.54.63.71.06,1.42.12,2.15.17,2.54.22,5.18.45,7.91.7.74.07,1.49.14,2.25.21,6.16.58,12.74,1.27,19.6,2.08.34.04.68.07,1.02.12.2.02.41.05.62.07.58.07,1.16.14,1.74.21,5.47.67,11.1,1.41,16.82,2.23,1.29.18,2.59.37,3.89.57,1.77.25,3.55.53,5.34.81,1.03.16,2.07.32,3.1.49,1.04.17,2.08.33,3.11.51,1.16.19,2.31.38,3.46.58,2.99.5,5.97,1.04,8.95,1.59,1.63.31,3.26.62,4.89.94,2.06.4,4.11.81,6.16,1.24.53.11,1.06.22,1.59.33,1.27.27,2.53.54,3.79.82,4.73,1.03,9.4,2.13,13.97,3.31,1.02.26,2.03.52,3.04.79.89.23,1.77.47,2.65.71,1.57.42,3.12.86,4.65,1.3.64.19,1.27.37,1.9.56,1,.29,2,.59,2.98.9.91.28,1.81.56,2.7.85,2.84.9,5.6,1.84,8.28,2.81.93.34,1.86.68,2.77,1.03.62.23,1.24.47,1.86.72.76.29,1.51.59,2.25.9,2.26.91,4.45,1.86,6.56,2.83Z"/>
  <path class="cls-19" d="M256.22,192.22c-.47.47-.92.95-1.37,1.44-.83.91-1.62,1.84-2.39,2.81-.16.21-.33.41-.49.62-.46.6-.91,1.22-1.36,1.84-.76,1.09-1.5,2.2-2.21,3.35-.51.83-1.01,1.68-1.49,2.53-.22.4-.43.8-.65,1.2-1.63,3.03-3.05,6.19-4.29,9.39-.14.35-.27.7-.4,1.05-.03.07-.05.13-.07.19-9.62,1.12-16.05,2.14-18.33,2.26,1.85-2.81,4.23-8.1,8.67-13.55.04-.05.09-.1.14-.16.51-.57,1.05-1.13,1.6-1.69.27-.28.55-.56.84-.83,1.28-1.24,2.66-2.45,4.15-3.61.33-.27.67-.52,1.01-.78.36-.27.73-.54,1.1-.81.38-.28.77-.55,1.17-.82.37-.26.75-.51,1.14-.75.86-.57,1.76-1.12,2.68-1.65.4-.23.8-.46,1.22-.69.82-.46,1.66-.9,2.53-1.34,3.11,0,4.89.19,6.8,0Z"/>
  <path class="cls-26" d="M454.47,329.4c.65-2.03,11.38-14.51,19.56-14.33,8.18.18,8.93,2.14,9.56,3.22s.96,3.22,0,3.94c-1.04.33-2,.43-3.11-.5-1.47-2.36-4.79-2.19-5.78-2.11-8.99,1.33-14.78,10.1-16.44,12.11s-3.22.56-3.22.56c0,0-1.21-.86-.56-2.89Z"/>
  <path class="cls-3" d="M324.51,336.04c-1.46,1.34-3.11,2.73-4.96,4.22-13.05,9.39-23.83,7.33-33.33,4.5-17-9.67-16.36-17.44-16.34-24,.1-.78.21-1.53.34-2.26,11.04,25.17,32.55,26.68,53.19,17.62.62-.27.98-.28,1.1-.08Z"/>
</svg>