<?xml version="1.0" encoding="UTF-8"?>
<svg id="Layer_2" data-name="Layer 2" xmlns="http://www.w3.org/2000/svg" xmlns:xlink="http://www.w3.org/1999/xlink" viewBox="0 0 2047.87 3749.77">
  <defs>
    <style>
      .cls-1 {
        fill: #a84f16;
      }

      .cls-2 {
        fill: #934615;
      }

      .cls-3 {
        fill: #542a12;
      }

      .cls-4 {
        fill: #e07c24;
      }

      .cls-5 {
        fill: #b85f1c;
      }

      .cls-6 {
        fill: #743715;
        filter: url(#drop-shadow-1);
      }

      .cls-7 {
        fill: #653114;
      }

      .cls-8 {
        fill: #603011;
      }

      .cls-9 {
        fill: #502610;
      }

      .cls-10 {
        fill: #633012;
      }

      .cls-11 {
        fill: #401f10;
      }

      .cls-12 {
        fill: #482212;
      }

      .cls-13 {
        fill: #50220c;
      }

      .cls-14 {
        fill: #f09f3f;
      }

      .cls-15 {
        fill: #984e19;
      }

      .cls-16 {
        fill: #743814;
      }

      .cls-17 {
        fill: #cd6e1e;
      }

      .cls-18 {
        fill: #291611;
      }

      .cls-19 {
        fill: #602f17;
      }

      .cls-20 {
        fill: #773914;
      }

      .cls-21 {
        fill: #572913;
      }

      .cls-22 {
        fill: #6f3515;
      }
    </style>
    <filter id="drop-shadow-1" x="234.79" y="621.79" width="1510" height="1914" filterUnits="userSpaceOnUse">
      <feOffset dx="0" dy="0"/>
      <feGaussianBlur result="blur" stdDeviation="5.4"/>
      <feFlood flood-color="#000" flood-opacity="0"/>
      <feComposite in2="blur" operator="in"/>
      <feComposite in="SourceGraphic"/>
    </filter>
  </defs>
  <g id="Layer_6" data-name="Layer 6">
    <rect class="cls-18" width="2047.87" height="3749.77"/>
    <path class="cls-6" d="M1727.32,1401.36c-37.63-45.89-84.54-83.56-118.43-131.12-3.11-4.38-14.2-26.05-16.64-26.6-9.78-2.18-5.15,50.01-20.5,51.85.22,7.87,4.88,22.11-4.32,21.61,9.54,20.01-2.99,16.88-11.78,4.21-13.87-19.98-34.39-113.08-41.6-142.06-8.77-35.29-13.34-77-23.28-110.67-12.38-41.94-36.89-40.17-58.24-69.25-27.23-37.07-61.92-104.22-87.65-146.78-7.04-1.45-5.85,8.71-7.54,8.63-2.16-.1-27.72-15.09-35.68-12.94-2.64,18.35-49.84,7.68-56.17-19.45-7.81-8.63-15.04-23.22-10.8-34.57-3.44-14.85-7.25-29.92-10.24-44.85-2.11-10.51-2.18-42.76-9.21-49.14-3.2-2.91-69.52-19.86-82.68-25.35-37.66-15.7-60.72-46.92-103.73-33.58-70.69,21.91-73.81,36.69-118.31,86.94-26.83,30.28-68.93,55.49-100.08,81.52-16.14,13.49-59.09,61.32-76.14,64.2-9.32,1.58-20.59.42-31.13,2.36l-21.61,17.29c-34.28,67.5-96.18,106.82-99.39,88.59-7.65-7.44-17.6-9.19-28.08-8.64-40.8,34.71-65.93,61.67-92.53,109.49-18.19,32.69-21.77,75.16-38.11,106.65-15.9,30.66-55.72,58.46-73.34,88.72-10.78,18.5-20.73,53.97-27.22,75.42-2.3,7.64-3.98,24.94-6.84,33.13-1.22,3.51-9.35,5.61-8.28,7.89,3.32.03,17.24,10.76,17.24,11.92-.03,1.06-5.35,3.76-5.92,6.73-.63,3.23,3.71,8.84.57,11.63l-9.73-19.43c3.45,7.82-2.78,13.32-2.39,20.52.93,16.9,13.22,1.11,14.26,1.12,7.88.12-5.63,33.16-8.63,36.69-4,4.69-12.85,5.48-15.15,10.85-2.43,5.67,1.1,11.18.11,13.04-2.02,3.77-10.53,2.11-12.75,6.92-5.61,12.19,8.56,9.79,9.23,10.39,6.05,5.4-1.51,31.89-12.76,33.32,10.58,7.76,15.54,6.93,12.94,22.71-6.73,2.9-10.77-4.71-12.95-5.46-6.9-2.34-1.17,12.18-2.14,17.23-1.25,6.58-3.82,4.53-4.89,16.87-.15,1.7-3.23,3.77-3.2,4.89.03,1.36,11.05,11.53,13.4,14.11,1.97,2.16,2.63,7.49,3.7,8.14,6.08,3.65,26.83.06,1.79,14.43,17.74,4.19,2.71,17.35-3.24,3.24-.21,5.66-9.68,17.3-9.7,18.36-.02,1.45,10.77,6.82,8.75,14.76-.53,2.09-5.28,2.01-6.3,4.96-4.33,12.62,9,16.63,8.31,21.3-3.01,6.14-9.17.14-10.77,1.12-3.49,2.15,5.58,4.4,4.32,9.56-1.46,6-8.23,9.85-10.33,15.82-.71,2.02,1.21,5.23.96,7.79-.22,2.24-3.53,4.13-3.58,4.65-.28,4.05,9.24-.34,10.62,4.59.9,3.17-1.8,30.64-3.73,34.76-2.52,5.35-9.45,7.7-9.34,14.67.14,8.59,14.27,9.53,11.15,23.73-1.9,8.69-21.07,4.95-16.91,27.61.71,3.91,5.28,8.33,5.23,11.32-.04,2.64-3.75,5.5-3.67,8.61.02.92,4.55,1.25,4.57,2.23,0,.76-4.15,13.31-4.73,13.74-4.29,3.3-8.32-6.49-10.52,13.21-2.59,23.29,4.36,76.4,6.52,102.6,3.13,38.16,6.13,93.37,13.04,129.56,2.7,14.07,21.38,26.33,28.92,38.06,24.5,38.15,16.43,116.93,33.16,161.29.81,2.81,2.93,4.08,4.99,5.81,4.76,4.01,41.11,22.84,49.05,26.58,15.76,7.42,36.07,11.64,50.28,18.85,29.22,14.83,81.76,113.63,90.6,145.99,15.13,2.96,31.25,2.16,46.45,2.16h58.34c15.41,0,31.08-1.87,46.45-2.16,50.14-.96,100.52-4.67,150.16-5.24,43.13-.51,90.31,8.72,134.05,7.48,27.39-.79,59.92-8.05,87.42-10.88,55.05-5.65,113.27-12.67,169.61-15.14,59.08-2.59,104.34-8.44,161.28-15.83,6-.78,25.1-3.1,27.78,2.88,7.15-.95,14.33-2.51,21.61-2.16,50.13-14.74,105.32-20.16,150.23-49.64,9.14-6,18.86-18.11,24.79-21.67-.43-.81-2.07-1.69-2.16-2.15-.5-2.57.42-5.99,0-8.64-4.79-29.6-40.88-77.09-42.12-99.13-.82-14.76,5.2-44.58,5.47-61.76,1.02-65.64-13.84-108.51-17.32-166.5-1.19-19.96,2.95-41.6,2.19-62.7-1.21-33.94-16.8-96.25-7.16-125.83,9.93-30.48,30.88-65.56,38.54-97.57,10.44-43.61,11.95-92.58,24.72-138.42-3.35-2.18-2.6-8.42-2.21-11.86,4.91-42.75,57.87-139.65,82.16-178.26,6.23-9.93,21.04-29.91,30.24-36.74l-4.31-1.07c6.58-3.67,5.33-14.15,12.95-14.06Z"/>
    <path class="cls-18" d="M2047.87.23v3749.53H.13V.23h2047.74ZM1833.9,2093.97c48.88-65.62,33.39-79.56,44.26-152.71,4.22-28.41,15.92-56.8,17.68-86.31,4.47-74.96-29.57-135.58-11.38-213.36,9.37-40.07,41.55-110.28,43.38-146.6,1.74-34.58-10.53-71.46-11.85-106.26-.62-16.32,5.65-42.4,3.99-63.77-.8-10.32-12.85-8.3-2.11-24.88-1.25-2.71-28.26,8.17-18.1-13.14l12.11-.89c-.05-13.24-14.93-13.66-23.98-9.95-2.64,6.76,12.06,3.46,7.96,10.94-7.57,13.83-19.79-18.54-19.97-22.04-.17-3.25,11.58-11.95.99-20.88-13.61,17.13-35.69-6.26-53.06-4.98l2.11-8.09,13.94,1.01c-8.17-12.05-6.14-23.4-8-35.97-12.07,12.64-20.94-2.08-33.98-7.05-.72-2.58,18.24-22.69,4.53-26.6-38.88-2.4-3.86-17.06,13.43-.36,1.06-9.68,13.27-12.8-1.09-15.83l-.71-6.98,17.84-13.16c-30.18,3.51-14.36-.95-20.3-7.75-.61-.7-15.38-8.51-15.82-9.54-1.37-3.23,1.9-11.09-2.02-17.58-.65-1.07-27.38-23.25-2.92-15.1,4.86,1.62,7.08,29.77,19.07,18.91,1.83-5.95-26.89-25.85-1.98-23.83l1.99-7.11c-18.77,1.02-7.87-12.18-10.36-17.63-.39-.85-5.07-1.42-6.56-4.43-2.08-4.18-1.6-10.22-4.06-14s-9.66,1.37-10.12-7.01c-.94-16.7,19.01,4.86,22.15,5.03l2.92-2.92c-9.57-24.33-13.38-16.57-31.94-24.08l19.87-5.07c.86-1.17-5.46-26.71-6.89-28.04-2.91-2.72-13.84,5.78-9.15-12.75.78-3.09,5.93,1.8,6.15-4.07.2-5.21-22.06-59.19-25.97-57.01-1.79,24.49-20.05-6.42-20.02-9.02.01-.82,13.27-6.32,9.99-12.97l-21.95-5c2.34-7.7,7.09-4.69,13.94-5.02,3.01-2.51-18.36-28.38-20.03-29.07-5.13-2.14-12.78,2.24-13.95,1.07-.88-.89,3.12-7.23,1.71-10.51-6.27-14.56-21.09-19.86-35.71-23.46.07,12.99,2.89,6.38,9.94,10.99l-13.96,12.17c-2.79,21.41-5.64,45.73-11.33,66.48-9.19,33.47-15.66,61.44-56.7,35.39-21.12-130.39-52.22-257.93-84.23-385.72-18.35-13.52-37.67-48.62-52.7-61.29-4.68-3.95-24.24-8.84-27.03-10.97-2.94-2.24-2.63-9.8-5.87-12.13-4.84-3.47-38.93-28.03-42.1-24.87l1.98,9.97c-20.39.99-5.96-9.06-13.11-19.93-24.03,12.7-15.12,1.55-24.22-1.69-20.04-7.14-18.69,9.81-22.95,13.47-.79.68-4.65-2.13-6.82-.11-2.59,2.42-22.18,31.72-26.86,26.26-3.65-12.06,5.62-9.44,6.89-11.99,9.55-19.26-7.19-11.48,1.26-29.03l-3.15-6.9-9.12,9.06,8.13,19.81c-1.41,6.64-16.34-8.22-25.11-3.14-5.2,3.01-4.76,10.37-7.34,13.79-.75.99-8.56-.15-9.5,3.4-.22.83,10.68,13.08,2.69,15.14-13.22,3.41-11.43-35.94-34.17-33.81-2.15.2-29.86,24.83-29.66,29.66-20.75-1.75-.75-21.68-10.11-25.85-10.44-.62-5.5,10.52-6.8,11.86-2.36,2.42-45.39,14.18-26-9.98-18.82,11.86-16.61-5.95-22.89-10.13-4.95-3.3-11.6-3.5-17.47-6.53-5.45-2.82-7.58-12.87-13.62-8.17l-4.98,12.78c-4.59-19.14-15.27-15.53-31.41-22.06-2.61-1.05-8.79-14.72-11.59,1.06l11.96,1.04c-4.87,30.24-21.16-2.46-36.54,1.88-7.68,8.33-8.49,17.83,2.51,23.1l-8.8,4.96c-5.79-2.47-8.24-21.21-9.16-21.96-1.34-1.09-37.09-2.16-23.01,8.03-25.35-6.14-29.47-33.13,1-22.02-9.94-36.91-17.13-10.3-29.54-6.51-9.5,2.9-9.71-8.42-19.61-1.57l.18,20.03-12-15.9-5.99,9.94-6.05-11.97c-8.51,9.75-27.32,3.47-24.97,17.98-7.32,1.69-5.49-9.6-6-10.01-4.23-3.37-21.58,11.8-25.39,11.59-9.53-.52-14.25-14.86-16.81,17.59,13.09,14.59,25.95-15.82,34.22-5.15,6.7,8.64-23.11,15.16-28.66,18.31-7.17,4.07-14.63,22.24-25.29,12.66,13.85-4.42-6.38-23.91-10.02-21,.44,16.85-15.55,9.96-8.37,28.59-16.06,18.1-16.3-15.09-26.54-10.72-2.58,15.03-12.32,4.08-17.96,5.95-2.16.72-1.16,6.63-2.99,7.31-15.1,5.58-17.28,5.61-34.16.85,9.2-10.27-24.89-27.53-23.98-8,5.69.13,17.55-1.63,19.18,5.88,4.55,20.91-29.47-1.35-36.32-1.74l2.83-12.77c-17.4-14.01-6.99,6.76-7.53,9.34-1.39,6.56-13.43,6.18-10.19-6.69l-14.51,6.46-76.36,221.68-5.12.97-15.88-114.26c-3.92-2.53-48.67,34.14-53.15,41.07-10.95,16.92-56.21,183.21-60.41,209.56-3.5,21.94-1.2,43.23-4.4,63.6-7.44,47.31-32.27,251.48-46.67,279.27-2.54,4.91-6.97,9.33-10.32,13.72l-7.04.89c-46.76-43.19-37.81-111.36-50.17-169.43-.49-2.31-6.06-3.14-7.07-7.47-2.76-11.88,1.22-37.43-9.81-52.12l-15.01,10.01c13.12,15.91-2.09,10.31-6.19,16.77-3.51,5.52-.49,10.62-2.14,14.89-.81,2.1-18.43-.42,4.26,13.51-7.4,8.91-10.28,16.87-9.94,28.78l-8.98-6.22c-20.03,3,4.85,19.01-6.96,26.22-20.94-17.5,12.58,22.21-12.05,18.03,6.62,12.27-2.37,7.11-3.94,14.85,20.96,23.16,4.57,24.22-18.07,29.13l.02,5.97c37.27-13.84,16.69,21.23,12.01,18l-9.05-15.96c-2.86,14.88-12.5,6.44-14.91,8-1.78,1.15-4.61,33.91-13.71,39.46l2.83,6.38,6.65-2.09c-5.62-13.05,9.08-17.21,13.35-5.83,5.12,20.14-19.47,7.47-15.17,26.04,20.76-11.33,8.47,19.23,1.49,22.57-9.57,4.58-24.18-8-13.52,21.43-18.03-12.06-12.3,13.96-29.95,2.02-7.42,32.74-12.67,65.35-14.21,99-2.41,52.96-2.24,264.06,13.44,302.68,5.94,14.63,22.75,34.76,31.73,48.21,9.54-.98,31.56-134.86,32.94-150.99,4.7-54.98-9.51-100.52,20.81-151.17,38.11-63.66,90.77-116.38,134.84-175.12s87.47-145.2,136.44-197.51c25.3-27.02,105.73-68.65,117.62-98.35,8.78-21.93-2.51-46.49,4.69-67.3,3.21-9.28,105.25-109.97,114.12-113.85,25.45-11.1,79.18-2.34,108.17-5.82,57.46-6.9,102.46-71.34,144.72-105.25,9.65-3.68,161.05-6.12,179.59-4.56,66.85,5.64,79.87,64.13,116.85,105.13,27.64,30.64,70.44,50.81,96.09,81.89,35.99,43.63,38.13,108.44,82.12,145.85,74.52,63.37,235.31,167.26,247.23,272.7,2.83,25.03-2.72,45.68,5.01,70.98,9.09,29.75,56.97,67.53,60.72,91.38,3.97,25.29-3.75,60.14,1.35,90.52,5.91,35.16,61.73,152.87,48.49,181.55l-3,1.96c-10.48-75.64-50.56-143.88-57.98-219.01-1.73-17.51,3.1-43.06-.97-59.02-3.16-12.39-34.3-42.16-42.73-55.26-29.14-45.28-15.04-60.26-22.6-107.38-10.33-64.31-127.6-170.99-177.65-214.3-23.69-20.51-67.53-42-85.1-66.88-22.46-31.79-33.25-91.24-58.11-123.86-21.71-28.49-66.69-50.55-92.87-77.11-30.76-31.21-52.22-89.03-93.39-104.59-45.18-17.08-143.45,6.69-195.45-2.38-44.45,31.57-91.87,100.7-150.09,107.88-28.07,3.46-83.05-6.32-106.81,5.17-7.86,3.8-107.13,102.99-109.18,110.8-3.85,14.7,1.63,33.54-1.49,50.51-9.26,50.37-92.11,81.22-123.39,116.58-46.31,52.35-87.43,137.87-130.42,195.54-34.04,45.67-141.78,160.27-151.42,210.54-6.08,31.73-.88,73.23-4.45,105.54-2.97,26.9-11.17,65.89-16.26,93.73-3.83,20.97-20.1,63.65-19.61,80.54.46,15.91,15.09,36.88,19.26,52.85s2.17,36.11,8.48,53.52c11.59,31.98,49.12,61.88,52.39,100.59-2.81,13.27,13.36,196.43,18.11,214.86,4.19,16.29,27.8,30.89,34.85,51.14,13.11,37.67,8.65,92.6,22.02,131.96,6.01,11.96,55.49,31.2,69.01,37.98,10.01,5.02,20.46,6.47,29.4,11.59,22.52,12.9,76.27,104.26,82.58,130.39,1.8,7.44-2.35,18.88,6,26-1.35,12.06,17.42,33.36,5.91,40.92l-109.89,9.08c2.33,13.85,19.08,28.45,3.36,40.36-19.05,14.44-105,22.48-133.42,34.56-15.37,6.53-32.51,30.6-53.91,11.07,10.35,27.41,34.79,52.85,53.47,75.48l38.12,111.06c-1.74,11.94-30.92,23.25-39.07,30-.89.74-5.27,11.63-10.51,16.46-7.49,6.91-26,10.93-29.14,17.01-2.1,4.07,2.26,7.86.26,11.96-.81,1.65-11.24,4.53-14.73,15.37-.96,2.98,3.62,6.96,3.52,7.63-.55,3.64-25.99,2.45-23.92,10.98,38.9-9.76,6.73,29.55-10.02,36-18.6,8.25-39.39,17.27-53.98,31.98,58.57-6.08,117.35-3.84,175.96.03.06,2.69.81,5.26-1.95,7.03-6.78,4.34-136.09,5.1-160.8,9.18-18.78,3.1-51.59,8.11-63.21,23.75,25.09,11.71,72.87,21.73,93.8,37.21,42.33,31.29,65.82,83.33,95.21,108.76,39.89,34.5,109.64,58.18,154.78,89.19,6.27,4.31,13.08,7.93,18.11,13.84.04,1.02-9.46,3.43-5.7,8.77,1.77,2.52,49.38,28.27,54.2,27.84,10.27-.92,26.42-13.98,42.46-15.7,11.8-1.26,110.65,6.01,114.94,11.26,10.68,13.05-26.8,17.46-35.82,13.76-6.1-2.5-5.76-12.27-11.69-13.87-19.22-5.22-18.31,13.49-27.4,14.89-14.03,2.15-50.84-10.12-66.93-7.95,71.54,60.4-33.72,59.04-70,81.01-.7,5.44,38.35,5.17,44.54,27.55,3.15,11.38-24.88,15.54-16.59,20.45,63.98,15.88,130.19,21.63,194.05,37.92,76.68,19.56,150.69,52.34,229.21,66.36l72.17-36.92c13.58-.04,23.59,3.11,37.54-.46,2.49-.64,18.72-15.43,18.98-6.98l-3.98,5.01,12.71-.27,1.3-35.69c9.77,6.72,22.28-3.81,15.97,9.92l5.99,2.06,6.13-18.72-10.1-3.31,1.97-3.02c13.91,3.3,4.7-6.25,11.07-8.94,1.8-.76,30.1,14.74,28.96-10l-14-6.97c28.25-1.71,16.14-10.78,22.36-20.67,2.97-4.72,28.62-9.18,29.63-10.38,1.24-1.47-1.84-25.91,21.94-24.98l-13.14-4.9c-7.61-18.59,43.06-10.39,45.17-12.11-10.08-22.6,2.37-14.49,7.44-20.58,9.58-11.5,4.45-15.73,24.39-18.64l-1.72-7.87-14.08-.91c-.36-14.72,7.58-1.32,13.95-4.88,5.87-28.32,22.12-12.12,44.07-18.06l-1.04-14.99,10.04,3.97c-3.99-19.93.59-34.21,17.39-45.68,1.14-.78,23.26.55,18.55-12.36l-14.82.8c-3.93-7.83-1.7-15.05,7.83-12.79l-5.97-7.95,11.97-6.03c-.59,6.25-.32,14.72,8.1,11.08-.15-22.82,5.29-31.6,23.81-44.31l-21.89-17.74,35.97-7.07c1.46-8.76-9.7.5-10.02-6.99-.56-13.08,20.68-11.42,25.03.97l.05-25.88c10.43,7.66,19.23-3.42,22.39-3.85,5.41-.74,11.03,8.67,16.55.75.95-3.82-19.96-12.21,2.85-12.96l1.1-4.94-15.93-20.02c5.71-7.92,7.75,3.66,13.97,2.95l-7.98-21.95c17.01.47,11.87-24.84,1.31-23.6-.88.1-14.44,12.73-10.85-1.13,2.36-9.14,11.9-.12,15.49-6.3l-43.83-26.24c8.57-12.51,7.82-37.8,12.98-48.65,6.5-13.67,41.14-19.12,49.35-34.64,21.77-6.51,51.67-18.89,70.54-33.45,16.6-12.81,20.34-28.19,46.16-36,3.62-1.1,9.99,3.58,12.95,1.2,3.23-2.6.54-10.19,3.74-14.34,11.17-14.45,36.08-11.61,20.17-38.84,9.21,3.22,31.64-1.64,20.94-13.99-15.65,16.99-11.08-.33-16.34-2.13-4.4-1.51-11.76,2.68-17.05,1.71-14.34-2.63-72.96-9.49-61.67-32.68,12.6-25.87,64.42-16.43,83.08-.89,15.96,13.29,6.72,20.54,20.99,27.97-17.94-26.95,9.85-14.13,12.01-16.01.56-.49-3.6-4.28-.21-9.05,5.73-8.05,22.08-5.95,25.45-20.92,1.27-5.66-8.94-27.11,6.75-25.98l.98,13.97c7.04-9.43,18.53-29.87,20.97-41.22,1.21-5.62-3.49-12.72-1.72-17.42,2.35-6.26,13.64,3.47,11.77-13.32-10.28,7.91-27.97-13.27-33.13-14.12-5.28-.87-7.85,3.71-12.87,3.35-8.54-.62-9.79-6.82-11.53-7.18-18.39-3.81-65.72-4.82-78.35-13.15-17.2-11.34-1.44-40.79,3.91-58.9,12.1-41.02,36.31-101.35,75.96-123.01,20.71-11.31,44.58-10.15,62.9-25.09,7.65-35.81,13.77-71.63,19.12-107.87,5.9-40.01,6.78-112.24,18.55-146.43,6.36-18.48,40.76-47.9,41.6-58.55.62-7.89-7.68-28.41-8.11-40.06-.62-16.75,3.18-34.05,1.9-51.88-7.23-100.32-38.49-196.57-55.94-297.01-10.41-59.94-15.2-99.26-36-157.98-1.25-3.52-2.75-6.65-4-10-11.68-31.17-18.19-52.29-38-79.99-2.21-3.09-4.84-4.47-6-6-32.56-42.76-81.2-77.1-109.99-119.98-5.07-7.56-8.2-18.04-16-24-1.91-3.32-2.63-8.7-7.98-7.99-2.51,1.63-4.99,30.87-6.02,35.98-4.65,5.38-2.8,10.01-12,8-.65-8.37,10.33-59.95,16.01-63.12l6.5,1.04c39.26,74.54,124.84,121.09,161.82,194.71,57.84,115.15,52.52,208.51,81.89,324.06,17.35,68.25,37.25,123.94,39.69,198.28.91,27.62-8.48,56.6.91,83.07,7.73,21.79,14.87.27,21.13-8.13ZM1475.94,442.18c-.08.48,2.57,4.39,1.81,8.7-.51,2.9-7.72,2.13-5.88,8.18.74,2.45,31.74,26.27,38,34.19,19.12,24.21,52.97,178.77,61.81,220.15,11.18,52.28,18.03,149.44,32.75,193.22,7.06,21,32.24,17.45,31.51-5.37-23.65-79.66-21.36-182.01-42.45-259.66-1.84-6.79-28.02-38.35-33.01-48.98-13.4-28.55-14.92-63.08-32.66-89.48.33-6.54,47.06-32.76,43.77-51.46-.91-5.17-38.24-49.99-45.65-37.51l-1.06-9.99c-8.65,8.98-24.57,3.48-25.89,3.99-4.75,1.84-2.38,11.25-3.07,12.02-3.12,3.51-23.63-19.23-37.54-9.6,5,19.18-13.78,15.34-14.39,18.58,4.46,8.39,17.28,17.25,11.95,1.03l4.93.03c7.6,1.19,6.73,11.5,15.06,11.95,2-11.39,31.46-22.57,23.97,2-12.93-14.14-15.78-1.56-23.97-2ZM1323.52,425.7c2.72-1.41,7.19-12.99,1.43-15.51-3.15,9.26-1.84,13.04-12.96,7.99l1.93,7.02c2.83,1.23,6.81,1.94,9.6.5ZM1167.96,426.18c-4.87.81-14.39,18.51-6.94,19.98l6.94-19.98ZM1719.75,2450.01c-10.14-4.88-52.89,12.05-62.81,19.93-22.77,18.08-50.97,80.15-59.57,108.41-7.87,25.88-22.16,57.37,22.22,49.2,3.79-10.62.17-26,3.39-35.59,1.19-3.55,14.2-13.58,16.61-17.39,7.68-12.12,16.84-33.12,24.56-43.43,2.42-3.24,14.67-7.92,15.39-9.65,2.08-4.98-5.46-12.98,2.36-15.57.42,20.61,22.87-1.66.03-10.97,19.75-11.73,25.56-15.95,24.49-36.53,3.73-1.56,27.61-1.53,13.33-8.41Z"/>
    <path class="cls-12" d="M286.09,1915.99c-3.27-38.7-40.8-68.61-52.39-100.59-6.31-17.41-4.39-37.89-8.48-53.52s-18.8-36.94-19.26-52.85c-.49-16.89,15.78-59.57,19.61-80.54,5.09-27.84,13.29-66.83,16.26-93.73,3.57-32.31-1.64-73.8,4.45-105.54,9.64-50.27,117.37-164.87,151.42-210.54,42.98-57.67,84.11-143.19,130.42-195.54,31.28-35.35,114.13-66.21,123.39-116.58,3.12-16.97-2.37-35.81,1.49-50.51,2.05-7.81,101.32-107,109.18-110.8,23.76-11.49,78.74-1.72,106.81-5.17,58.22-7.17,105.64-76.3,150.09-107.88,52,9.07,150.28-14.7,195.45,2.38,41.17,15.56,62.62,73.38,93.39,104.59,26.18,26.56,71.17,48.62,92.87,77.11,24.86,32.63,35.66,92.08,58.11,123.86,17.57,24.88,61.41,46.37,85.1,66.88,50.05,43.32,167.32,150,177.65,214.3,7.57,47.13-6.54,62.1,22.6,107.38,8.43,13.1,39.57,42.87,42.73,55.26,4.07,15.96-.76,41.51.97,59.02,7.42,75.13,47.5,143.37,57.98,219.01l3-1.96c13.23-28.67-42.58-146.39-48.49-181.55-5.11-30.38,2.62-65.22-1.35-90.52-3.75-23.85-51.63-61.64-60.72-91.38-7.73-25.29-2.18-45.95-5.01-70.98-11.92-105.45-172.71-209.34-247.23-272.7-44-37.41-46.13-102.22-82.12-145.85-25.64-31.08-68.45-51.25-96.09-81.89-36.98-40.99-50-99.49-116.85-105.13-18.54-1.56-169.95.88-179.59,4.56-42.26,33.9-87.26,98.35-144.72,105.25-28.99,3.48-82.72-5.29-108.17,5.82-8.88,3.87-110.92,104.57-114.12,113.85-7.2,20.81,4.09,45.37-4.69,67.3-11.89,29.7-92.32,71.32-117.62,98.35-48.98,52.31-92.26,138.63-136.44,197.51s-96.73,111.46-134.84,175.12c-30.32,50.64-16.11,96.18-20.81,151.17-1.38,16.13-23.4,150.01-32.94,150.99-8.99-13.45-25.79-33.58-31.73-48.21-15.68-38.62-15.86-249.72-13.44-302.68,1.53-33.64,6.79-66.26,14.21-99,17.66,11.94,11.93-14.09,29.95-2.02-10.67-29.42,3.95-16.84,13.52-21.43,6.98-3.34,19.27-33.9-1.49-22.57-4.3-18.56,20.29-5.9,15.17-26.04-4.26-11.38-18.97-7.23-13.35,5.83l-6.65,2.09-2.83-6.38c9.1-5.54,11.93-38.3,13.71-39.46,2.41-1.56,12.04,6.88,14.91-8l9.05,15.96c4.68,3.23,25.26-31.83-12.01-18l-.02-5.97c22.64-4.91,39.03-5.97,18.07-29.13,1.57-7.73,10.56-2.58,3.94-14.85,24.63,4.17-8.9-35.54,12.05-18.03,11.8-7.22-13.08-23.22,6.96-26.22l8.98,6.22c-.34-11.91,2.53-19.87,9.94-28.78-22.69-13.92-5.07-11.41-4.26-13.51,1.65-4.27-1.36-9.37,2.14-14.89,4.1-6.46,19.31-.86,6.19-16.77l15.01-10.01c11.03,14.69,7.05,40.24,9.81,52.12,1.01,4.33,6.58,5.16,7.07,7.47,12.36,58.07,3.41,126.24,50.17,169.43l7.04-.89c3.36-4.4,7.78-8.81,10.32-13.72,14.4-27.79,39.23-231.96,46.67-279.27,3.2-20.37.91-41.66,4.4-63.6,4.2-26.35,49.46-192.64,60.41-209.56,4.48-6.93,49.23-43.61,53.15-41.07l15.88,114.26,5.12-.97,76.36-221.68,14.51-6.46c-3.24,12.87,8.8,13.25,10.19,6.69.55-2.58-9.87-23.35,7.53-9.34l-2.83,12.77c6.85.38,40.87,22.64,36.32,1.74-1.63-7.5-13.49-5.75-19.18-5.88-.91-19.53,33.18-2.27,23.98,8,16.89,4.76,19.06,4.73,34.16-.85,1.83-.68.83-6.59,2.99-7.31,5.64-1.88,15.38,9.08,17.96-5.95,10.23-4.37,10.47,28.82,26.54,10.72-7.17-18.63,8.81-11.74,8.37-28.59,3.64-2.91,23.87,16.58,10.02,21,10.66,9.57,18.12-8.59,25.29-12.66,5.55-3.15,35.35-9.67,28.66-18.31-8.27-10.67-21.12,19.74-34.22,5.15,2.56-32.45,7.28-18.11,16.81-17.59,3.81.21,21.17-14.96,25.39-11.59.51.41-1.31,11.7,6,10.01-2.34-14.51,16.46-8.23,24.97-17.98l6.05,11.97,5.99-9.94,12,15.9-.18-20.03c9.9-6.85,10.11,4.47,19.61,1.57,12.4-3.78,19.6-30.4,29.54,6.51-30.47-11.11-26.34,15.88-1,22.02-14.07-10.19,21.68-9.12,23.01-8.03.92.75,3.37,19.49,9.16,21.96l8.8-4.96c-11-5.26-10.2-14.77-2.51-23.1,15.39-4.34,31.68,28.36,36.54-1.88l-11.96-1.04c2.8-15.78,8.99-2.11,11.59-1.06,16.14,6.53,26.82,2.92,31.41,22.06l4.98-12.78c6.04-4.7,8.17,5.35,13.62,8.17,5.87,3.03,12.52,3.23,17.47,6.53,6.28,4.18,4.07,21.99,22.89,10.13-19.39,24.16,23.65,12.4,26,9.98,1.3-1.34-3.63-12.49,6.8-11.86,9.36,4.17-10.64,24.1,10.11,25.85-.2-4.83,27.51-29.46,29.66-29.66,22.73-2.13,20.94,37.21,34.17,33.81,7.99-2.06-2.91-14.31-2.69-15.14.95-3.55,8.76-2.4,9.5-3.4,2.58-3.42,2.14-10.79,7.34-13.79,8.77-5.08,23.7,9.78,25.11,3.14l-8.13-19.81,9.12-9.06,3.15,6.9c-8.45,17.55,8.29,9.77-1.26,29.03-1.27,2.56-10.54-.07-6.89,11.99,4.68,5.45,24.26-23.85,26.86-26.26,2.16-2.02,6.03.79,6.82.11,4.27-3.66,2.91-20.61,22.95-13.47,9.11,3.24.19,14.39,24.22,1.69,7.15,10.88-7.28,20.92,13.11,19.93l-1.98-9.97c3.16-3.16,37.26,21.4,42.1,24.87,3.24,2.33,2.93,9.88,5.87,12.13,2.79,2.13,22.35,7.01,27.03,10.97,15.02,12.67,34.35,47.77,52.7,61.29,32,127.79,63.1,255.32,84.23,385.72,41.04,26.06,47.5-1.91,56.7-35.39,5.7-20.74,8.54-45.07,11.33-66.48l13.96-12.17c-7.05-4.61-9.87,2-9.94-10.99,14.62,3.6,29.43,8.9,35.71,23.46,1.41,3.28-2.6,9.62-1.71,10.51,1.16,1.17,8.82-3.21,13.95-1.07,1.66.69,23.04,26.56,20.03,29.07-6.85.32-11.6-2.68-13.94,5.02l21.95,5c3.27,6.65-9.98,12.15-9.99,12.97-.04,2.6,18.23,33.51,20.02,9.02,3.91-2.18,26.18,51.8,25.97,57.01-.23,5.87-5.37.98-6.15,4.07-4.69,18.54,6.24,10.03,9.15,12.75,1.43,1.33,7.75,26.87,6.89,28.04l-19.87,5.07c18.56,7.51,22.38-.25,31.94,24.08l-2.92,2.92c-3.14-.17-23.08-21.73-22.15-5.03.47,8.38,7.63,3.2,10.12,7.01s1.98,9.82,4.06,14c1.5,3.01,6.18,3.58,6.56,4.43,2.49,5.45-8.41,18.65,10.36,17.63l-1.99,7.11c-24.91-2.02,3.81,17.88,1.98,23.83-11.99,10.85-14.21-17.29-19.07-18.91-24.46-8.15,2.28,14.03,2.92,15.1,3.92,6.49.65,14.35,2.02,17.58.44,1.03,15.21,8.85,15.82,9.54,5.94,6.8-9.88,11.26,20.3,7.75l-17.84,13.16.71,6.98c14.36,3.03,2.16,6.15,1.09,15.83-17.29-16.7-52.31-2.04-13.43.36,13.71,3.9-5.25,24.01-4.53,26.6,13.05,4.98,21.92,19.69,33.98,7.05,1.86,12.57-.17,23.92,8,35.97l-13.94-1.01-2.11,8.09c17.36-1.28,39.45,22.11,53.06,4.98,10.59,8.93-1.16,17.63-.99,20.88.18,3.5,12.39,35.87,19.97,22.04,4.1-7.48-10.6-4.18-7.96-10.94,9.05-3.71,23.94-3.28,23.98,9.95l-12.11.89c-10.15,21.31,16.85,10.43,18.1,13.14-10.74,16.58,1.31,14.56,2.11,24.88,1.66,21.37-4.61,47.46-3.99,63.77,1.31,34.79,13.59,71.68,11.85,106.26-1.83,36.31-34.01,106.52-43.38,146.6-18.19,77.78,15.85,138.4,11.38,213.36-1.76,29.5-13.46,57.9-17.68,86.31-10.88,73.15,4.62,87.09-44.26,152.71,1.15-52.2,1.7-104.76-4.05-156.93-5.4-48.96-23.32-98.7-27.72-144.26-3.74-38.74,2.42-69.2-8.1-109.88-5.36-20.74-22.02-45.9-27.67-64.32-15.8-51.55-26.4-112.84-40.97-165.01-19.08-68.34-53.01-68.74-84.31-119.66-25.81-41.99-29.02-104.15-76.17-129.38-13.83,11.57-14.98,45.03-37.02,30.59-20.11-13.18-5.67-24.11-11.02-38.97-1.06-2.95-17.62-19.75-21.06-26.92-9.01-18.77-10.84-56.22-17.75-70.24-5.43-11-34.1-23.13-43.23-32.76-18.97-20-30.77-64.4-60.8-77.18-6.34-2.7-40.18-10.94-46.07-6.93-15.29-25.7-35.68-57.53-52.21-82.77-2.32-3.55-8.03-2.9-9.51-6.49-4.96-12.08,15.22-60.37,6.69-76.7l-38.93,203.94c-7.18-44.61-21.14-87.8-31.41-131.59-4.07-17.33-6.16-65.69-16.5-75.49-7.86-7.44-70.09-23.38-87.12-30.86-66.4-29.15-55.78-50.41-134.92-12.99-53.19,25.16-47.05,40.43-82.27,75.71-22.15,22.18-61.17,46.18-86.69,67.29-16.87,13.96-44.93,50.26-64.91,55.07-20.98,5.06-34.37-3.64-52.11,17.88-36.72,44.57-34.87,143.51-53.05,196.93l-30.96-147.97c-6.62-1-9.71.82-15,4.01-6.23,3.76-67.04,63.16-73.05,70.94-44.57,57.71-41.49,101.17-69.57,154.4-13.33,25.26-39.31,43.46-55.18,64.8-27.16,36.52-38.48,89.49-55.16,131.79,10.05,11.13,36.76-72.08,39.98-77.98-1.38,5.94-5.19,22.19-5.95,26.98-.38,2.39,5.4,6.45,3.91,11.92-1.12,4.13-7.32.13-9.04,2.91-2.12,3.41-8.72,31-7.92,35.32,1.18,6.43,8.31,6.58,8.63,12.17.18,3.17-5.73,7.17-3.45,13.42,1.82,4.99,7.48.48,7.64,6.04.06,1.97-10.73,29.32-12.89,37.32-.28,1.05-4.57,1.13-5.05,3.22-.4,1.74,2.93,20,2.12,20.65-5.12,4.19-38.05,1.98,1,21.96l7-9.95c-3.06,14.58-2.99,29.83-8,43.99-.02-.4-3.42-.91-4.18-6.9-1.22-9.59,11.11-10.16-8.81-23.05-16.76,13.8-1.75,21.62-1.01,37.94l-16.11,5.03,10.11,10.97-13.91,1.2,2.39,18.41c23.7,6.23,18.59,3.04,29.53-15.6.24,15.26-.7,30.77,0,45.99l-7.97-7.99c7.77,19.15-17.44,25.23-17.97,26.97-.16.52,5.02,5.82,4.09,10.04-1.25,5.66-7.99,2.91-6.13,11.79,1.42,6.76,8.64,6.43,8,15.97-.82,12.25-28.66,26.5-3.05,39.2,1.16-1.92-4.73-25.33,6.03-19.98s-1.4,24.68,8.96,28.99l-21.96.05c5.43,11.02.63,13.31-1.91,23.76l15.45,6.19c.66,6.99-14.93,15.06-15.26,16.12-.69,2.22,4.2,14.27,1.44,18.62-1.02,1.6-40.49,16.35-3.72,14.28-14.45,8.2-.56,26.01-2,27.97-.25.34-4.68-.95-6.18,1.18-1.99,2.82-.88,9.02-1.92,10.73-.56.93-7.39-.51-7.9.09-.81.94.85,7.89.01,10.03-.11.27-3.95-.22-3.99-.02ZM778.02,470.19c-9.23,3.17-25.36,6.82-14.99,19.93l6.03-9.93c9.86,18.67,7.17-.08,8.96-10ZM1275.33,546.83c-98.14-44.93-123.34-52.36-230.22-22.55-7.32,2.04-51.78,13.59-51.06,20.89,2.68,4.17,4.71,2.65,8.41,2.54,46.94-1.37,101.39-42.17,164.52-33.53,5.01.69,70.76,31.46,73.77,34.22,6.97,6.38,2.79,22.48,15.34,18.9,2.76-2.22,1.51-8.81,1.9-9.13,3.05-2.62,69.29,32.03,71.95,35.03,5.12,5.78,20.2,42.21,27.96,54.03,10.01,15.23,24.36,26.79,33.05,42.96,11.34-4.93-51.87-78.94-46.98-92,39,8.02,63.9,42.44,93.96,61.97-22.32-55.86-78.21-66.3-125.29-89.66-11.75-5.83-29.79-20.2-37.32-23.65ZM818.02,522.19c-11.31-2-24.18,1.99-34.69,1.83-6.19-.1-13.52-5.84-16.33-5.77-2.12.05-39.14,9.8-40.91,10.97-3.07,2.02-4.08,9.6-8.97,13.03-5.21,3.66-28.7,11.01-25.07,19.91.41,1,6.94-2.48,5.98,2.97-.41,2.29-23.36,17.97-5.51,18.69,3.64.15,45.94-22.58,47.51-14.67l-9.97,13c5.57,4.95,69.52-24.18,80.95-28.01,34.03-11.41,71.56-18.59,103.01-33.94-6.69-13.67-135.3,29.86-151,39.9l1.09-6.87c17.25-9.34,42.9-13.54,53.92-31.04ZM930,558.18c-13.83-1.83-30.49,14.91-29.97,27.97l29.97-27.97ZM672.04,690.17c-4.99-3.25-23.29,10.81-19.99,13.96l19.99-13.96ZM622.05,726.17c-6.89-1.81-45.98,26.06-41.98,29.96l41.98-29.96ZM476.06,838.14c-4.2-4.15-32.86,27.11-29.97,29.97,7.62,1.87,34.3-25.7,29.97-29.97ZM1767.92,1022.12c4.16,4.61-5.63,27.22,4.95,23.97,6.08-1.87,5.15-24.15-4.95-23.97ZM1698.96,1038.11c-3.05,1.02-2.81,3.8-2.61,6.48.26,3.37,17.07,59.9,19.22,64.85,10.67,24.67,45.13,53.76,59.34,78.6l2.13-6.02c-8.14-27.39-37.83-49.87-48.54-73.5-4.33-9.55-16.4-74.77-29.53-70.41ZM241.66,1203.61c3.88-2.17,30.5-81.97,21.35-83.52-6.48-1.1-39.76,73.96-28.71,83.76,2.22.49,5.38.87,7.36-.24ZM236.07,1156.09l-8.94-12.04c-19.74,2.62-.04,10.3,8.94,12.04ZM184.09,1250.09c-8.31-9.89-13.13,29.11-11.96,31.98,4.11-4.17,14.83-28.57,11.96-31.98ZM178.09,1286.09c-.96-1.04-14.89,4.67-13.97,8.95,6.37,9.32,17.68-4.95,13.97-8.95ZM1891.88,1294.09c-8.34-1.96,0,7.78-2,9.97-.77.84-17.63-11.25-11.87,7.96l12.93-3.89.93-14.04ZM1867.92,1420.05c9.33-40.33-2.89-81.92-35.04-107.92-3.56,2.46-2.5,2.82-2.11,6.01.72,5.88,25.98,40.48,30.25,55.98,3.19,11.55.98,33.26,6.9,45.94Z"/>
    <path class="cls-8" d="M1717.91,2665.92c-10.28,7.91-27.98-13.27-33.14-14.12-5.28-.88-7.85,3.71-12.87,3.35-8.54-.62-9.78-6.82-11.53-7.19-18.39-3.8-65.71-4.82-78.35-13.15-17.2-11.34-1.43-40.79,3.91-58.9-8.36,4.28-19.51,30.36-26.04,32.96l-9.97,13.05c-22.46,43.66-70.1,65.03-107.78,93.17-43.74,32.67-81.4,68.27-133.31,90.81-53.7,27.9-55.29,29.11-151.29,50.11s-71,0-155,3c-1.16.04-2.31.09-3.44.13-41.28,1.74-67.37,7.7-93.02,15.99-24.81,8.02-49.21,18.22-86.54,28.88-77,22-128.76,8.13-128.76,8.13-74.27-7.5-130.95,47.41-199.44,68-12.85,3.86-30.75,1.82-38.23,11.7-2.9-11.09-7.8-21.89-1.05-28.94-15.24-1.9-11.07-7.44-17.98-14.05-2.18-2.09-9.4-.4-10.02-.99-2.98-2.86,5.51-12.73,4-13.98-.82-.68-7.35.66-8-.02-2.86-3.06,12.12-18.23,10-23.98-.84-.99-15.11,14.53-17.98,0-60.84,26.29-124.06,51.43-183.98,77.99-18.61,8.25-39.39,17.27-53.98,31.98,58.57-6.08,117.35-3.84,175.95.03.06,2.69.81,5.26-1.94,7.03-6.79,4.34-136.09,5.1-160.81,9.17-18.78,3.1-51.59,8.11-63.21,23.76,25.09,11.7,72.87,21.73,93.8,37.2,42.33,31.29,65.83,83.34,95.22,108.76,39.89,34.51,109.64,58.19,154.78,89.19,6.27,4.31,13.08,7.93,18.11,13.84.04,1.02-9.46,3.44-5.7,8.78,1.77,2.51,49.38,28.27,54.19,27.83,10.27-.92,26.43-13.98,42.47-15.69,11.8-1.26,110.64,6.01,114.94,11.26,10.67,13.05-26.8,17.47-35.83,13.76-6.09-2.5-5.76-12.26-11.68-13.87-19.22-5.22-18.31,13.49-27.41,14.89-14.03,2.15-50.84-10.12-66.93-7.95,71.54,60.4-33.72,59.04-70,81-.7,5.45,38.35,5.17,44.55,27.56,3.15,11.37-24.89,15.53-16.6,20.45,63.98,15.88,130.19,21.63,194.06,37.92,76.67,19.55,150.68,52.34,229.2,66.36l72.17-36.92c13.58-.04,23.59,3.11,37.54-.46,2.49-.64,18.73-15.43,18.99-6.98l-3.98,5.01,12.7-.27,1.31-35.69c9.76,6.72,22.27-3.81,15.97,9.92l5.99,2.06,6.13-18.72-10.1-3.3,1.97-3.02c13.91,3.29,4.7-6.26,11.07-8.94,1.8-.76,30.1,14.73,28.96-10l-14-6.97c28.25-1.71,16.14-10.78,22.36-20.67,2.97-4.72,28.62-9.18,29.63-10.38,1.25-1.47-1.84-25.9,21.94-24.98l-13.14-4.9c-7.61-18.59,43.06-10.39,45.17-12.11-10.08-22.6,2.38-14.49,7.44-20.58,9.59-11.5,4.46-15.73,24.39-18.64l-1.72-7.87-14.08-.91c-.36-14.72,7.58-1.31,13.95-4.88,5.87-28.32,22.12-12.12,44.07-18.06l-1.04-14.99,10.03,3.97c-3.99-19.93.59-34.21,17.39-45.68,1.14-.78,23.26.55,18.55-12.35l-14.82.8c-3.93-7.83-1.7-15.05,7.83-12.79l-5.97-7.95,11.97-6.03c-.59,6.25-.33,14.72,8.1,11.09-.15-22.83,5.3-31.61,23.81-44.31l-21.89-17.75,35.97-7.07c1.46-8.76-9.7.51-10.02-6.98-.56-13.08,20.68-11.43,25.03.97l.05-25.88c10.43,7.65,19.23-3.42,22.39-3.86,5.41-.74,11.03,8.67,16.54.76.95-3.82-19.95-12.21,2.86-12.96l1.1-4.95-15.93-20.02c5.71-7.92,7.76,3.67,13.97,2.95l-7.97-21.95c17.01.47,11.87-24.83,1.3-23.6-.88.1-14.44,12.73-10.85-1.13,2.36-9.14,11.89-.12,15.49-6.3l-43.83-26.24c8.56-12.51,7.82-37.8,12.98-48.65,6.49-13.68,41.14-19.12,49.35-34.64,21.77-6.51,51.67-18.9,70.53-33.45,16.61-12.81,20.35-28.19,46.16-36.01,3.62-1.09,9.99,3.58,12.95,1.2,3.23-2.6.53-10.19,3.74-14.34,11.16-14.44,36.07-11.6,20.17-38.84,9.21,3.23,31.63-1.64,20.94-13.98-15.65,16.99-11.09-.33-16.34-2.13-4.4-1.51-11.76,2.68-17.05,1.71-14.34-2.64-72.96-9.5-61.67-32.69,12.6-25.87,64.42-16.42,83.09-.89,15.96,13.28,6.72,20.54,20.99,27.97-17.94-26.95,9.86-14.13,12.01-16,.56-.49-3.6-4.29-.21-9.06,5.73-8.05,22.08-5.95,25.45-20.92,1.27-5.66-8.95-27.11,6.74-25.98l.99,13.97c7.04-9.43,18.53-29.87,20.97-41.22,1.2-5.62-3.49-12.72-1.72-17.42,2.35-6.26,13.64,3.47,11.77-13.32ZM633.07,3405.98l-17.01-4.2c.07-11.43,24.45-9.61,24.07-1.01l-7.06,5.21ZM1645.91,2733.88l-58.82,2.21c-7.09-18.04,66.6-12.28,58.82-2.21Z"/>
    <path class="cls-14" d="M1743.91,2319.94l-95.99,2c-6.08,1.15-5.87-9.74-6.07-12.94-7.59-122.22-.46-310.8,32.16-427.91,5.14-18.47,40.14-81.98,37.1-96.13l-5.97-4.83c-12.41,36.93-37.81,71.01-45.26,109.86-10.4-12.89,4.4-34.57,8.01-47.98-9.57-9.37-24.62,39.68-25.48,43.48-3.58,15.73-5.31,106.64-23.51,104.43-3.84-46.19,3.41-164.01,32.16-201.77,21.49-28.23,72.12-33.44,90.84-62.14,17.45,100.44,48.72,196.69,55.94,297.01,1.28,17.83-2.52,35.13-1.9,51.88.43,11.65,8.73,32.17,8.11,40.06-.84,10.65-35.24,40.07-41.6,58.55-11.77,34.18-12.65,106.42-18.55,146.43Z"/>
    <path class="cls-3" d="M666.04,2505.92c-1.75,41.95-35.96,15.11-48.14,22.87-2.63,1.68-.71,7.94-3.08,9.36-6.13,3.66-17.79,4.05-22.38,6.17-.68.31-1.3,8.66-5.61,9.5-2.27.44-5.53-4.53-7.72-3.92-2.33.64-3.32,7.66-5.95,10.12s-9.27,3.96-10.27,5.88c-3.41,6.6,16.21,17.52-9.79,26.01l-4-10.03c-7.46-9.81-2.87,24.52-3.05,26.05,10.7-2.6,64.19-2.64,65.88,11.22,1.25,10.23-22.54,5.5-28.44,7.19-3.56,1.02-5.45,6.01-7.51,6.67-6.69,2.13-31.99,7.18-38.01,11.88-2.51,1.96,3.37,12.56-7.86,16.02,13.77,9.23,7.78,36.4,23.96,39.02l-1.98,5.05c-17.9-3.84-2,11.71-13.97,17.92,31.93,3.4,8.92,22.11,18,38.98,8.79,3.72,15.64-35.81,25.58-14.62,7.57,16.12-15.23,7.71-13.63,20.64-11.54,5.62-95.03,47.6-95.97,53.03,8.7,5.18,47.42,27.32,45.74,37.53-26.74,31.46-69.63,35.82-105.76,51.43-60.84,26.29-124.06,51.43-183.98,77.99,16.76-6.44,48.92-45.76,10.02-36-2.07-8.53,23.37-7.35,23.92-10.98.1-.67-4.48-4.65-3.52-7.63,3.49-10.84,13.92-13.71,14.73-15.37,2-4.1-2.36-7.89-.26-11.96,3.14-6.08,21.65-10.1,29.14-17.01,5.24-4.84,9.61-15.72,10.51-16.46,8.15-6.75,37.33-18.06,39.07-30l-38.12-111.06c-18.68-22.62-43.12-48.07-53.47-75.48,21.4,19.52,38.54-4.54,53.91-11.07,28.42-12.08,114.37-20.12,133.42-34.56,15.72-11.91-1.03-26.51-3.36-40.36l109.89-9.08c11.51-7.57-7.27-28.86-5.91-40.92.25-2.2,3.14-8.68,4.91-10.09,5.9-4.71,97.1-3.65,113.08-3.91ZM387.57,2684.41c-14.73,2.36-40.31,21.62-29.48,38.5,17.73,27.62,76.18,14.2,102.03,6.03,3.56-1.13,18.49-7.27,19.61-10.49.53-15.37-29.42-31.75-43.21-33.97-5.98-.97-42.99-1.02-48.95-.07Z"/>
    <path class="cls-17" d="M1585.93,2575.91c-8.36,4.27-19.51,30.35-26.04,32.96-8.05,3.21-37.88,1.17-49.95,3.04,17.5-18.09-2.16-36.98-20.76-22.08-7.01-12.74-11.01-23.29-29.23-17.91-14.72-18.28-100.15-17.57-115.99,6-2.62-1.77-15.96-12.03-17-11.95-1.64.12-2.3,5.91-4.33,6.1-14.53,1.33-12.3-7.79-2.67-14.11-18.54-6-10.55,6.07-17.96,10.99-18.17-6.17-22.21,7.06-40.69,8.74-8.51-3.73.79-11.62.45-14.48-7.84-13.15-15.54,3.24-19.2,4.29-22.32,6.43-18.78-10.18-26.56,18.42l.04-9.04-14.75,2.94-11.29-16.91,18.59,2.66,5.11-5.11c.86-21.76-25.49,5.71-13.71-22.51l-12-4.01c64.32-22.08,122.26-50.68,189.98-71.99,49.46-15.57,90.23-18.18,137.82-45.15,10.4-5.9,18.27-17.49,24.16-20.84,13.1-7.45,80.51-25.94,85.09-35.95-5.97-11.93-11.88-23.7-17.1-36.04l39.99-2,95.99-2c-5.34,36.24-11.46,72.06-19.12,107.87-18.32,14.94-42.19,13.78-62.9,25.09-39.66,21.66-63.86,81.99-75.96,123.01ZM1383.56,2484.53c-9.79.58-19.86,1.63-29.67,2.33-5.69,6.04,4.5,7.95,9.27,8.86,6.91,1.31,60.73-.99,60.73-6.79-9.6-8.26-28.04-5.12-40.34-4.39Z"/>
    <path class="cls-7" d="M1327.96,982.11c5.88-4.01,39.72,4.23,46.07,6.93,30.03,12.78,41.84,57.18,60.8,77.18,9.13,9.63,37.81,21.76,43.23,32.76,6.91,14.02,8.74,51.47,17.75,70.24,3.44,7.17,20,23.97,21.06,26.92,5.35,14.86-9.09,25.79,11.02,38.97,22.04,14.44,23.18-19.02,37.02-30.59,47.15,25.24,50.36,87.4,76.17,129.38,31.3,50.92,65.23,51.33,84.31,119.66,14.57,52.17,25.17,113.46,40.97,165.01,5.65,18.42,22.3,43.59,27.67,64.32,10.52,40.68,4.36,71.15,8.1,109.88,4.4,45.55,22.32,95.3,27.72,144.26,5.75,52.17,5.19,104.73,4.05,156.93-6.26,8.41-13.4,29.92-21.13,8.13-9.39-26.47,0-55.46-.91-83.07-2.44-74.34-22.35-130.03-39.69-198.28-29.37-115.55-24.05-208.91-81.89-324.06-36.98-73.62-122.56-120.17-161.82-194.71l-6.5-1.04c-5.68,3.16-16.66,54.74-16.01,63.12.28,3.6.6,3.33,2,6,1.27,8.39-.64,10.86-8,14-27.12-66.91-44.8-230.73-83.99-271.97-6.62-6.96-11.73-15.49-22-18-27.77-33.28-44.08-75.15-65.99-111.99Z"/>
    <path class="cls-1" d="M1663.92,1478.05c19.81,27.7,26.31,48.82,38,79.99-71.49,40.79-91.65,113.22-105.49,189.47-2.52,13.91,1.88,31.75-.93,45.06-6.06,28.66-41.76,83.75-46.99,120.99-5.03,35.75-1.29,186.31,5.71,221.13,4.75,23.66,24.02,48.88,30,75.99,7.44,33.69-.39,70.78,6.23,97.76,2.84,11.58,26.53,42.92,19.49,52.53-4.45,6.08-60.4,25.26-72,24.97-5.83-28.72-35.29-66.24-37.83-89.21-3.86-34.81,6.63-84.81,3.9-123.82-5.92-84.58-23.24-170.53-24.06-256.91,12.98-29.15,31.22-65.67,38.55-96.43,4.88-20.46,3.38-40.74,7.44-59.55,17.57-81.19,55.85-197.19,109.13-261.82,6.77-8.21,19.38-15.3,28.85-20.14Z"/>
    <path class="cls-4" d="M1705.91,1568.04c20.8,58.72,25.58,98.04,36,157.98-18.72,28.7-69.35,33.91-90.84,62.14-28.75,37.76-35.99,155.58-32.16,201.77,18.21,2.21,19.94-88.7,23.51-104.43.86-3.8,15.92-52.86,25.48-43.48-3.61,13.41-18.41,35.09-8.01,47.98,7.45-38.86,32.85-72.94,45.26-109.86l5.97,4.83c3.04,14.15-31.96,77.66-37.1,96.13-32.62,117.11-39.75,305.69-32.16,427.91.2,3.2-.02,14.09,6.07,12.94l-39.99,2c-17.31-40.91-9.49-54.27-12-97.99-1.88-32.76-6.71-62.42-30-87.99-9.5-32.79-14.34-169.21-12.18-206.96.71-12.43,4.84-15.26,8.18-25.01,5.25-15.29,10.74-33.51,16-47.99,8.7-23.98,17.54-38.87,26-59.99,6.27-15.67,11.62-30.35,2-45.99,8.87-69.69,32.16-150.65,99.99-183.98Z"/>
    <path class="cls-19" d="M1475.94,442.18c-8.32-.45-7.46-10.76-15.06-11.95l-4.93-.03c5.33,16.22-7.49,7.36-11.95-1.03.61-3.24,19.39.6,14.39-18.58,13.9-9.64,34.41,13.11,37.54,9.6.69-.78-1.68-10.19,3.07-12.02,1.32-.51,17.24,4.99,25.89-3.99l1.06,9.99c7.41-12.48,44.74,32.34,45.65,37.51,3.29,18.7-43.45,44.92-43.77,51.46,17.74,26.39,19.26,60.92,32.66,89.48,4.99,10.63,31.17,42.19,33.01,48.98,21.09,77.64,18.8,180,42.45,259.66.73,22.82-24.45,26.37-31.51,5.37-14.73-43.77-21.58-140.93-32.75-193.22-8.85-41.38-42.69-195.94-61.81-220.15-6.26-7.92-37.25-31.75-38-34.19-1.83-6.04,5.37-5.28,5.88-8.18.76-4.31-1.89-8.22-1.81-8.7,8.19.44,11.05-12.14,23.97,2,7.49-24.57-21.97-13.39-23.97-2Z"/>
    <path class="cls-16" d="M1705.91,1568.04c-67.83,33.32-91.12,114.28-99.99,183.98-1.97,15.47-2.68,30.41-2,45.99-8.45,21.12-17.3,36.01-26,59.99l-16,47.99c-3.34,9.75-7.47,12.57-8.18,25.01-2.15,37.75,2.68,174.17,12.18,206.96,8.45,29.17,27.17,55.72,30,87.99,2.51,43.72-5.31,57.07,12,97.99,5.22,12.34,11.13,24.11,17.1,36.04-4.59,10.01-71.99,28.5-85.09,35.95-2.44-3.06-1.37-6.9-2-10,11.6.29,67.54-18.89,72-24.97,7.04-9.61-16.65-40.95-19.49-52.53-6.62-26.98,1.21-64.07-6.23-97.76-5.98-27.11-25.25-52.32-30-75.99-7-34.82-10.74-185.38-5.71-221.13,5.24-37.24,40.93-92.33,46.99-120.99,2.82-13.31-1.59-31.15.93-45.06,13.84-76.26,34-148.68,105.49-189.47,1.25,3.34,2.75,6.48,4,10Z"/>
    <path class="cls-8" d="M1719.75,2450.01c14.27,6.88-9.6,6.85-13.33,8.41,1.07,20.59-4.74,24.81-24.49,36.53,22.84,9.3.38,31.57-.03,10.97-7.82,2.59-.28,10.59-2.36,15.57-.72,1.73-12.96,6.41-15.39,9.65-7.72,10.31-16.88,31.31-24.56,43.43-2.41,3.81-15.41,13.84-16.61,17.39-3.22,9.59.4,24.97-3.39,35.59-44.38,8.17-30.09-23.32-22.22-49.2,8.6-28.26,36.8-90.32,59.57-108.41,9.92-7.88,52.68-24.81,62.81-19.93Z"/>
    <path class="cls-11" d="M974.01,2495.92c115.51-5.69,246.31-24.1,362.9-36.05,2.84-.29,21.96-2.73,21.06,4.06-40.75,5.39-80.95,12.41-121.98,16-17.28,1.51-36.8-1.63-53.99,0-30.76,2.91-61.3,6.91-91.99,10-45.5,4.58-96.61,16.52-140.98,18.14-90.01,3.3-190.46-3.62-282.96-2.14-15.98.26-107.18-.81-113.08,3.91-1.77,1.41-4.66,7.89-4.91,10.09-8.35-7.12-4.2-18.55-6-26,13.73,5.88,40.08,5.88,56.89,6.1,99.66,1.31,197.88-6.77,297.06-2.1,23.51,1.11,52.29,5.5,73.99-2,1.33-.05,2.67.07,4,0Z"/>
    <path class="cls-12" d="M1663.92,1478.05c-9.47,4.84-22.08,11.93-28.85,20.14-53.28,64.63-91.56,180.64-109.13,261.82l-8,6c3.45-15.24,6.5-30.75,10-45.99,14.29-62.37,33.04-106.83,63.99-161.98,17.59-31.34,33.36-68.11,65.99-85.99,1.16,1.53,3.79,2.91,6,6Z"/>
    <path class="cls-12" d="M1323.52,425.7c-2.78,1.44-6.76.74-9.6-.5l-1.93-7.02c11.12,5.06,9.81,1.27,12.96-7.99,5.76,2.52,1.29,14.1-1.43,15.51Z"/>
    <path class="cls-12" d="M1167.96,426.18l-6.94,19.98c-7.45-1.47,2.07-19.18,6.94-19.98Z"/>
    <path class="cls-12" d="M1517.94,1356.06c-1.18,5.82-.53,11.96-4.04,17.99-3.82.94-4.49-1.19-5.96-3.99s-1.72-2.4-2-6c9.2,2.01,7.35-2.62,12-8Z"/>
    <path class="cls-12" d="M1547.93,1352.07c-9.07,1.65-13.12-19-16-24,7.8,5.96,10.92,16.44,16,24Z"/>
    <path class="cls-18" d="M366.08,1382.06c-3.22,5.9-29.93,89.11-39.98,77.98,16.67-42.3,27.99-95.27,55.16-131.79,15.88-21.34,41.86-39.54,55.18-64.8,28.08-53.23,25-96.69,69.57-154.4,6-7.77,66.81-67.17,73.05-70.94,5.28-3.19,8.38-5.01,15-4.01l30.96,147.97c18.18-53.42,16.33-152.36,53.05-196.93,17.74-21.53,31.13-12.83,52.11-17.88,19.98-4.81,48.04-41.12,64.91-55.07,25.52-21.11,64.55-45.11,86.69-67.29,35.22-35.27,29.08-50.55,82.27-75.71,79.13-37.43,68.51-16.16,134.92,12.99,17.04,7.48,79.26,23.42,87.12,30.86,10.35,9.79,12.44,58.15,16.5,75.49,10.27,43.78,24.23,86.97,31.41,131.59l38.93-203.94c8.53,16.33-11.65,64.62-6.69,76.7,1.47,3.59,7.18,2.94,9.51,6.49,16.54,25.24,36.93,57.07,52.21,82.77,21.91,36.84,38.23,78.71,65.99,111.99,6.83,8.18,9.82,15.66,22,18,39.19,41.24,56.87,205.05,83.99,271.97,1.07,2.64,10.13,13.97,7.99,15.98-18.86-.2-22.68-27.7-27.37-41.6-15.61-46.26-41.32-204.31-62.66-229.31-7.85-9.2-16.84-12.22-25.95-23.04-6.11-7.26-12.48-14.23-18-22-25.13-35.36-50.57-85.34-73.99-123.98-11.21-18.5-18.3-43.32-35.98-55.98-2.43,19.98-4.9,40.1-8.01,59.98-2.85,18.19-1.44,74.14-25.94,68.96-7.74-3.4-20.59-80.46-24.06-94.96-2.8-11.71-7.28-22.66-10-34-4.32-18.01-6.21-36.17-10-53.99-.78-3.66-.95-7.3-2-12-1.61-7.19-4.98-11.21-5.27-18.06-5.62-6.47-62.86-20.55-77.2-26.45-36.85-15.17-54.46-42.11-96.07-31.05-74.38,19.77-71.72,44.93-116.46,89.51-15.79,15.73-41.08,30.58-58.95,46.04-3.75,3.25-8.13,6.79-12,10-33.99,28.17-57.61,61.28-99.99,69.99-7.18,1.47-23.16,1.08-29.14,5.86-3.74,2.99-10.31,22.55-12.86,28.14-22,48.28-21.31,81.02-30.52,130.46-2.1,11.3-10.58,69.5-22.43,67.68-9.79-1.5-30.01-130.06-33.46-148.71-2.88-5.3-5.1-4.98-10.18-3.22-9.12,3.16-54.9,47.53-62.66,57.51-44.18,56.86-43.8,101.66-72.36,155.61-21.3,40.24-66.66,60.19-78.36,110.62Z"/>
    <path class="cls-18" d="M1275.33,546.83c7.53,3.45,25.56,17.82,37.32,23.65,47.08,23.36,102.96,33.8,125.29,89.66-30.06-19.53-54.96-53.95-93.96-61.97-4.89,13.06,58.32,87.07,46.98,92-8.7-16.17-23.04-27.73-33.05-42.96-7.77-11.82-22.84-48.24-27.96-54.03-2.66-3.01-68.9-37.65-71.95-35.03-.38.33.86,6.92-1.9,9.13-12.55,3.58-8.37-12.51-15.34-18.9-3.01-2.75-68.76-33.53-73.77-34.22-63.13-8.63-117.58,32.16-164.52,33.53-3.7.11-5.73,1.62-8.41-2.54-.72-7.3,43.74-18.84,51.06-20.89,106.88-29.81,132.08-22.39,230.22,22.55Z"/>
    <path class="cls-18" d="M818.02,522.19c-11.02,17.5-36.67,21.7-53.92,31.04l-1.09,6.87c15.7-10.04,144.31-53.57,151-39.9-31.45,15.35-68.98,22.53-103.01,33.94-11.43,3.83-75.38,32.96-80.95,28.01l9.97-13c-1.57-7.91-43.88,14.81-47.51,14.67-17.85-.72,5.1-16.4,5.51-18.69.97-5.46-5.57-1.98-5.98-2.97-3.63-8.91,19.87-16.26,25.07-19.91,4.89-3.43,5.89-11.01,8.97-13.03,1.77-1.16,38.8-10.92,40.91-10.97,2.81-.07,10.14,5.67,16.33,5.77,10.51.16,23.39-3.83,34.69-1.83Z"/>
    <path class="cls-18" d="M352.08,1564.04c7.9-37.62,20.98-87.33,48.97-114.01,3.85,1.35-25.91,67.35-28.37,75.61-18.37,61.63-21.07,119.58-18.67,183.45,1.55,41.16,16.43,81.18.04,122.9-8.06,7.81-1.7-36.4-1.82-38.98-1.68-36.43-8.43-73.6-10.14-110.99-.7-15.22.24-30.74,0-45.99-.15-9.26,2.48-17.82,2-28,5.01-14.17,4.94-29.41,8-43.99Z"/>
    <path class="cls-18" d="M1698.96,1038.11c13.13-4.36,25.2,60.86,29.53,70.41,10.71,23.63,40.4,46.11,48.54,73.5l-2.13,6.02c-14.21-24.84-48.67-53.92-59.34-78.6-2.14-4.95-18.96-61.48-19.22-64.85-.2-2.68-.45-5.47,2.61-6.48Z"/>
    <path class="cls-21" d="M344.09,1608.03c.48,10.18-2.15,18.74-2,28-10.94,18.64-5.83,21.83-29.53,15.6l-2.39-18.41,13.91-1.2-10.11-10.97,16.11-5.03c-.74-16.32-15.75-24.14,1.01-37.94,19.92,12.89,7.6,13.46,8.81,23.05.76,5.99,4.16,6.5,4.18,6.9Z"/>
    <path class="cls-18" d="M241.66,1203.61c-1.99,1.11-5.14.74-7.36.24-11.05-9.8,22.23-84.86,28.71-83.76,9.15,1.55-17.47,81.35-21.35,83.52Z"/>
    <path class="cls-18" d="M1867.92,1420.05c-5.92-12.68-3.71-34.39-6.9-45.94-4.27-15.5-29.53-50.1-30.25-55.98-.39-3.19-1.45-3.54,2.11-6.01,32.15,26,44.37,67.59,35.04,107.92Z"/>
    <path class="cls-18" d="M930,558.18l-29.97,27.97c-.52-13.06,16.15-29.8,29.97-27.97Z"/>
    <path class="cls-18" d="M476.06,838.14c4.33,4.28-22.35,31.84-29.97,29.97-2.89-2.86,25.77-34.12,29.97-29.97Z"/>
    <path class="cls-18" d="M622.05,726.17l-41.98,29.96c-4-3.9,35.09-31.76,41.98-29.96Z"/>
    <path class="cls-18" d="M778.02,470.19c-1.79,9.93.9,28.67-8.96,10l-6.03,9.93c-10.37-13.12,5.76-16.76,14.99-19.93Z"/>
    <path class="cls-18" d="M184.09,1250.09c2.87,3.41-7.85,27.82-11.96,31.98-1.17-2.87,3.65-41.87,11.96-31.98Z"/>
    <path class="cls-18" d="M1767.92,1022.12c10.11-.17,11.03,22.11,4.95,23.97-10.59,3.25-.79-19.37-4.95-23.97Z"/>
    <path class="cls-18" d="M1891.88,1294.09l-.93,14.04-12.93,3.89c-5.76-19.2,11.1-7.12,11.87-7.96,2-2.2-6.35-11.93,2-9.97Z"/>
    <path class="cls-18" d="M236.07,1156.09c-8.98-1.73-28.68-9.41-8.94-12.04l8.94,12.04Z"/>
    <path class="cls-18" d="M672.04,690.17l-19.99,13.96c-3.31-3.15,14.99-17.21,19.99-13.96Z"/>
    <path class="cls-18" d="M178.09,1286.09c3.71,4-7.6,18.27-13.97,8.95-.91-4.28,13.01-9.99,13.97-8.95Z"/>
    <path class="cls-5" d="M1509.94,2611.91c17.5-18.09-2.16-36.98-20.76-22.08-7.01-12.74-11.01-23.29-29.23-17.92,15.97,19.85-18.62,17.12-27,17.81-18.88,1.58-57.94,3.72-77.11-.69-15.08-3.47-11-10.52-11.88-11.12-2.62-1.77-15.96-12.03-17-11.95-1.64.12-2.3,5.91-4.33,6.09-14.52,1.34-12.3-7.78-2.67-14.11-18.54-6-10.55,6.07-17.96,10.99-18.17-6.17-22.21,7.06-40.69,8.74-8.51-3.73.78-11.62.45-14.48-7.84-13.15-15.55,3.24-19.2,4.29-22.32,6.43-18.78-10.17-26.56,18.43l.03-9.05-14.75,2.94-11.29-16.91,18.59,2.66,5.11-5.11c.86-21.75-25.49,5.72-13.71-22.51l-12-4.01c-95.66,32.83-199.05,50.64-294.99,87.96-55.07,21.41-108.77,51.88-162.95,76.02-14.25,6.34-28.65,10.94-44,17.99l1.03,10.03,20.96-4c3.3,5.63-29.31,14.78-4.98,27.92l5.99-11.9c13.46,34.61,4.47-7,30.12,9.96,3.88,6.3-5.57,26.57-5.07,27.9.58,1.55,23.62,10.9,19.94,24.08-6.82,7-41.57,47.01-41.89,53.16l2.38,8.37s-9.51,45.27-21.19,50.29c-.84.37-1.69.53-2.55.44,0,0,51.76,13.87,128.76-8.13,37.33-10.66,61.73-20.86,86.54-28.88,25.65-8.29,51.74-14.25,93.02-15.99,1.13-.04,2.28-.09,3.44-.13,84-3,59,18,155-3s97.59-22.21,151.29-50.11c51.91-22.54,89.57-58.14,133.31-90.81,37.68-28.14,85.32-49.51,107.78-93.17l9.97-13.05c-8.04,3.21-37.87,1.17-49.95,3.04ZM756.06,2785.89c-.49-.36-1.55-11.67-2.05-12.02-.74-.52-19.64,3.69-13.97-5.95,4.28-7.27,28.6,7.77,20-14.01,19.78-.79,7.78,40.65-3.98,31.98Z"/>
    <path class="cls-15" d="M754.03,2799.88c-6.82,7-41.57,47.01-41.89,53.16l2.38,8.37s-9.51,45.27-21.19,50.29c-.84.37-1.69.53-2.55.44-74.27-7.5-130.95,47.41-199.44,68-12.85,3.86-30.75,1.82-38.23,11.7-2.9-11.09-7.8-21.89-1.05-28.94-15.24-1.9-11.07-7.44-17.98-14.05-2.18-2.09-9.4-.4-10.02-.99-2.98-2.86,5.51-12.73,4-13.98-.82-.68-7.35.66-8-.02-2.86-3.06,12.12-18.23,10-23.98-.84-.99-15.11,14.53-17.98,0,36.13-15.61,79.02-19.97,105.75-51.43,1.68-10.2-37.04-32.34-45.74-37.52.94-5.43,84.42-47.41,95.97-53.03,38.46-18.72,79.09-34.13,117.98-52l1.03,10.03,20.96-4c3.3,5.63-29.31,14.78-4.98,27.92l5.99-11.9c13.46,34.61,4.47-7,30.12,9.96,3.88,6.3-5.57,26.57-5.07,27.9.58,1.55,23.62,10.9,19.94,24.08Z"/>
    <path class="cls-18" d="M1645.91,2733.88l-58.82,2.21c-7.09-18.04,66.59-12.28,58.82-2.21Z"/>
    <path class="cls-18" d="M616.06,3401.78c.07-11.43,24.45-9.61,24.07-1.01l-7.06,5.2-17.01-4.2Z"/>
    <path class="cls-18" d="M406.08,1925.99c-4,16.55-7.92,34.34-15.03,49.97-5.9-7.66-.23-28.55,1.61-38.4,4.15-22.26,12.1-46.17,16.9-69.09.92-4.39,8.31-76.26,16.51-66.45-1.03,8.7-1.64,17.2-1.99,25.98-.21,5.41-1.51,11.96-2,18-4.22,15.74-6.74,32.03-10,47.99-2.15,10.53-3.48,21.55-6,32Z"/>
    <path class="cls-12" d="M1391.95,1106.1c-9.84-2.21-20.08-11.33-18-22,5.52,7.77,11.88,14.74,18,22Z"/>
    <path class="cls-9" d="M970.01,2495.92c-21.7,7.5-50.48,3.11-73.99,2,24.4-3.48,49.15-1.02,73.99-2Z"/>
    <path class="cls-10" d="M1089.99,2489.92l.93,7.99c-13.41-4.81-19.18,15.05-26.35,13.63-3.11-.61-5.35-9.08-18.47-10.62-20.38-2.39-16.91,10.99-19.27,13.25-4.06,3.86-13.2-1.06-17.29.11-10.57,3.03-9.52,7.98-12.97,9.66-2.81,1.37-11.23-1.51-14.28.25-1.62.94-1.37,8.53-2.6,9.47-2.37,1.82-7.85-2.71-10.81,8.15-25.43-15.32-32.84-3.07-54.44,1.71-9,1.99-33.22-4.08-36.41,12.38l13.99,1.06c-3.37,15.53-14.81,17.62-21.14,3.01l-5.51,1.83c-6.09,4.71-.61,26.88-8.34,22.12,1.63-8.72-2.03-10.45-8.01-15.96-6.6,19.69-7.38,8.84-21.15,13.35l4.11,11.59-4.03,4.09c-9.26-1.95-41.14-2.68-35.94,12.9-15.45-7.21-19.57-.66-14,14-7.49,1.13-9.64-21.11-18.03-17.11-3.08,1.47-6.63,15.75-6.08,17.87.94,3.64,9.89.39,8.15,7.24-3.8-2.16-12.86,5.43-14,4-1.59-2,3.63-11.63-4-10l-1.74,12.86c7.94-1.68,19.53,15.46,15.72,19.13-1.47,1.41-9.44-3.78-14-1.09-3.75,2.22-4.2,15.03-8.42,18.65-1.99,1.7-8.46-.31-9.57.48-.91.65,7.98,16.18,4,21.97-14.24,6.35-28.64,10.95-43.99,18-38.9,17.86-79.52,33.27-117.99,51.99-1.6-12.93,21.2-4.52,13.63-20.64-9.95-21.18-16.79,18.34-25.58,14.62-9.08-16.87,13.93-35.58-18-38.98,11.97-6.2-3.93-21.76,13.97-17.92l1.98-5.05c-16.17-2.62-10.18-29.79-23.96-39.02,11.23-3.46,5.35-14.06,7.86-16.02,6.01-4.7,31.32-9.75,38.01-11.88,2.07-.66,3.95-5.65,7.51-6.67,5.91-1.69,29.69,3.04,28.44-7.19-1.69-13.86-55.18-13.83-65.88-11.22.18-1.53-4.41-35.86,3.05-26.05l4,10.03c26-8.49,6.38-19.41,9.79-26.01.99-1.92,7.76-3.53,10.27-5.88,2.63-2.46,3.62-9.48,5.95-10.12,2.19-.6,5.44,4.37,7.72,3.92,4.31-.84,4.94-9.18,5.61-9.5,4.59-2.13,16.25-2.51,22.38-6.17,2.37-1.42.45-7.68,3.08-9.36,12.18-7.76,46.4,19.08,48.14-22.87,92.51-1.48,192.96,5.44,282.96,2.14,44.37-1.63,95.48-13.56,140.98-18.14Z"/>
    <path class="cls-18" d="M387.57,2684.41c5.95-.95,42.97-.9,48.95.07,13.79,2.23,43.73,18.6,43.21,33.97-1.12,3.22-16.05,9.36-19.61,10.49-25.84,8.17-84.29,21.59-102.03-6.03-10.83-16.87,14.75-36.14,29.48-38.5Z"/>
    <path class="cls-20" d="M1377.96,2461.93c-67.71,21.31-125.65,49.91-189.98,71.99-95.66,32.84-199.05,50.64-294.99,87.96-55.06,21.42-108.77,51.88-162.95,76.02,3.98-5.8-4.91-21.32-4-21.97,1.11-.8,7.58,1.22,9.57-.48,4.23-3.61,4.67-16.43,8.42-18.65,4.56-2.69,12.53,2.5,14,1.09,3.81-3.66-7.78-20.81-15.72-19.13l1.74-12.86c7.63-1.64,2.41,7.99,4,10,1.13,1.43,10.2-6.17,14-4,1.74-6.85-7.21-3.6-8.15-7.24-.55-2.13,3-16.4,6.08-17.87,8.39-4,10.54,18.24,18.03,17.11-5.57-14.66-1.45-21.21,14-14-5.2-15.58,26.68-14.85,35.94-12.9l4.03-4.09-4.11-11.59c13.77-4.51,14.55,6.34,21.15-13.35,5.98,5.51,9.64,7.24,8.01,15.96,7.73,4.76,2.24-17.41,8.34-22.12l5.51-1.83c6.33,14.61,17.77,12.52,21.14-3.01l-13.99-1.06c3.19-16.45,27.41-10.38,36.41-12.38,21.6-4.78,29.01-17.03,54.44-1.71,2.96-10.86,8.43-6.33,10.81-8.15,1.23-.94.97-8.53,2.6-9.47,3.04-1.76,11.47,1.12,14.28-.25,3.45-1.68,2.4-6.64,12.97-9.66,4.09-1.17,13.23,3.75,17.29-.11,2.37-2.26-1.1-15.64,19.27-13.25,13.11,1.54,15.36,10.01,18.47,10.62,7.18,1.42,12.94-18.44,26.35-13.63l-.93-7.99c30.69-3.09,61.23-7.08,91.99-10h53.99c41.04-3.59,81.23-10.61,121.98-16,6.62-.88,13.26-2.3,20-2Z"/>
    <path class="cls-13" d="M1459.95,2571.91c15.98,19.85-18.62,17.11-27,17.81-18.87,1.57-57.94,3.72-77.11-.69-15.08-3.47-10.99-10.52-11.88-11.12,15.84-23.57,101.27-24.28,115.99-6ZM1409.55,2568.53c-5.9.04-50.4,3.41-49.55,10.38,10.32,2.67,87.07,6.39,85.93-3.97-9.47-7.75-24.54-6.5-36.39-6.41Z"/>
    <path class="cls-5" d="M1383.56,2484.53c12.3-.73,30.74-3.87,40.34,4.39,0,5.8-53.82,8.1-60.73,6.79-4.78-.9-14.97-2.82-9.27-8.86,9.81-.69,19.88-1.74,29.67-2.33Z"/>
    <path class="cls-12" d="M1415.95,1112.1c-12.18-2.34-15.17-9.82-22-18,10.26,2.51,15.38,11.03,22,18Z"/>
    <path class="cls-22" d="M1479.94,1915.99c-.07-7.94-3.57-10.73,0-22,7.4-23.36,26.44-52.28,32.55-80.44,3.69-16.98,1.9-31.86,5.44-47.55l8-6c-4.07,18.8-2.57,39.08-7.44,59.55-7.33,30.77-25.57,67.29-38.55,96.43Z"/>
    <path class="cls-1" d="M1595.93,2225.96c-2.83-32.27-21.54-58.82-30-87.99,23.29,25.57,28.12,55.23,30,87.99Z"/>
    <path class="cls-1" d="M1603.93,1798.01c-.68-15.58.03-30.52,2-45.99,9.62,15.64,4.27,30.32-2,45.99Z"/>
    <path class="cls-1" d="M1561.93,1906l16-47.99c-5.25,14.49-10.75,32.7-16,47.99Z"/>
    <path class="cls-9" d="M1235.97,2479.92h-53.99c17.19-1.63,36.72,1.51,53.99,0Z"/>
    <path class="cls-15" d="M756.06,2785.89c-.49-.36-1.54-11.67-2.04-12.02-.74-.52-19.65,3.69-13.97-5.95,4.28-7.26,28.59,7.77,20-14.01,19.78-.79,7.78,40.65-3.98,31.98Z"/>
    <path class="cls-2" d="M1409.55,2568.53c11.85-.09,26.92-1.34,36.39,6.41,1.14,10.36-75.61,6.64-85.93,3.97-.86-6.97,43.64-10.34,49.55-10.38Z"/>
    <path class="cls-8" d="M690.78,2912.14l2.55-.44c-.84.37-1.69.53-2.55.44Z"/>
    <path class="cls-8" d="M1559.89,2608.87c-3.76,8.97-9.97,13.05-9.97,13.05l9.97-13.05Z"/>
  </g>
</svg>