<?xml version="1.0" encoding="UTF-8"?>
<svg id="Layer_1" data-name="Layer 1" xmlns="http://www.w3.org/2000/svg" viewBox="0 0 520 735.5">
  <defs>
    <style>
      .cls-1 {
        fill: #f9b659;
      }

      .cls-2 {
        fill: #f9a323;
      }

      .cls-3 {
        fill: #d54d21;
      }

      .cls-4 {
        fill: #df6417;
      }

      .cls-5 {
        fill: #e08318;
      }

      .cls-6 {
        fill: #cf9337;
      }

      .cls-7 {
        fill: #ed9120;
      }

      .cls-8 {
        fill: #278f80;
      }

      .cls-9 {
        fill: #be3f1a;
      }

      .cls-10 {
        fill: #e06619;
      }

      .cls-11 {
        fill: #fddcb5;
      }

      .cls-12 {
        fill: #278e7f;
      }

      .cls-13 {
        fill: #feb263;
      }

      .cls-14 {
        fill: #268d7c;
      }

      .cls-15 {
        fill: #56506b;
      }

      .cls-16 {
        fill: #6b6482;
      }

      .cls-17 {
        fill: #feb264;
      }

      .cls-18 {
        fill: #207869;
      }

      .cls-19 {
        fill: #df6d2e;
      }

      .cls-20 {
        fill: #e89844;
      }

      .cls-21 {
        fill: #cd9136;
      }

      .cls-22 {
        fill: #894c22;
      }

      .cls-23 {
        fill: #f9a223;
      }

      .cls-24 {
        fill: #ef8f42;
      }

      .cls-25 {
        fill: #80390c;
      }

      .cls-26 {
        fill: #de811a;
      }

      .cls-27 {
        fill: #e28518;
      }

      .cls-28 {
        fill: #e0811a;
      }

      .cls-29 {
        fill: #2a0e06;
      }

      .cls-30 {
        fill: #59506a;
      }

      .cls-31 {
        fill: #74411d;
      }

      .cls-32 {
        fill: #823b13;
      }

      .cls-33 {
        fill: #3e773f;
      }

      .cls-34 {
        fill: #582f13;
      }

      .cls-35 {
        fill: #58506b;
      }

      .cls-36 {
        fill: #427739;
      }

      .cls-37 {
        fill: #e1841b;
      }

      .cls-38 {
        fill: #1f7a6b;
      }

      .cls-39 {
        fill: #753b13;
      }

      .cls-40 {
        fill: #f39548;
      }

      .cls-41 {
        fill: #f69c4d;
      }

      .cls-42 {
        fill: #d54e24;
      }

      .cls-43 {
        fill: #e06718;
      }

      .cls-44 {
        fill: #538f45;
      }

      .cls-45 {
        fill: #2f5d3d;
      }

      .cls-46 {
        fill: #803809;
      }

      .cls-47 {
        fill: #a44b10;
      }

      .cls-48 {
        fill: #e06418;
      }

      .cls-49 {
        fill: #3e7941;
      }

      .cls-50 {
        fill: #5a341a;
      }

      .cls-51 {
        fill: #c2411c;
      }

      .cls-52 {
        fill: #3e7439;
      }

      .cls-53 {
        fill: #802206;
      }

      .cls-54 {
        fill: #efb85b;
      }

      .cls-55 {
        fill: #843a0e;
      }

      .cls-56 {
        fill: #fca55c;
      }

      .cls-57 {
        fill: #e2ab4a;
      }

      .cls-58 {
        fill: #e7722f;
      }

      .cls-59 {
        fill: #753c15;
      }

      .cls-60 {
        fill: #ee803c;
      }

      .cls-61 {
        fill: #ec8a3e;
      }

      .cls-62 {
        fill: #238272;
      }

      .cls-63 {
        fill: #8c431a;
      }

      .cls-64 {
        fill: #df6a2b;
      }

      .cls-65 {
        fill: #f6904a;
      }

      .cls-66 {
        fill: #f3974a;
      }

      .cls-67 {
        fill: #59341b;
      }

      .cls-68 {
        fill: #d54d23;
      }

      .cls-69 {
        fill: #bb3c18;
      }

      .cls-70 {
        fill: #fecd76;
      }

      .cls-71 {
        fill: #d14920;
      }

      .cls-72 {
        fill: #874c22;
      }

      .cls-73 {
        fill: #e9833a;
      }

      .cls-74 {
        fill: #dd6a2b;
      }

      .cls-75 {
        fill: #f29118;
      }

      .cls-76 {
        fill: #58506c;
      }

      .cls-77 {
        fill: #2f643d;
      }

      .cls-78 {
        fill: #faa322;
      }

      .cls-79 {
        fill: #8a4218;
      }

      .cls-80 {
        fill: #e88719;
      }

      .cls-81 {
        fill: #7b431d;
      }
    </style>
  </defs>
  <path class="cls-65" d="M323.51,236c-1.23,6.2-4.63,14.32-7.7,19.86-4.65,8.44-11.83,17.16-18.12,24.24-5.96,5.56-14.44,8.75-23.01,10.86-10.6,2.62-22.36,3.39-33.02,1.04-11.37-2.51-24.92-7.07-32.79-12.12-.23-.15-1.64.38-1.88-.47-.79-.1-7.04-5.47-8.02-6.36-5.74-5.24-10.44-11.6-14.59-18.15-1.5-2.04-6.72-15.65-7.44-19.45l.07-.29c.14-.21-.04-.7-.07-.67-.09.08-.09.34-.03.75-.06.02-.14.03-.25,0-.07-.02-.15-.06-.25-.12,0,0-.02,0-.04-.01,0,0-.01.02-.03.03-1.65,1.86-3.4,3.41-5.15,5.16-3.84,3.45-10.3,2.65-15.12.45-.17-.08-.33-.15-.49-.23-.21-.1-.41-.2-.61-.31-.22-.12-.42-.23-.63-.35-.54-.3-1.06-.62-1.52-.96-3.43-1.95-7.39-5.89-9.89-8.96-5.17-8.03-7.41-18.97-3.3-27.8.07-.01.18-.15.34-.38.01-.01.02-.04.04-.05.22-.33.5-.83.8-1.38.02-.04.04-.07.06-.1.62-1.11,1.28-2.37,1.6-2.8,2.61-4.76,8.29-7.52,13.8-7.47,2.22.03,4.42.51,6.39,1.52.67.41,1.3.91,1.86,1.48,2.34,2.33,7.44,7.6,9.52,11.09.88,1.68,1.93,2.38,3.01,1.94l.3-1.31c.16-.67.1-.88.44-1.9.14-1.06.09-2.57.08-3.16-.12-1.5-.24-2.38-.24-3.39.04-.72,0-1.01.1-1.85.54-3.22.49-5.36.24-6.4-.39-5.96.54-8.36.35-14.92v-.1c0-.08,0-.16,0-.23-.05-1.21-.18-2.42-.46-3.59-.13-.55-.19-1.1-.26-2.05-.02-.22-.28-5.2-.3-5.42-.43-4.26-.44-4.93-1.25-9.47l-.94-3.77c-.06-.09-.11-.15-.17-.18.32-.28.64-.54.96-.8.7-.56.96-.91.96-.91,4.11-4.26,7.29-11.41,7.07-17.43,6.03-2.32,10.55-6.92,14.42-12.34l1.27-2.32c1.69-3.4,2.93-6.84,3.6-10.62.01-.06.09-.08.12-.03,1.03,1.38,2.02,2.84,2.97,4.37.18.37.35.68.48.89,1.59,2.45,4.26,5.29,6.6,7.07.13.07.25.14.38.21h0c1.54,1.56,3.39,2.79,5.43,3.6,2.54,1.01,3.97,1.42,5.22,1.68.02,0,.05,0,.07.01.74.17,1.46.29,2.19.38.46.08.98.17,1.56.29,2.16.44,4.34.67,6.55.68.22.04.51.05.83.05,2.38,0,6.97-.88,7.47-1.06,3.08-1.1,3.69-4.45,1.11-5.33-9.18-3.95-10.7-7.08-9.73-13.27.3-1.97.91-3.91,1.7-5.77h.06c3.38,6.03,8.17,9.5,14.01,12.61.77.41,1.52.85,2.22,1.37.57.43,1.26.8,1.87,1.07,1.24.56,2.22,1.55,2.71,2.8.64,1.6,1.08,3.25,1.02,5.02-.42,2.26-.48,4.34-.17,6.25,0,.04.01.09.03.13.04.51.09,1.02.2,1.52l.35-.22c.5.72,1.25,1.22,2.15,1.33,1.25.14,2.14-.52,3.85-1.79,1.8-1.8,1.95-2.01,3.29-3.77,5.26-8.07,5.08-18.79.2-27.01-.04-.07.04-.14.12-.09,6.13,4.4,7.31,5.61,10.47,12.58l.82,2.06c.37,1.4.75,2.72,1.37,3.73.06.05.12.1.18.15l.04.11c2.38,3.9,6.77,1.09,8.94-1.65.52-.65,2.25-3.44,2.33-3.66.84-2.37,1.04-4.16,1.17-6.62.12-2.06.05-5.49.22-6.84.02-.22.32-.25.4-.05.12.29.28.64.47,1.02,1.51,3.06,3.56,5.82,6,8.2,3.52,3.44,7.32,6.56,11.47,9.26,0,0,1.9,1.34,2.85,1.71l.13.05c.39.17,1.06.41,1.46.56.16.06.3.13.45.19.12.41.28.85.46,1.31.1.22.16.25.25.49h0c0,.1.04.36.03.36l.08.39c.34,1.8.63,3.62.86,5.46.03.18.05.37.08.56.18,1.47.33,2.95.46,4.45.01.15.02.31.04.48.02.3.04.61.07.91,1.3,17.4-.85,35.65-.44,49.71-.04-.01-.07-.04-.09-.07,0,.01,0,.03-.01.04-.59,2.03-.69,5.25.01,7.71,1.81,16.29,8.26,29.47,4.87,46.58Z"/>
  <g id="left_hand" data-name="left hand">
    <path class="cls-13" d="M385.53,517.86c-.11,0-1.44.9-2.1.52l-12.5-.99c-.41-.9-.03-1.13,1.14-.69-1.49-.3-2.16.16-1.99,1.36,1.01,8.26,1.59,17.13-1.98,24.77.55.71.31.96-.47.47-.54.57-.94,1.36-1.21,2.38-.67.52-10.11-2.05-11.05-2.92-.35-.32-.41-.87-.45-1.34l-.84-.6c.51-9.12-.74-16.65-6.05-24.33-.44-1.17-2.44-13.01-2.23-13.67.18-.55.34-.82.94-1.02,8.16-1.61,15.6-4.62,22.32-9.03.39-1.41,1.01-2,1.87-1.77,3.71,5.91,10.91,15.73,13.37,21.73.81,1.97.51,3.34,1.23,5.13Z"/>
    <path class="cls-56" d="M354.91,541.42c2.32,1.42,5.14,2.32,7.83,2.77.49.08,3.82.68,3.95.53.1-.12-.18-1,.08-1.33.22-.28.77-.02.86-.09-1.79,3.47.87,5.04,3.77,6.13-4.07,6.06-11.51,5.87-17.9,4.24-.51-2.95-1.38-5.97-1.88-8.95-.81.42-.96-.28-.47-.94h1.17c.53-.26,2.5-2.06,2.59-2.36Z"/>
    <path class="cls-40" d="M368.57,486.76c.71,1.44,1.5,2.89,2.36,4.24-.64.74-.43,1.55-1.16,2.38-1.7,1.94-9.69,5.52-12.38,6.46-1.82.64-10.67,2.44-10.93,3.24-.08.24.44,4.31.56,5,.33,1.96,1.06,5.5,1.61,7.34,1.31,4.29,4.92,7.27,5.68,12.23.33,2.19,1.08,12.23.59,13.78,1.16,1.43-2.84,4.6-3.77,2.36-2.95-15.95-5.3-31.97-7.07-48.06-1.34-.2-1.26-.97,0-1.41,2.26-.17,4.91-.55,7.07-1.17,1.55-.44,2.57-1.19,3.76-1.65,3.81-1.34,7.58-2.59,11.31-3.77.75-.35,1.97-.74,2.36-.94Z"/>
  </g>
  <g id="right_hand" data-name="right hand">
    <path class="cls-17" d="M104.78,489.58c10.46-.71,19.93.03,29.66,4.58.65-.84,1.1-.9,1.43.13,1.33.49,1.37,1.9,0,2.36.19,1.37.22,2.89.1,4.57l5.09,2.97c1.23-.76,2.26.02,1.88,1.41,1.38,1.12,2.74,2.3,3.77,3.77,1.22-.41,1.3,0,.47.94,3.19,5.65,5.13,11.99,5.79,19.01l2.64,8.12c.33,1.81.78,4.71-.9,5.86.47,2.04-2.84,3.02-4.56,3.23s-6.68-.57-7.22-2.29c-.71.69-1.17-.99-.66-1.1.09-.02.12,1.06-.28,1.57h.67c1.63,3.71,4.89,6,9.79,6.88l.38,1.13c2.06,1.73-.55,5.74-2.18,7.37-3.4,3.39-11.59,4.42-15.72,2.06-1.41.9-6.59-2.56-5.65-4.24-1.14-.29-1.45-.13-.94.47.93.98.32,1.84-.94,1.41-2.6.19-4.87-.1-7.32-.92-2.73-.92-4.85-3.25-6.84-4-1.54-.58-3.78-.53-5.53-1.06-5.94-1.8-10.13-7.34-12.34-12.86-.51-.15-4.55-15.4,1.57-29.3,2.17-4.93,5.64-13.18,6.91-18.3-1.02-1.39-.59-3,.94-3.77Z"/>
    <path class="cls-73" d="M142,544.71c-1.81-5.2-2.65-11-2.82-16.49l4.56,14.5,1.09.58c.08.94-1.51.3-2.12.46-.57,0,.24.45.23.47-.06.14.08.38-.24.47h-.7Z"/>
    <path class="cls-24" d="M106.19,537.18c.29.26,2.33,6.1,2.9,7.23s4.49,7.38,4.17,7.84c-2.51-.35-4.76-4.49-5.73-6.75-1.12-2.6-1.58-5.37-2.28-8.09-.05-.42.9-.28.94-.24Z"/>
    <path class="cls-61" d="M129.28,557.91c-.24.18-.81.3-.94.47-1.3-.05-1.99-1.4-2.56-2.39-3.15-5.39-4.91-12.69-5.91-18.82l4.15,10.21c1.98,3.04,3.44,7.58,5.26,10.52Z"/>
    <path class="cls-66" d="M134.93,484.87c.38.12,1.66.69,2.36.94,1.35.01-.14,7.63-.38,7.99-.21.32-.65.42-1.04.5l-.47-.23c-.01.49.35,1.46-.69,1.16-4.84-1.37-9.89-4.11-15.15-4.64-4.43-.44-9.37-.05-13.83.22-.98.06-.26-.71-.95-1.22.58-2.79.97-5.67,1.41-8.48l.47-.47c9.52-.51,19.23,1.34,28.26,4.24Z"/>
  </g>
  <g id="clothes">
    <path class="cls-48" d="M169.79,605.03l-2.65-.95c2.35-3.47,16.78-21.19,16.78-21.19l14.51,27.56c-5.3-.92-6.11-.87-11.09-1.52-.75-.1-13.93-2.98-17.54-3.89Z"/>
    <path class="cls-43" d="M139.17,593.25l18.84-15.08,7.07,23.8-1.89,1.17c-.75-.19-1.62-.78-2.36-.94-7.31-1.56-14.05-4.44-20.61-7.92-.6-.32-.91-.95-1.06-1.04Z"/>
    <path class="cls-28" d="M340.31,420.32l6.08,20.04-.9,1.16c-2.45,1.79-5.92,2.8-8.95,3.3-1.17-7.44-3.04-15.08-4.24-22.62.13-.41.29-.41.47,0,2.63-.14,5.08-1.06,7.54-1.88Z"/>
    <path class="cls-68" d="M133.99,566.39c6.75,2.38,13.62,4.43,20.41,6.69.62.21,1.08.79,1.25.85,4.49,1.08,9.12,2.27,13.66,3.3,5.7.72,9.38,1.59,15.66,2.69,1.72.26,2.32.44,4.57.77,4.15.58,4.97.51,7.29,1.22,3.27.3,6.31,1.01,9.23,1.93-.05.29.05.64,0,.94-1.54,8.49-3.11,17.06-5.18,25.44-1.07.41-2.24.41-3.3,0-.83-.98-1.24-1.69-1.24-1.69l-12.93-24.46c-4.83,5.79-15.58,18.54-16.28,20.02-1.66-.33-2.19-.5-3.5-.83-.22-.59-6.15-23.45-6.15-23.45l-17.29,13.83s-3.26-1.17-4.32-1.8c-.78-8.25-1.32-13.35-1.88-18.38-.02-.2-.07-.42-.12-.67-.22-.93-.62-2.14-.58-3.1-3.63,1.96-6.81,4.89-11.07,5.18,1.59-4.07,3.11-8.18,4.71-12.25,2.19.12,6.01,1.89,7.07,3.77h0Z"/>
    <path class="cls-68" d="M133.87,572.79c.06.25.1.47.12.67-.07-.22-.1-.44-.12-.67Z"/>
    <path class="cls-62" d="M218.3,475.45c-.04.12-.08.2-.12.25-.32.38-.41.91-.43,1.4-1.21,25.15-4,50.5-7.43,75.46-.01.11-.04.21-.08.32-.57,1.61-.53,3.19-.78,4.1-.78,2.89-2.48,2.2-4.45,1.27-.13-.06-.26-.14-.37-.24l-.94-.81c-.08-.07-.16-.13-.25-.18-1.09-.62-1.76-1.19-2.1-1.98-.14-.31-.16-.66-.08-.99l.08-.39c1.49-5.97,5.21-36.34,6.59-44.29.25-1.64.67-3.36.92-5.02.02-.11.02-.21.02-.32-.13-3.07.08-6.69,1.29-9.43.09-.2.14-.42.14-.64.05-5.19.51-10.4,1.4-15.63,0-.03.01-.07.01-.11.3-3.25.53-3.87.86-5.27.05-.22.06-.45.02-.67-.5-2.76-2.19-4.23-4.95-4.83l-.18-.49c-4.11-1.16-23.67-4.54-27.32-4.24l-.31-.38c-1.66,0-3.25-.31-4.87-.56-1.19.32.8.91,0,0l-.47-.38c.15-1.04.57-2.49.74-2.99.04-.11.06-.21.08-.33,3.91-31.67,12.46-63.01,10.48-95.02-.17-2.77-.73-6.04-1.33-9-.24-1.2.85-2.26,2.03-1.95,8.41,2.17,17.52,5.34,26.34,5.47.3-.3,3.25,20.01,4.05,28.57,2.8,29.69,1.64,59.55,1.41,89.3Z"/>
    <path class="cls-37" d="M164.43,452.08c-1.15,2.52-5.09,4.26-7.69,4.84-1.42.32-4.85.4-4.85-1.26.06-.29.67-4.55,1.55-7.22.57-2.13,1.04-4.18,1.41-6.13,2.04,1.76,6.51,5.59,7.31,8,.32.94,1.49,1.14,2.26,1.77Z"/>
    <path class="cls-15" d="M111.38,422.67c13.02,1.37,25.28,7.47,36.27,13.67.67.44,1.24.96,1.88,1.41,1.28,1.24,3.05,2.76,5.32,4.56-.05,1.97-.4,3.9-1.08,5.81-.58,2.57-1.21,5.09-1.88,7.54-6.88-5.71-9.13-10.77-18.38-14.84-8.94-3.93-21.67-7.93-31.15-4.48.96-4.87,2.56-9.7,4.25-14.4.26-.44,4.12.17,4.77.73Z"/>
    <path class="cls-30" d="M137.28,485.81c1.73.64,5.09,2.07,6.6,3.53.43.41,1.21.97,1.33,1.51.15.65-.71,1.68.08,2.03,1.17,1.75-2.81,4.11-4.24,2.83-1.53.55-5,1.35-5.18.94.05-.78-.04-1.57,0-2.36l1.41-8.48Z"/>
    <path class="cls-5" d="M231.03,352.94c.17,1.74.18,3.22,0,5.18v.94c-4.91.26-17.75,1.02-17.93.62-3.08-2.01-1.17-2.72-.91-3.91-.53-2.35-1.57-4.65-1.88-7.07.15.04.9-.34.9-.34,6.21,1.72,13.53,3.28,19.83,4.58Z"/>
    <path class="cls-18" d="M287.08,356.7c-.51,2.14-1.63,4.16-2.35,6.13-.17.19-.34.38-.51.58-.83.81-1.98,1.24-3.4,1.27-7.36,7.77-18.63,11.28-26.81,2.58-5.87-1.04-11.64-2.04-17.33-3.02-1.8-1.8-3.69-3.55-5.65-5.18-.04-.3,0-6.12,0-6.12,6.02,1.3,12.12,2.34,18.22,3.21.11.25.22.5.35.74,2.64,5.25,8.07,8.85,14.35,8.85s11.99-3.79,14.56-9.25c.07-.13.14-.27.2-.41.01-.04.03-.09.04-.13,0,0,0-.01,0-.02.11-.27.22-.54.31-.81.09-.24.17-.48.24-.72,1.14.07,5.84-.73,6.81-.79.98-.05.26.7.95,1.22-.06.53-.06,1.35,0,1.88Z"/>
    <path class="cls-78" d="M280.02,349.66c0,1.64-.25,3.24-.71,4.73-.07.24-.15.48-.24.72-.09.28-.2.54-.31.81,0,0,0,.01,0,.02-.08.18-.16.35-.25.54-2.56,5.47-8.12,9.25-14.56,9.25s-11.72-3.6-14.35-8.85c-.13-.24-.25-.49-.35-.74-.88-1.98-1.36-4.17-1.36-6.48,0-6.31,3.63-11.77,8.92-14.39,2.15-1.08,4.58-1.68,7.15-1.68.85,0,1.67.07,2.48.2,7.7,1.19,13.59,7.84,13.59,15.87Z"/>
    <path class="cls-51" d="M304.04,491.94c1.29,14.65,2.65,29.37,3.76,44.06.56,7.44.26,15.1,1.89,22.38-.8,1.09-2.37.66-3.3.94,1.96-1.85.34-3.33.11-5.06-2.36-17.71-6.04-35.27-8.61-52.88l-26.36,4.22-.47.47c-3.95-1.04-8.38-.22-12.48-.48-5.77-.36-11.44-1.82-17.18-2.33-1.48,10.35-3.47,20.66-5.11,30.98-.96,6.07-1.56,12.49-2.51,18.66-.29,1.91-.74,5-1.27,6.74-.28.91-.24,1.62-1.5,1.56-.85-.14-1.93.1-2.83,0,2.94-18.95,5.71-38.83,7.07-57.96-.24-2.53-.26-6.01.94-8.01,20.21,3.39,42.74,3.74,62.66-1.64,1.49-.4,3.22-1.44,4.7-1.66.15-.02.32.02.47,0Z"/>
    <path class="cls-42" d="M271.06,506.08c-.91,5.01-1.15,10.17-2.01,15.18-1.93,11.17-4.63,27.61-8.81,37.84-.66,1.61-1.3,3.91-3.17,4.36-7.43,1.81-18.57-1.01-26.04-2.26l.81-2.61c2.58-18.44,5.59-37.05,9.02-55.84l2.48-.23c9,1.6,17.98,2.4,26.95,2.41l.78,1.14Z"/>
    <path class="cls-42" d="M271.54,505.6l.28-1,25.39-4.07,1.26.4c3.33,17.73,6.41,35.58,9.02,53.43,1.38,2.72,1.02,4.37-1.08,4.95-8.02,2.47-16.42,4.21-24.95,3.75-2.29-10.91-4.59-21.86-6.48-32.86-1.39-8.14-2.8-16.4-3.43-24.6Z"/>
    <path class="cls-77" d="M206.58,306.13h0c-.01.21-.03.42-.05.62h0c-.09,0-.64.4-1.25.1-8.02-3.87-17.55-7.49-25.12-11.88l2.24.17c.07.04.13.07.2.1h0c.38-.16.64-.46.82-.89,7.12-2.91,14.72-4.29,22.79-4.12-.26,5.15-.43,10.91.38,15.9Z"/>
    <path class="cls-36" d="M207.12,281.78s-.91,8.35-.92,8.46c-8.07-.17-15.67,1.21-22.79,4.12-.17.43-.44.73-.82.89h0c-.07-.04-.13-.07-.2-.1l-2.24-.17-.04-1.12c-2.49-1.32-4.66-3-4.74-6.05,1.91-1.62,1.15-3.14-1.33-2.73,4.06-1.27,11.96-3.35,16.01-3.77.03,0,.07,0,.09,0,0,0,.02,0,.03,0,0,0,12.96,1.21,14.76.64.49-.15,1.96-.18,2.2-.17Z"/>
    <path class="cls-77" d="M206.73,284.97c.04.76.05,1.54.04,2.25-.05-.76-.07-1.51-.04-2.25Z"/>
    <path class="cls-77" d="M207,281.78h0c-.24,0-.52-.33-.82-.94-.02.04-.04.06-.07.09h0s-.03.04-.04.07v-.16s.09-.57.46-.48l.48,1.42Z"/>
    <path class="cls-27" d="M303.45,360.2l-14.67,1.08-1.7-4.58s-.12-2.52.06-2.75c4.55-1.04,9.09-2.1,13.6-3.38.46,2.86,2.1,6.81,2.71,9.63Z"/>
    <path class="cls-18" d="M317.7,344.92c.61,1.36,1.04,2.8,1.41,4.24l-.07,4.65c-2.59,1.2-4.98,2.78-7.62,3.91s-5.45,2.07-8.33,2.75c-.06-.28-.34-.79-.47-1.41-1.92-1.85-2.99-6.06-1.88-8.48,5.48-1.56,11.79-3.34,16.96-5.65Z"/>
    <path class="cls-79" d="M303.1,478.27c.09,4.58.24,9.14.47,13.67-.02,1.21-3.01,2.23-4.16,2.48-13.42,2.84-24.29,4.52-38.17,4.2-5.2-.12-19.98-.52-23.77-2.53-.44-.24-.85-.53-1.25-.84-.77.02-.8-1.29-.47-1.88.13-.41.29-.41.47,0,.12-7.11.59-14.33,1.41-21.68.9-.78,4.09.34,5.42.47,19.1,1.74,39.98,1.77,58.17-4.71.13-.41.29-.41.47,0,.35,3.59,1.08,7.24,1.41,10.84Z"/>
    <path class="cls-71" d="M288.49,361.89c4.68,26.86,7.91,53.94,10.83,81.05.36,8.05.99,16.21,1.88,24.5-.29.36-.6.7-.94.99s-.68.56-1.06.68c-18.25,5.92-37.57,5.48-56.43,3.95-1.49-.12-4.14-.53-5.16-1.38l-.43-3.38c.21-21.35-.11-42.69-.98-64.01-1.15-12.29-2.4-24.55-3.77-36.75-1.79-.95-2.17-4.32-1.47-6l.05-2.48c2.68.4,5.02,2.55,5.65,5.18l1.56.69c7.81,7.83,15.24,16.03,22.28,24.61l.65,1.56-.14,1.09c-3.46,1.86-6.35,4.71-8.64,7.88l-1.11-.02c-5.37,7.41-4.49,20.84-1.49,29.26,4.64,12.99,23.87,15.61,33.35,6.24,2.09-2.06,6.05-11.62,5.27-14.51,1.1-7.21,2.26-11.22-2.74-20.99l-1.34-.14c-2.86-3.63-6.23-6.7-10.73-8.08l-.65-1.2c.02-.63.05-1.26.15-1.88s.21-1.21.44-1.75c2.95-7.06,5.98-14.17,9.05-21.17.5-1.13,2.9-8.33,4.49-9.12,1.57.01,2.29,4.24,1.41,5.18Z"/>
    <path class="cls-12" d="M322.88,365.66c2.5,11.43,9.74,55.31,10.27,57.85s4.14,17.5,3.78,19.81c-.08.51-.23,1.01-.39,1.5.42.12.41.27,0,.47,2.55,16.27,4.95,32.78,7.54,49.01.07.44-.07.97,0,1.41,1.92,16.28,7.54,49.01,7.54,49.01-6.87,5.37-17.91,8.94-26.28,11.04-.23-2.77-1.3-28.98-2.45-39.31-4.62-45.94-9.47-92.49-16.21-137.43-.77-6.41-1.95-12.12-3.57-17.13-.09-.42.09-.99,0-1.41l1.46-1.34c4.8-1.19,9.13-3.49,13.41-5.84-.16-2.05.22-3.43,1.15-4.13,1.39,5.42,2.67,11,3.77,16.49Z"/>
    <path class="cls-38" d="M210.3,348.69c1.54,1.1,2.96,7.91,1.41,9.9-1.83,1.02-4.03,1.07-6.61.17-6.66-2.05-13.29-3.96-19.88-5.71,3.81,19.12,1.04,39.75-1.7,59.17-2.14,15.18-4.69,30.44-7.21,45.56-.09.53-.29,1.04-.52,1.55s-.52,1.96-.82,2.45c-1.14.34-2.55-.6-4.24-.95-3.57.15-13.09-.99-13.19-2.36,0,0,4.71-5.5,5.65-5.65,2.04-4.47,4.87-13.86,5.99-18.75.21-.91.76-2.07.13-2.92,1.13.12.96-.66,1.18-1.39,2.92-9.83,5.75-21.08,8.03-31.1,2.35-10.38,6.14-26.96,4.24-37.26-.51-2.79-4.78-10.98-6.83-12.96-3.61-3.49-15.05-8.66-20.04-9.16-3.42-.34-13.83-.34-16.72.94,7.43-10.09,20.17-7.28,30.62-4.48,13.67,3.67,26.84,9.29,40.51,12.96Z"/>
    <path class="cls-45" d="M308.09,294.08c-1.93,8.62-12,15.92-18.84,21.65-1.98,1.66-7.39,6.19-9.39,7.12-.62.28-.9.46-1.63.43h-.04s-.06-.01-.09-.02c0,0,.01,0,.02-.01l.08-.21c-1.48-.09-4.01-2.25-5.14-3.29-1.17-1.08-1.95-1.63-2.74-3.15-1.48-2.82-1.77-7.08-2.24-9.99,0-.13,0-.27-.01-.41.2-1.09.45-2.11.59-3.4.07-.43,5-11.73,5.21-11.79,2.94-.77,12.46-3.55,13-4.04l2.1,3.03c3.61,3.37,10.17,4.02,14.9,4.11.58,0,1.33,0,1.58-.02.47-.05.86-.07,1.22-.1.34-.03.67-.01,1,.04.04,0,.07,0,.09.01h0c.09,0,.17.02.25.04h.07Z"/>
    <path class="cls-38" d="M218.3,475.45c0,.31,0,.62,0,.94l-.47,2.82c-.46,32.62-5.26,68.22-10.83,100.37-.24,1.4-.7,2.87-.94,4.24-2.09-.64-5.08-1.27-8.95-1.89-9.4-1.54-18.66-3.11-27.79-4.71-4.6-.68-9.15-1.77-13.66-3.3-7.31-2.09-14.53-4.6-21.67-7.54-.21-.25-.74-.84-.94-.94-.28-.14-1.09-.01-1.74-.37-1.48-.8-2.93-1.62-4.39-2.46.27-.69.2-2.17.47-2.82.04-.08.83-1.27.94-1.41-.17-1.27.1-1.43.94-.47.96,1.54,5.59,3.89,5.66,4.24,7.17,2.74,17.79-.67,17.9-9.42.6.21,1.27.27,1.88.47,2.63.19,5.21,1.12,7.54,2.35,4.74,1.37,12.55,5.51,15.54-.47,3.21-.96,6.16-2.26,9.62-2.75l2.06.28c2.65-.04,2.5-.28,3.65,2.03,2.53.46,4.24.12,4.16.31,2.51-.96,2.27.62,5.95-1.75.67.43.85.46,1.48.43,2.17-.48,2.06-1.69,5.6-.9l-.19-3.28c2.66-23.56,5.2-47.16,6.94-70.82l.78-3.18h.47Z"/>
    <path class="cls-31" d="M190.51,698.32c-.55.43-11.69-2.83-13.55-3.17-3.48-.64-7.57-.64-10.97-1.28-.98-.18-2.51-.33-2.33-1.67,2.76.03,5.08-1.6,7.78-1.88,6.83-.7,15.59,1.64,19.07,8Z"/>
    <path class="cls-76" d="M106.2,481.1c1.07,2.6.49,6.44-1.41,8.48-.27,1.27-.63,2.52-.94,3.77-3.97-.8-10.51-3.58-12.72-7.07.61-1.7,1.59-2.47,3.17-3.19,3.36-1.54,8.26-2.17,11.91-1.99Z"/>
    <path class="cls-33" d="M324.29,311c-1.04,2.19-.2,3.45-1.68,5.62-4.57,6.69-14.47,13.16-21.89,16.27-4.96,2.08-9.87,2.78-15.06,4.02l15.39-7.92c6.71-3.74,19.16-11.68,22.77-18.46.14.16.29.36.47.47Z"/>
    <path class="cls-52" d="M310.16,286.96c.37,1.34-.25,2.32-.47,3.3-1.24,5.34-4.22,5.16-9.08,4.34l-8.25-2c-6.2-2.45-13.64-1.53-14.12-2.82,5.95-1.93,14.14-5.67,17.49-7.95,4.14,2.7,9.88,3.17,14.43,5.14Z"/>
    <path class="cls-10" d="M342.68,576.9l4.23-21.35c2.41,1.36,4.3,4.1,6.35,5.66.9.68,1.33.86,1.18-.48.43,2.35.99,4.69,1.41,7.07-2.93,2.93-5.98,6.89-9.45,9.17-.32.21-3.96,2.6-5.63,3.56-3.71,2.91-7.57,6.04-12.24,7.54.03-4.25-.79-8.48-.94-12.72,0-.08-.82-8.43,0-11.31,1.35.5,2.8,1.91,4.71,4.24l2.72,3.1c1.32,1.55,3.71,3.25,4.55,3.94.63.52,3.12,1.58,3.12,1.58Z"/>
    <path class="cls-4" d="M135.87,591.84c-5.87-3.51-11.14-7.52-15.07-13.19.48-1.24.92-2.52,1.41-3.77,1.07-1,2.45-1.72,4.14-2.16,2.37-1.68,4.79-2.87,7.26-3.58,0,0,1.73,12.41,2.26,22.7Z"/>
    <path class="cls-36" d="M180.1,293.86l.04,1.12c-3.06-1.78-5.62-3.17-5.68-7.34-.01-.8,2.71-1.43-.43-2.56,2.48-.41,3.24,1.11,1.33,2.73.08,3.05,2.25,4.73,4.74,6.05Z"/>
    <path class="cls-36" d="M182.39,295.15c.07.04.13.07.2.1-.57.25-1.39.15-2.44-.28l2.24.17Z"/>
    <path class="cls-36" d="M206.06,280.84s.04.06.05.09h0s-.03.04-.04.07c-.29.41-.65.8-1.14.95-1.8.57-10.93.36-13.4.2l-1.36-.83s-.02,0-.03,0c5.16-.53,10.53.35,15.92-.46Z"/>
    <path class="cls-36" d="M206.51,289.06v.26s-.09,0-.14,0c.04-.09.09-.18.14-.27Z"/>
    <path class="cls-36" d="M206.77,287.23c-.05-.76-.07-1.51-.04-2.25.04.76.05,1.54.04,2.25Z"/>
    <path class="cls-49" d="M150.95,309.58s1.55,1.41,1.65,1.41h11.31c2.29,0,14.67,4.73,17.66,5.9,11.98,4.67,35.3,13.97,44.81,21.63.48.39,1.19-.02.89,1.22-9.02-3.19-17.85-6.71-26.72-10.25-3.05-1.22-4.52-1.4-7.52-2.94-8.55-4.37-27.23-12.38-36.62-11.76-1.08.07-1.41,1.1-2.62.44-1.92-1.05-2.33-3.83-2.83-5.65Z"/>
    <path class="cls-26" d="M84.53,427.86c2.33-6.84,14.42-7.85,20.5-7.1.91.11,1.08.98,1.17.97l.38.26c-2.07,6.54-6.21,21.42-6.42,21.94-6.19-2.97-14.05-9-15.63-16.08Z"/>
    <path class="cls-68" d="M353.5,553.67c.4,2.31.53,4.79.94,7.07.21,1.34.31,2.3-1.23,1.6l-5.62-5.18-4.57,19.62c-.62,1.21-3.74.52-3.74.52-2.42-2.01-3.6-3.4-4.98-5.5l-2-3.52-1.18-.25c-.22-.61-2.36-3.3-2.65-2.37l.54,8.5c-.03.11-1.21,1.3-1.42,1.18-.23-5.12-.99-10.22-1.41-15.32-.12-1.48.12-3,0-4.47l1.25-1.29c7.33-1.86,14.74-4.07,21-8.46l1.78-.15c.48-1.19.95-1.5,1.41-.94,1.85,2.1,2.92,6.36,1.88,8.95Z"/>
    <path class="cls-59" d="M311.57,672.41c.17-.23,1.19-1.25.7-1.42-6.34.73-12.91,2.25-19.31,1.88-3.15-.18-6.71-1.14-9.9-1.4-2.03-.17-5.18.47-6.82,0-4.93-1.43-2.88-9.88-3.3-13.66.11.46,1.72,1,4.16,1.51l8.56,2.25c4.66,1.21,9.81,1.34,14.6.94.01,0,.04-.01.07-.02,1.46-.45,15.01-3.27,15.01-3.27.56,4.37,1.52,11.62-3.77,13.19Z"/>
    <path class="cls-2" d="M234.32,387.33c-.2-6.55-1.04-13.49-1.88-19.79-.75-2.74-.61-6.09-1.41-8.49-5.03-.24-18.72-.83-17.9.47-.73.46,5.97,75.87,4.95,113.44l.22,2.48c-.35.31-.36.65,0,.94l-.47,2.82c-1.83,33.64-12.46,106.67-12.72,107.26-.26.58-.51,1.16-.64,1.77-1.3,6-2.52,12.12-3.65,18.15-.24,1.25-.1,2.55.06,3.81-1.06.4-41.8-9.38-41.8-9.38-5.18-1.39-12.28-4.13-16.69-6.18-1.02-.47-5.22-2.74-8.72-4.71-3.01-1.7-5.75-3.83-8.14-6.34l-4.73-4.96c-1.38,3.58-4.9,9.62-5.55,13.07-.72,3.83,4.89,7.49,7.76,9.46,5.57,3.82,11.91,6.73,18.04,9.51,1.49.68,3.06,1.69,4.71,2.36,15.24,6.24,65.43,14.12,66.07,14.17,1.55.12,2.89.19,3.63-1.7,2.54-6.54,4.54-18.36,6-25.57,2.59-12.79,4.73-25.84,6.73-38.74,11.79-55.92,11.86-140.22,6.13-173.87Z"/>
    <path class="cls-81" d="M276.25,671.47c.95-1.06,4.71-1.11,6.34-.96,9.75,2.08,19.02,1.52,28.84-.36,2.33.08,1.77,1.41.15,2.27-.19.26-.29.77-.47.94-1.51,1.45-3.22,1.08-4.91,1.45-.75.17-1.25.75-1.94.88-4.04.76-10.38.41-13.99,1.55-1,.31-1.93,1.1-2.71,1.77-.28-.18-.77.15-.94.94-2.79,2.95-5.71,7.93-6.12,12.02-.22,2.22-.05,8.89.98,10.74,1.57,2.8,7.23,3.49,6.43,7.58-.2,1.02-1.55,1.34-2.48,1.28-1.9-.11-4.55-4.03-6.36-.53l3.77.48c.08.53-.47.43-.47.47-4.59-.32-12.34-3.04-13.16-8.28-1.59-10.19,3.98-22.72,7.04-32.25Z"/>
    <path class="cls-69" d="M330.89,337.85c2.03,3.05,3.76,6.3,5.65,9.42-.89.26.22,1.61,0,1.88-.08.1-.72-.45-1.37-.24-.49.16-4.74,2.29-5.38,2.67-.36.21-2.33,1.66-2.43,1.81-1.51,2.48,1.13,17.17,1.88,20.74,3.06,14.63,7.97,28.97,11.15,43.57.14.65.21,1.03-.07,1.66l2.82-.47c-.73.6-1.59,1.26-2.54,1.58-1.32.98-2.93,1.6-7.83,1.72-.96-6.82-5.12-31.7-6.59-36.28-1.45-6.67-2.86-13.48-3.3-20.26-2.41-5.1-3.66-10.6-3.77-16.49-1.55-.62-2.25-2.81-1.41-4.24,3.11-1.39,10.52-5.21,13.19-7.07Z"/>
    <path class="cls-35" d="M365.28,441.52c-2.35,2.13-4.17,4.75-6.63,6.79-4.1,3.4-9.14,5.87-13.57,8.6,2.15,11.51,2.7,23.58,7.91,34.25.47.55,1.29.32,1.93.3.31,1.48-2.7,2.4-4,2.69-1.91.43-4.89-.02-6.84.13,0,0-6.68-33.6-7.73-50.05,6.87-2.14,17.62-7.45,26.1-11.68.7,2.92,1.75,6.16,2.83,8.95Z"/>
    <path class="cls-39" d="M189.1,669.11c5.12.39,10.28.44,15.5.17l-.9-.17,10.36-1.88c-.72,3.82-.01,9.95-3.07,12.72-1.47,1.33-4.33,1.28-4,3.3-.04,0-.23.42-.36.35-.4-.23-1.28-1.33-.58-1.76-4.3-.09-8.68.59-12.98.49-6.91-.17-13.41-1.41-20.09-2.99-2.01-.47-4.04-1.17-6.02-1.75.12.59-.23.95-.48,1.42.27-2.04-2.5-2.53-3.32-3.98-1.64-2.88-.59-9.38.5-12.51,8.12,3.42,16.64,5.83,25.44,6.6Z"/>
    <path class="cls-2" d="M362.45,432.57l-16.06,7.79c-.19-.13-6.82-19.23-6.82-19.23l3.57-2.22c1.22-.5,4.39-2.11,5.79-3.13,6.61-4.8,13.57-8.95,18.23-15.72,2.58,4.36,7.8,10.96,9.54,15.22.21.52.37.76.28,1.39-.63,4.11-10.42,13.1-14.52,15.9Z"/>
    <path class="cls-16" d="M353.1,493.46c-3.12-.4-8.67-32.01-8.79-36.87l1.56-1.26c6.8-3.68,13.11-7.62,17.93-13.71l1.47-.1c4.56,11.79,9.72,23.41,13.16,35.63.05,1.79-4.29,6.19-9.86,9.6-3.54,2.17-15.48,6.71-15.48,6.71Z"/>
    <path class="cls-2" d="M150.47,417.02c6.95,3.96,12.71,9.1,18.84,14.14.43-.05.84.02,1.15.32.81.78-5.31,20.93-6.55,21.27-.23.06-.48.08-.73.09-1.09.56-8.34-10.52-8.34-10.52-2.03-1.04-4.11-3.64-7.2-5.97-11.23-6.73-39.79-14.51-41.19-13.99,0,0-16.73-1.38-20.82,5.24l-1.12.26c-.14-.65-.58-.83-.5-2.09.26-4.15,9.63-16.23,12.27-20.53,5.63-1.99,12.88-1.55,18.93-.76,12.17,1.6,24.87,6.18,35.24,12.54Z"/>
    <path class="cls-3" d="M367.22,400.03l.02,1.6c-5.31,7.24-18.37,14.59-24.04,17.25-2.58,1.26-2.41,2.68-3.62-.73-3.4-13.45-6.88-26.89-10.43-40.32-1.15-4.54-4.55-21.76-2.4-25.09l9.09-5.64.77.15c10.55,17.4,20.26,35.28,30.62,52.78Z"/>
    <path class="cls-44" d="M337.26,330.81c-.65,1.35-3.72,5.08-5.31,6.98-.63.75-1.36,1.39-2.2,1.89-3.6,2.17-7.4,4.08-11.19,5.89,0,0-13.44,4.95-15.98,5.47,0,0-10.56,3.24-15.51,3.79-2.58.09-5.24.2-8,.29.09-.24.17-.48.24-.72.46-1.49.71-3.08.71-4.73,0-8.03-5.89-14.69-13.59-15.87l.67-.75h0s0-.01,0-.01l1.39-1.55s.01-.02.02-.03l.17-.19s0-.04,0-.06c.04-.04.07-.09.1-.14,2.64-2.18,5.61-4.06,8.16-6.21.59-.49,1.19-.71,1.25-1.56h-.04s-.06-.01-.09-.02c0,0,.01,0,.02-.01l.08-.21.28-.73c9.23-5.59,18.29-13.9,25.1-22.52,1.37-1.74,2.76-3.65,3.96-5.58.04-.06.08-.12.12-.18.77-1.25,1.47-2.52,2.03-3.76-.74-1.43-.58-2.53.47-3.29,6.6,2.86,13.85,8,14.6,15.79.21,2.22.11,5.8-.94,7.77-1.58,3.98-1.43,4.13.47.47,6.98,4.27,17.75,9.83,12.97,19.81Z"/>
    <path class="cls-16" d="M151.89,455.66c2.9,2.84,1.2,2.48,1.2,2.48-2.49,10.85-4.44,24.35-5.99,35.54-.05.37-.49.19-1.18-.3-6.37-4.55-13.71-7.57-21.38-9.18l-2.55-.54c-8.9-1.87-18.14-1.41-26.82,1.34l-4.05,1.28c-1.59-2.52-.29-5.67.23-8.49,1.74-9.53,10.21-39.27,11.04-41.52,2.01-2.69,7.49-2.32,10.81-2.09,10.91.74,22.9,5.59,31.05,12.77,2.65,2.33,6.15,5.71,7.64,8.71Z"/>
    <path class="cls-22" d="M311.1,673.35c.8,2.51,3.16,3.98,5.34,5.26,11.89,6.99,42.85,13.57,46.92,27.99,2.56,9.07-6.32,13.31-13.63,15.05-12.88,3.06-30.15.1-42.64-4-3.47-1.14-8.68-4.01-11.88-4.61-1.28-.24-12.82.11-12.84-1.05-.56-.34-1.73-.61-3.53-.81-1.33-1.05,1.33-3.06,2.85-2.44,7.95,4.79,6.27-1.22.22-4.1-4.8-6.7-2.39-19.24,3.49-24.77l1.22.06c0-.54.42-1.01.94-.94-.85-1.53,1.88-2.56,3.19-2.88,6.76-.31,13.24-1.38,19.45-3.22l.91.45Z"/>
    <path class="cls-44" d="M247.89,349.66c0,2.31.49,4.5,1.36,6.48.11.25.22.5.35.74-5.4.44-13.71-1.9-18.57-3.95-2.51-.43-5-.91-7.5-1.45-.17-.04-.34-.07-.51-.12-3.93-.85-7.83-1.85-11.7-2.98-.04-.01-.08-.02-.12-.04l-.43.34c-.04.14-.09.24-.15.28-.09.07-.2-.02-.32-.28-1.14.22-2.27.22-3.41.03l-32.66-10.74c-4.94-1.55-10.76-3.16-15.82-3.68-8.1-.85-12.93.78-19.25,5.91-.6.27-3.64,3.11-4.24,3.77-2.33-9.54,5.03-16.87,11.3-22.85l7.55-5.89c1.19-1.62,3.56-1.53,5.46-1.35,4.21.38,8.26,1.47,12.3,2.73,8.3,2.6,16.26,6.3,23.98,10.05l28.09,10.87c-18.55-10.99-39.09-19.22-59.27-25.56,0,0-.69-.09-.99-.05-.91.13-4.74.2-7.44.15-1.6-.03-3.12-.68-4.24-1.82-.37-.38-.68-.67-.72-.68-3.74-13.83,12.19-21.12,23.09-24.5,2.48-.41,3.24,1.11,1.33,2.73.08,3.05,2.25,4.73,4.74,6.05l2.28,1.29c.07.04.13.07.2.1h0c8.1,3.8,16.08,7.63,23.93,11.51h0c.11-.02.22-.03.33-.03,2.56,2.07,6.42,3.58,9.68,5.24,14.04,7.09,26.33,14.61,39.63,22.98l.63.33c-5.29,2.62-8.92,8.08-8.92,14.39Z"/>
    <path class="cls-26" d="M336.54,608.33c-.68.1-1.04.62-1.1,1.55l-4.78.84c-5.52,4.15-15.74,7.84-22.14,4.4-1.69-15.39-3.41-30.78-5.15-46.18l-1-.68c-6.65,1.87-13.38,3.22-20.19,4.06-5.08.54-6.76-.02-8.09-4.93l-1.19-6.35c-2.43-5.71-5.03-2.46-5.42,1.95-.51,2.29-1.47.97-2.89-3.96-1.58-.54-2.05-.32-1.97,1.78-1.16,24.56-.03,48.85,3.39,72.89,1.67,14.93,15.7,24.26,29.57,26.63,0,.12,0,.23.02.33-6.05-.18-11.99-1.51-17.85-2.85-.73-.04-1.19.15-1.25.57-.04.22.03.5.21.84l.39.1c-2.44-.51-4.06-1.05-4.16-1.51-11.87-4.84-16.68-11.3-17.45-24.25-.58-9.75-.4-20.13-.46-29.94,1.02-2.62.45-5.99.05-8.67l3.65-21.75c-.28-.39-.44-.71-1.02-.62-.75.12-3.08,1.4-4.45,1.69-3.77.8-13.53.62-17.27-.39-.86-.23-1.27-.96-2.15-.9-1.52,7.47-4.13,14.73-5.92,22.12-2.35,9.68-3.79,19.63-6.58,29.24-2.48,8.6-3.38,11.44-13.19,12.25-20.83,1.7-43.2-7.71-63.24-12.57-.37-.09-1.03-.14-1.52-.14.75-3.63,1.44-7.26,2.35-10.84,0,0,60.54,13.74,64.46,13.48,3.5.42,5.05-.01,5.44-2.61,4.08-19.6,7.9-39.54,11.46-59.83l1.09-2.87c.69-.81,1.91-.75,2.82,0,.69.12,18.36,2.24,26.42,1.06,1.26-.83,2.98-6.16,3.46-7.76,4.58-15.13,7-30.87,8.89-46.56.26-.74.68-1.35,1.27-1.88-.62-.66-.36-.9.47-.47.52.94,1.05,1.92,1.21,2.99,2.7,17.96,5.43,36.01,9.3,53.95,7.48-.55,15.06-1.24,22.3-3.59l5.35-1.51c.98.46.7,2.22.47,3.3,1.03,14.93,1.75,30.63,3.3,45.46.58,5.51,2.22,4.86,6.96,3.67,3.49-.87,12.87-4.98,16.12-6.73-.05,1.72.07,3.46,0,5.18Z"/>
    <path class="cls-2" d="M312.94,423.67c3.86,30.84,7.28,61.84,9.94,92.77,1.01,11.07,2.08,20.37,2.36,30.63,1.65,2.12,2.21,6.13.94,8.48l.98.79c.04,6.27.19,12.6.44,19,.73,2.83,1.09,5.81,1.09,8.95,0,0,3.91,1.55,5.45.76,1.98-2.24,4.19-3.75,6.64-4.53,1.66-.96,3.32-1.97,4.71-3.3l.17-1c3.25-2.36,6.17-5.14,8.78-8.33l1.41-.1c.79,4.47,2.6,10.57,2.78,14.92.04.83.14,1.17-.21,2.03-1.05,2.57-9.91,10.08-12.51,11.99-2.37,1.75-6.96,5.1-9.38,6.4-.21.93-.37,1.13-1.07,1.6-2.58,1.76-16.51,7.34-19.48,6.87-2.8-.44-3.25-2.89-3.46-5.32-1.18-13.65-2.32-27.31-3.01-41-.04-.75-5.28-64.95-5.96-73.36-.77-4.53-4.19-40.81-4.24-49.01-.72-2.39-7.42-51.47-10.52-73.57-.35-2.48-.36-4.99-.31-7.48-.68-2.04,13.2-1.88,14.13-2.83,2.85.98,7.85,44.95,10.32,64.61Z"/>
    <path class="cls-7" d="M255.05,603.62c0-1.64.07-3.31,0-4.95-.02-.57.36-1.75-.47-1.64-2.22,12.65-5.3,25.46-9.19,37.69-5.48,17.23-13.06,27.65-31.32,32.51l-.39.93c-3.52.94-6.6,1.42-9.98.96-4.87.47-9.74.47-14.6,0-8.74-.99-17.72-2.74-25.44-7.07-13.35-6.22-23.37-13.57-22.08-29.86.23-2.93,1.27-5.59,1.82-8.31.38-1.41,44.9,13.77,67.74,11.41,5.32-.55,7.36-3.92,8.6-8.76,3.98-17.61,8.3-35.15,12.96-52.62.52-2.35,2.06-1.89,3.59-.9,7,1.05,14.73,1.84,21.31-1.33,1.3-.1,2.21.85,2.01,2.12l-3.57,21.17c.29,1.52,1.01,7.26.15,8.25-.27.31-.72.37-1.13.41Z"/>
    <path class="cls-7" d="M315.35,659.22s-8.12,2.69-15.01,3.27c-.03,0-.05.01-.07.02-4.79.4-9.94.27-14.6-.94l-8.56-2.25-.39-.1c-.18-.34-.25-.62-.21-.84.06-.42.51-.61,1.25-.57,5.86,1.33,11.8,2.66,17.85,2.85-.01-.09-.03-.2-.02-.33-13.87-2.38-27.9-11.7-29.57-26.63-3.42-24.03-4.55-48.33-3.39-72.89-.08-2.1.39-2.32,1.97-1.78,1.42,4.93,2.38,6.25,2.89,3.96.39-4.41,2.99-7.66,5.42-1.95l1.19,6.35c1.33,4.91,3.01,5.47,8.09,4.93,6.81-.84,13.54-2.19,20.19-4.06l1,.68c1.74,15.4,3.45,30.79,5.15,46.18,6.41,3.45,16.63-.25,22.14-4.4l4.78-.84c.06-.93.42-1.45,1.1-1.55.78.49.47,1.78.48,2.58.26,20.91,1.82,39.88-21.67,48.31Z"/>
    <path class="cls-8" d="M139.17,340.21c3.59-2.66,11.09-2.42,15.55-1.97,6.19.63,12.98,3.6,18.29,6.89,14.38,8.88,11.54,28.43,8.8,42.74-2.75,14.37-10.72,45.62-11.3,44.34l-20.05-15.18c-14.88-9.15-36.29-14.08-54.17-11.78,0,0,25.12-46.47,38.63-61.26-.08-1.72,2.75-4.89,4.24-3.77Z"/>
    <path class="cls-72" d="M166.49,679.01c-.21-1.81.22-2.52,1.3-2.13,12.2,3.95,24.78,5.26,37.52,4.02.7.46,1.27,1.24,1.69,2.35.21,0,.4-.02.47.24.76,2.96,1.04,8.48,1.41,11.78.5,4.41,1.8,12.9,1.36,16.91-.29,2.66-1.64,4.72-3.29,6.59-3.16,3.59-7.15,6.34-11.54,8.24l-6.26,2.7c-7.51,3.24-15.54,5.09-23.71,5.48l-3.98.19c-7.04.33-13.82-2.66-18.33-8.07h0c-2.71-3.25-3.98-7.53-3.25-11.7.81-4.69,3.48-8.97,6.81-12.81,4.44-5.11,11-9.4,15.08-14.61,2.19-2.8,3.07-6.13,4.72-9.18Z"/>
  </g>
  <g id="head">
    <path class="cls-41" d="M278.24,323.28c-.07.85-.67,1.07-1.25,1.56-2.56,2.16-5.53,4.03-8.16,6.21-.03.04-.07.09-.1.14-.05.09-.11.17-.18.25,0,0-.01.02-.02.03l-1.39,1.55h0s0,.01,0,.01c-.42.56-.62.8-1.29,1.43-.04.34-.93.75-1.19.82-.72.18-5.59.76-6.34.76l-.86-.45-.11-.07h0l-1.14-.59c-13.3-8.36-25.59-15.89-39.63-22.98-3.27-1.65-7.12-3.16-9.68-5.24-.07-.05-.14-.12-.22-.17-.02-.14-.04-.28-.07-.41h0c-.81-5-.64-10.75-.38-15.9,0-.11,0-.22.01-.32,0-.2.55-4.19.51-4.95h0v-.02c.03-.91.12-1.82.27-2.7h0c.02-.17.04-.31.08-.46.01,0,.03,0,.04,0,.01-.02.03-.05.04-.08-.09,1.55.15,3.13,1.47,3.72,14.83,18.62,35.13,33.5,59.14,23.26.04-.87.14-1.62.27-2.35.01.09.03.17.04.27.46,2.91.75,7.17,2.24,9.99.8,1.52,1.57,2.07,2.74,3.15,1.13,1.04,3.66,3.2,5.14,3.29l-.08.21s-.01,0-.02.01c.03,0,.06.01.09.02h.04Z"/>
    <path class="cls-41" d="M206.53,289.32c-.05,0-.11,0-.16,0,.04-.09.09-.18.14-.27v.26Z"/>
    <path class="cls-41" d="M268.52,331.47c-.43.59-.9,1.12-1.39,1.55l1.39-1.55Z"/>
    <path class="cls-41" d="M278.24,323.04c0,.09,0,.17,0,.24h-.04s-.06-.01-.09-.02c0,0,.01,0,.02-.01l.08-.21s.02,0,.04,0Z"/>
    <g id="face">
      <path class="cls-55" d="M280.49,247.38c-.37.42-.84.7-1.4.85-2.57-1.69-5.54-1.67-8.49-1.33-5.59.21-14.84-.03-17.51,0-.24,0-2.31,1-1.86.17l.37-.47c.6-.59.8-.67,1.29-.87,3.27-1.28,6.74-4.6,9.47-7.31,2.55,2.17,6.11,5.68,9.31,6.7,2.68.85,6.37.7,8.82,2.25Z"/>
      <path class="cls-19" d="M171.2,222.88c-.9,1-5.56-5.83-6.1-6.38-2.11-2.18-5.43-4.2-8.18-5.48-1.41-.66-7.09-1.53-5.76-3.7,1.2-1.95,6.55-.49,8.39.13,6.23,2.13,11.25,8.85,11.65,15.43Z"/>
    </g>
    <path class="cls-58" d="M249.87,264.6c3.32,1.51,7.47,1.75,11.08,1.43,2.86-.25,4.64-1.57,6.93-2.03,3.03-.61-1.1,3.16-2.31,3.83-4.39,2.42-13.99,2.46-15.7-3.22Z"/>
    <path class="cls-74" d="M330.17,197.63c-2.79,3.72-4.76,7.28-3.71,12.12,1.37,4.98,1.58,9.76,1.61,14.86l.04,1.01c-.05.01-.1.03-.15.04-.01,0-.03,0-.04,0-.39,6.62-1.43,12.17-3.11,16.66l-.92,1.71c-4.94,9.32-9.57,17.36-15.75,25.26l-.29,1.77c.08.01.15.04.23.05-.09.1-.18.2-.27.3-2.68,3.03-6.94,6.16-10.12,8.69,6.29-7.08,13.47-15.81,18.12-24.24,3.06-5.55,6.47-13.66,7.7-19.86,3.39-17.11-3.06-30.29-4.87-46.58-.7-2.46-.61-5.68-.01-7.71.04,1.59,1.58.91,2.53,0l.12-.12c.08-.08.14-.15.21-.23h.01s.22-.23.22-.23l2.66,15.28c2.11-3.87,7.94-3.9,5.79,1.21Z"/>
    <path class="cls-25" d="M386.24,218.72c-5.24,9.26-18.94,11.86-28.31,8.14-.97-.38-5.99-3.66-6.27-3.38,4.4,9.94,4.19,22.96-3.06,31.57-1.85,2.19-7.08,7.24-9.28,3.16-1.57-2.91-1.51-7.16-5.33-8.81l-3.11,9.6c-3.95,8.49-13.41,14.08-22.8,12.12-.08-.01-.15-.04-.23-.05l.29-1.77c6.44-7.7,16.67-26.98,16.67-26.98,1.68-4.49,2.72-10.04,3.11-16.66.01,0,.03,0,.04,0,.05.04.1.07.16.08.12.06.26.08.41.06.77-.1,1.67-.51,1.9-1.03,3.36-3.21,6.76-5.24,9.42-9.43,2.74-3.67,5.27-9.54,5.18-14.14.13-1.5.18-3.06.12-4.62,0-.2-.01-.39-.03-.59,0-.27-.02-.54-.04-.81-.02-.37-.05-.74-.09-1.1-.03-.35-.07-.7-.12-1.06,0-.06,0-.12-.02-.17-.04-.32-.09-.63-.14-.95-.01-.12-.03-.22-.06-.33-.04-.26-.09-.52-.15-.77-.02-.17-.06-.33-.1-.49-.05-.25-.11-.49-.17-.73-.04-.17-.08-.33-.13-.5-.07-.27-.14-.53-.23-.79-.01-.04-.02-.09-.04-.14-.06-.21-.12-.42-.2-.62-.06-.17-.12-.33-.17-.49,0-.02-.02-.04-.03-.07-.06-.17-.12-.34-.19-.5-.07-.17-.13-.34-.2-.51-.47-1.1-1.02-2.11-1.77-3.16-.77-2.01-3.44-4.77-5.66-5.18-1.11-.54-2.05-.83-3.29-.94-1.46-.14-2.66-.12-3.77.09-.13.02-.25.05-.38.08-.09.01-.17.04-.25.06-.1.03-.2.05-.3.09-.47.14-.93.32-1.4.55-.1.04-.2.09-.3.15-.35.18-.7.38-1.06.62-.12.07-.23.15-.35.23-.22.14-.45.31-.69.49-.08.06-.16.12-.23.18-.08.06-.15.12-.22.17-.78.65-1.25,1.25-1.88,1.94h-.01c-.07.09-.13.17-.21.25l-.12.12c-.95.9-2.49,1.58-2.53,0,0-.01,0-.03.01-.04.03.03.06.05.09.07-.41-14.06,1.74-32.31.44-49.71-.02-.3-.04-.6-.07-.91-.01-.17-.02-.33-.04-.48-.12-1.53-.26-3.03-.46-4.45-.03-.2-.05-.38-.08-.56-.23-1.84-.52-3.66-.86-5.46l-.08-.39s-.02-.26-.03-.35h0c-.09-.25-.15-.28-.25-.5-.19-.46-.34-.91-.46-1.31,5.94,2.54,11,6.81,14.35,12.37,2.3,3.81,4.07,8.04,5.61,12.34,2.93,7.7,9.42,14.15,17.72,15.46.23.04,1.58.22,1.58.22,3.14.45,4.59-.28,7.05-1.17.09-.17,0,.37-.77,1.82-2.53,5.13-6.47,8.11-11.24,10.99-.48.29-.83.8-.81,1.37,0,.42.19.76.76,1.01,4.92.46,9.52,2.66,13.16,5.95.67.61,1.53.99,2.43,1.09.11-.01.21-.03.31-.03,3.4,3.96,4.84,9.61,5.71,14.66,1.19,6.89.35,17.43,9.06,19.68,3.95,1.02,7.81-.57,4.46,5.35Z"/>
    <path class="cls-25" d="M323.82,179.06c.24-.17.46-.34.69-.49-1.21,1.07-1.52,1.32-2.79,2.56l-.22.22c.62-.69,1.09-1.29,1.88-1.94.07-.06.14-.12.22-.17.07-.07.15-.12.23-.18Z"/>
    <path class="cls-25" d="M328.11,225.61v.12c-.05-.01-.1-.04-.15-.08.05-.01.1-.03.15-.04Z"/>
    <path class="cls-25" d="M332.3,176.7c-3.03-.26-5.05.17-7.79,1.87.12-.08.23-.16.35-.23.36-.24.71-.44,1.06-.62.09-.06.2-.11.3-.15.46-.23.93-.41,1.4-.55.1-.04.2-.06.3-.09.08-.02.16-.04.25-.06.12-.03.25-.06.38-.08,1.1-.21,2.3-.22,3.77-.09Z"/>
    <path class="cls-25" d="M343.41,186.99c-2.88-6.11-5.8-9.41-11.11-10.28,1.25.11,2.19.4,3.29.94,2.22.41,4.88,3.17,5.66,5.18.75,1.05,1.3,2.06,1.77,3.16.07.17.14.33.2.51.07.16.13.33.19.5Z"/>
    <path class="cls-64" d="M270.59,192.25c-3.66-2.48-7.02-2.7-8.62-7.63-2.81-8.66-.78-21.3,2.75-29.58.33-.78.45-2.2,1.63-1.89-2.73,6.77-2.92,15.57-2.35,22.84.84,10.73,5.5,10.86,12.67,16.54,4.9,3.89,8.95,8.85,9.93,15.27.14,3.34-.41,5.33-1.28,8.38-5.16,18.14-42.8,17.57-48.65-.37-.94-2.89.43-5.51,3.3-6.59-1.98,5.03-.99,8.61,3.3,11.78,12.24,9.04,45.46,5.63,38.5-15.66-1.9-5.8-6.31-9.78-11.18-13.09Z"/>
    <path class="cls-25" d="M285.37,249.07c-20.04,5.98-28.73,4.04-47.92,3.11,6.08-4.19,16.1-6.77,24.93-6.79,12.33-.02,22.99,3.68,22.99,3.68Z"/>
    <path class="cls-60" d="M207.16,281.7c.04-.59.12-1.18.22-1.71.09.54-.01,1.27-.22,1.71Z"/>
    <path class="cls-60" d="M268.65,302.8c-.14,1.29-.38,2.32-.59,3.4,0,.04-.01.09-.03.14-.13.72-.23,1.48-.27,2.35-24.01,10.24-44.31-4.64-59.14-23.26-1.32-.59-1.56-2.17-1.47-3.72.2-.44.31-1.17.22-1.71-.1-.26-.32-.41-.38-.56.85.07,1.63.36,1.88.47,20.08,9.16,40.99,16.54,64.98,11.11-.2.09-5.15,11.35-5.21,11.79Z"/>
    <g id="eyes">
      <g id="right_eye" data-name="right eye">
        <path class="cls-11" d="M292.12,195.64c-14.08,5.56-21.46-15.82-16.82-26,.31-.68.54-.89.94-1.42.86-1.14,1.43-1.47,2.36-2.35.09-.09.2-.2.31-.31.14-.14.3-.31.45-.46t0,0c.19-.14.39-.27.67-.46,5.28-2.69,9.65-2.35,14.58.77.46.29,1,.6,1.41.94.18.14,1.21,1.19,1.41,1.41,1.33,1.49,3.12,4.26,3.77,6.13,2.72,7.81-1.07,18.6-9.1,21.77Z"/>
        <path class="cls-50" d="M287.71,171.22c-.42-.1-.86-.17-1.33-.2h.05c.45.02.88.09,1.28.2Z"/>
        <path class="cls-29" d="M291.32,188.48c-.07.12-.04.17-.17.29,0,0-.22.28-.48.58-.44.54-1.08.81-1.67,1.17-1.8,1.06-3.71,1.11-6.16-.14-.14-.22-1.44-1.09-1.94-1.97,0,0-.01-.01-.01-.02-3.82-5-3.08-16.53,4.2-17.32.14-.01.28-.03.43-.04.12-.01.25-.01.38-.01.16,0,.32,0,.48.01.47.03.91.1,1.33.2.25.07.49.14.72.23.03.01.06.02.09.04,5.66,2.3,5.92,12.19,2.8,16.99Z"/>
        <path class="cls-50" d="M292.69,183.03l-1.37,4.41c-.21.69-.75,1.24-1.43,1.46l-2.45.82c-1.47.49-3.1.22-4.32-.75-.23-.18-.46-.37-.68-.54-.81-.67-1.46-1.51-1.92-2.45-.38-.78-.82-1.62-.93-2.48-.66-4.79.38-12.22,6.76-11.94,5.05.22,6.96,7.28,6.35,11.48Z"/>
        <path class="cls-34" d="M301.21,173.87c-.65-1.87-2.44-4.63-3.77-6.13-.2-.22-1.23-1.27-1.41-1.41-.41-.34-.95-.65-1.41-.94-4.92-3.12-9.3-3.47-14.58-.77-.28.2-.48.32-.67.46t0,0c-.15.12-.29.25-.45.46-.12.12-.22.22-.31.31-.93.88-1.5,1.22-2.36,2.35-.4.53-.63.74-.94,1.42-.78-1.01.46-3.92.93-4.96.62-1.38.8-1.73,1.48-2.66.58-.78.63-.78,1.82-1.8.17-.14.31-.37.47-.47,4.9-3.23,11.67-2.32,16.01,1.41l.25.25c.14.1.22.31.69.69,1.01.83,2.68,3.77,3.19,5.06.76,1.95,1.59,4.63,1.06,6.72Z"/>
        <path class="cls-46" d="M306.39,147.48c-.46-.2-.97-.57-1.49-1-2.05-1.7-4.33-3.11-6.76-4.21-.94-.43-1.89-.84-2.84-1.23-2.45-1.02-5.1-1.45-7.75-1.41-1.37.02-2.76,0-4.15-.05-1.11-.04-2.21.11-3.27.44-4.46,1.38-7.03-3.03-4.36-7.61.34-.07,1.43-2.27,1.88-2.82.17-.32.42-.67,1.04-1.5,4.96-5.3,15.67-5.47,22.04-.39,1.93,1.22,3.67,3.03,5.18,4.71,2.17,2.43,4.78,6.13,5.19,9.42.43,3.5-.34,7.52-4.71,5.66Z"/>
      </g>
      <g id="left_eye" data-name="left eye">
        <path class="cls-11" d="M235.52,190.38c-5.55,10.99-20.76,10.93-27.11.93-2.91-4.61-3.46-9.84-2.35-15.08.14-.76.43-1.9.94-2.82.14-.26.72-1.1.94-1.41,1.12-1.48,3.7-4.07,5.66-5.66.17-.16.31-.33.47-.47,5.56-2.68,11.11-2.6,16.49.47.72.33.85.46,1.41.94.65.42.73.48,1.09.83.64.48.77.6,1.27,1.06,4.29,4.78,4,15.69,1.19,21.23Z"/>
        <path class="cls-29" d="M228.2,173.87c.41.23,2,1.52,2.36,1.88,3.12,4.38,3.27,11.18-.47,15.08-.05.08-1.05,1-1.41,1.41-1.95,2.52-7.24,2.09-8.95-.47-.13-.1-.86-.84-.94-.94-6.35-6.21-.7-23.52,9.42-16.96Z"/>
        <path class="cls-67" d="M223.86,173.5c9.91-.99,10.27,17.87,2.19,19.19-11.09,1.81-11.96-18.21-2.19-19.19Z"/>
        <path class="cls-34" d="M234.32,169.16c-.3-.33-1.03-.59-1.41-.94-.33-.28-.8-.84-.94-.94-.46-.32-.93-.67-1.41-.94-5.65-2.52-10.71-2.46-16.49-.47l-.47.47c-1.94,1.81-4.09,3.48-5.66,5.66-.17.43-.3.43-.94,1.41-.6,1.17-.67,1.58-.94,2.82-1.27-2.7.46-7.03,1.88-9.42,1.27-2.14,2.73-3.32,4.71-4.71.8-.56,3.03-2.08,3.77-2.35,2.76-1.62,7.69-1.61,10.36,0,.42.16.6.22,1.12.66.12.09.72.62.76.75,3.06,1.33,5.38,4.66,5.66,8.01Z"/>
        <path class="cls-46" d="M227.72,127.22c-.65-.64-2.39-.89-3.49-.91-.93-.02-1.63.08-2.55.06-3.24-.05-7.32.68-9.97,1.79-1.91.8-4.91,2.92-6.6,4.24-3.42,2.7-6.68,6.37-8.48,10.37-3.85,8.51-1.54,16.5,6.6,7.07,1.8-1.29,3.42-2.83,5.22-3.97.83-.53,4.59-2.2,6.01-3.1.5-.31,1.05-.5,1.63-.62,1.06-.21,2.09-.6,3.16-.8.61-.07.82-.1,1.46-.19.22-.04.6-.2,1.38-.28,3.6.18,7.28.35,10.83,0,1.26-.11,1.58-.66,2.1-1.43,2.64-3.9-3.74-10.96-7.29-12.24Z"/>
      </g>
    </g>
  </g>
  <g id="scroll">
    <path class="cls-70" d="M385.53,517.86c12.24.52,23.63,1.6,36.06,1.43,3.26-.04,6.58-.78,10.11-.49l-.76,1.3c-4.78,1.89-8.28,5.61-10.91,9.94l-1.99,1.48.14,1.67c-3.25,5.7-4.67,12.17-4.93,18.67-.82.6-.95,1.68-.39,3.22,1.25.91,1.73,4.83.94,6.13.55.79.49,1.23-.49,1.1-1.23-.16-2.2-4.12-2.26-5.18-13.5-5.08-27.15-10.14-41.08-13.82l-.92-.95c2.16-8.4,1.99-16.31,1.18-24.75l.7-.22c.82-.06,1.35-.33,1.61-.82l11.23.96c.71-.34,1.3-.23,1.76.33Z"/>
    <path class="cls-57" d="M418.03,531.52c.37,1,1.05-.73,1.64-.79.39-.04,4.13,1.06,5.25,1.2,3.72.46,6.28-.89,8.86,2.92,3.53,5.22.63,15.69-4.59,18.91-5.87,3.62-10.53.32-16.34-1.5-.02.94,0,1.89,0,2.83-.81-1.07-.55-3.18-.47-4.47.49-7.39,1.96-12.74,5.65-19.09Z"/>
    <path class="cls-21" d="M427.79,536.81c8.31-1.9,3.92,16.25-2.41,15.44-5.21-.67-1.57-11.02.25-13.83.51-.79,1.23-1.4,2.16-1.61Z"/>
    <path class="cls-6" d="M418.03,567.33c-2.04-1.09-4.8-3.84-4.24-6.13-.85-2.15-.96-3.84-.94-6.13-.74-2.44-.4-3.6,1.03-3.49,6.26,2.57,13.18,5.35,17.74-1.62,4.67-7.14,4.38-18.85-6.81-17.11l-4.71-1.11c-1.63,1.2-2.31,1.12-2.06-.23,3.47-5.97,6.93-10.31,13.66-12.72,10.48.86,12.36,12.41,11.8,20.99-.76,11.57-9.58,32.17-24.08,28.27-.65-.18-1.04-.61-1.37-.72Z"/>
    <path class="cls-54" d="M369.04,542.36c.92-.45,1.02.45,1.07-1.97l1.75-4.62c.43,2.68-.58,4.66-1.41,7.06,14.31,2.5,27.41,9.17,41.14,13.63l1.76,5.22c.19-.07.4-.48.44-.47.41.07,3.31,5.43,4.24,6.13-15.25-5.1-31.39-12.23-46.63-17.91-.92,1.1-2.53.08-3.52-.76-2.28-1.92-2.25-3.67-.25-5.37.18-.13.34-.41.47-.47.3-.65.61-.81.94-.47Z"/>
    <path class="cls-20" d="M368.1,542.83c2.94-9.04,1.85-18.53.95-27.8l3.29,1.42c.14.88-1.14.18-1.41.94-.64,1.76.92,7.43.94,9.66.01,1.26-.34,4.71-.53,6.07-.42,3.05-1.61,6.23-2.3,9.25-.32.15-.63.32-.94.47Z"/>
  </g>
  <g id="book">
    <path class="cls-1" d="M205.59,474.01c.04.14-.02.31,0,.47.14,1.78-1.06,14.44-1.69,14.86-.19.13-.42.18-.67.22-.45-.01-.25-6.53-.21-1.22.12,16.72-4.04,33.19-6.38,49.75-.4,3.38-.71,6.62-1.44,10.13.03,2.14-.68,4.19-1.96,4.5-2.29.54-2.38,1.17-5.43.16-.49-.16-2.81.04-3.17.41-.03.03-.06.05-.09.06-1.86.66-5.01,1.46-6.74,1.23h-.47c.03-.12.01-.34,0-.47l.94-8.95,2.83-20.26c.59-5.65.77-9.79,1.73-15.37.01-.08.48-2.76.49-2.84.45-5.15,1.24-9.29,2.18-14.4.08-.43.16-3.39.46-4.23l.17-.61c.49-2.95.65-4.73,1.01-7.44.17-1.24,1.02-2.28,2.2-2.67,1.55-.52,4.05-1.22,7.53-1.84.29-.05.57-.16.84-.28,2.1-.94,5.68-1.04,7.87-1.21Z"/>
    <path class="cls-53" d="M206.09,476.1c-.97,16.06-4.84,35.07-7.1,51.18-.57,4.11-1.9,21.23-3.29,23.56-.56.33-.95.52-.95-.2.48-4.26,1.22-8.44,1.89-12.52.35-3.7,1.16-7.15,1.73-10.84,1.8-12.37,2.94-25.03,4.87-37.7l2.35-15.08c.04.26.56.6.5,1.6Z"/>
    <path class="cls-32" d="M159.86,455.86c.23.32-1.88,3.28-1.73,3.63.87,2.08-5.79,33.94-9.32,38.08-.31.37-3.51,2.71-3.74,2.73-1.67.14-7.62-2.67-9.12-3.35,1.72-.62,8.31-2.47,9.34-4.08.46-.71.68-1.35.89-2.17,1.89-7.6,2.54-17.55,4.05-25.64.52-2.76,1.67-5.67,2.13-8,.61-1.35,7.11-1.35,7.5-1.21Z"/>
    <path class="cls-63" d="M212.66,472.62c-.02,1.87-.77,3.96-.94,5.66-.52,5.31-.71,10.74-1.41,16.02-.42,3.15-7.53,53.31-8.95,59.37.43.8-1.35,1.73-1.89.94-1.34.28-6.71,1.02-7.53,0-.24-.3.05-1.65.19-2.05.28-.8,2.24-1.61,3.58-1.72.87-7.92,1.97-15.77,3.29-23.56,2.59-17.64,4.79-35.23,6.6-52.78-.42-.09-.41-.25,0-.47-5.17.99-10.78,2.26-16.84,3.79-.98.41-1.64,1.35-2.01,2.8-.71,9.14-2.04,18.34-3.77,27.33-.43,5.67-1.06,11.33-1.88,16.97l-2.83,20.26-.53,5.32c.43.09.48,4.34.06,4.58-.04,3.02-5.14,3.97-7.54,2.66l-.11.23-.83.22c-4.77-1.64-9.91-3.95-14.6-5-.59,1.21-1.98.92-1.88-.47-2.56-.91-8.17-2.56-9.62-4.75-.55-.83-.88-2.28-1.22-3.26.09-.85.41-1.01.94-.47,4.97,1.1,7.55,2.83,11.77-.94,1.7-1.12,1.23-4.15.87-5.97l-2.67-8.23c-.71-7.21-2.62-13.48-5.74-18.78-.19-.33-.33-.7-.47-.94-1.03-1.48-2.38-2.64-3.77-3.77-.52-.4-1.36-1.04-1.89-1.41l-5.05-2.93c-.07-1.51-.15-3.26-.12-4.61.49-.38,10.05,3.7,12.8-.5,3.23-7.78,7.46-24.95,7.46-24.95.7-4.18,1.27-8.5,1.41-12.72.25.09,1.35.33,1.88.47.61.17,1.22.31,1.85.43,3.11.65,6.36.91,9.46,1.45,1.33.23,9.57,1.33,9.57,1.33,9.03,1.14,18.5,2.48,27.17,4.8,3.36.96,5.22,1.92,5.18,5.66Z"/>
  </g>
  <g id="medal">
    <path class="cls-23" d="M272.95,390.63c6.26,1.94,8.76,4.62,12.72,9.42,4.97,6.98,5.11,19.14.47,26.39.65,2.59-3,5.57-5.08,7.07s-4.44,2.57-6.91,3.22-7.07,1.63-8.73-.39c-.52-.8-.2-1.2.69-1.37l5.7-.33c-9.28.37-17.72-5.01-21.22-13.63.33,1.18.1,1.99-1.19,1.66-.28-.09-.56-.2-.79-.36-2.46-1.69-1.06-19.89,2.68-22.26,1.87-3.07,6.57-7.63,9.89-8.95,1.85-2.88,9.71-3.2,11.78-.47Z"/>
    <path class="cls-75" d="M268.14,400.18c10.11-.88,16.47,13.15,10.93,20.84-4.14,5.74-10.1,6.34-15.55,1.89-8.21-6.7-7.13-21.71,4.62-22.74Z"/>
    <path class="cls-80" d="M280.02,432.1c-3.77,3.62-8.58,3.64-13.46,3.74-.61.01-1.08.49-1.14.49-6.42.1-13.95-8.02-16.01-13.66.75-.7.21-1.4.06-2.16-1.09-5.34-1.68-8.6.05-13.99.24-.74.51-2.48,1.3-2.7-5.37,19.18,9.9,35.11,29.21,28.28Z"/>
    <path class="cls-9" d="M289.82,424.19c-.14,1.74-4.11,9.7-5.32,11.22-8.24,10.44-28.57,8.23-34.64-3.54-3.11-6.01-3.49-17.31-2.21-23.9.47-2.43,1.32-4.79,2.43-6.99.23-.45.51-1.56,1.19-.93-3.9,6.39-4.45,15.63-1.88,22.62,2.06,5.64,9.59,13.77,16.01,13.66,8.29,1.12,16.63-2.52,20.73-9.9.88-1.25,1.94-3.77,2.28-5.4,1.14.04,1.5,2,1.41,3.15Z"/>
    <path class="cls-14" d="M283.63,363.08c-3.49,9.49-6.58,18.32-10.68,27.55-3.98-1.24-7.87-1.08-11.78.47-8.51-8.6-15.96-18.28-24.49-26.86,2.51-1.15,4.71.16,6.87.44,3.34.43,7.06.33,10.3,1.48,1.63.58,2.07,1.86,3.41,2.72,8.71,5.59,16.45,1.3,23.11-5l3.27-.8Z"/>
  </g>
  <path class="cls-65" d="M345.02,201.2c.09,4.6-2.43,10.46-5.18,14.14-2.66,4.19-6.06,6.22-9.42,9.43-.22.51-1.13.93-1.9,1.03-.14.02-.28,0-.41-.06v-.12s-.04-1.01-.04-1.01c-.03-5.1-.24-9.88-1.61-14.86-1.05-4.84.92-8.39,3.71-12.12,2.14-5.11-3.69-5.08-5.79-1.21l-2.66-15.28c1.27-1.25,1.58-1.49,2.79-2.56,2.74-1.7,4.76-2.13,7.79-1.87,5.31.87,8.23,4.17,11.11,10.28,0,.02.02.04.03.07.05.16.11.32.17.49.07.2.14.41.2.62.01.04.02.09.04.14.09.26.17.52.23.79.05.17.09.33.13.5.07.24.12.49.17.73.04.16.08.32.1.49.06.25.11.51.15.77.03.11.04.22.06.33.06.32.11.63.14.95.01.05.02.11.02.17.05.35.09.7.12,1.06.04.36.07.73.09,1.1.02.27.04.54.04.81.01.2.02.39.03.59.06,1.56,0,3.12-.12,4.62Z"/>
  <path class="cls-25" d="M207.16,281.7s-.02.06-.04.08c-.01,0-.03,0-.04,0-.03,0-.05,0-.08,0-.24-.01-1.59,0-2.08.16-1.8.57-14.76-.64-14.76-.64,0,0-.02,0-.03,0-6.77-1.73-11.07-6.3-14.34-12.25-2.45,6.57-4.88,8.07-11.75,6.1-9.08-2.61-14.42-11.85-15.82-20.7l-2.57,4.25c-1.07,1.56-1.18,6.37-2.24,7.42-1.59,1.59-6.16-.19-7.92-1.04-10.04-4.9-14.47-18.46-9.87-28.52-8.76,2.38-18.16,2.1-25.87-3.1-.89-.59-1.27-1.48-1.85-2.02,9.76,3.4,17.03-6.33,20.65-14.51,4.95-12.39,11.7-23.84,23.71-30.79,1.16-.71.85-1.43.12-2.41-2.64-2.07-5.73-5.54-5.03-8.9,12.42,1.61,22.82-6.99,22.95-19.45,2.64.33,5.04-.34,7.46-1.35,1.17-.49,2.68-1.74,4-2.95.97-.89,1.95-1.77,2.95-2.62.08-.07.15-.13.23-.2.06.03.11.09.17.18l.94,3.77c.81,4.54.83,5.21,1.25,9.47.02.22.28,5.2.3,5.42.07.93.13,1.47.25,2.01.25,1.1.42,2.22.46,3.34,0,.18.01.35.02.54v.1c.19,6.56-.74,8.96-.35,14.92.25,1.04.3,3.18-.24,6.4-.1.83-.07,1.12-.1,1.85,0,1.01.12,1.89.24,3.39.01.59.06,2.11-.08,3.16-.34,1.02-.28,1.24-.44,1.9l-.3,1.31c-1.07.44-2.12-.26-3.01-1.94-2.08-3.49-7.18-8.76-9.52-11.09-.56-.56-1.19-1.06-1.86-1.48-.73-.46-1.52-.81-2.35-1.04-1.26-.34-2.62-.5-4.03-.49-5.51-.06-11.19,2.71-13.8,7.47-.32.43-.98,1.69-1.6,2.8-.01.04-.04.07-.06.1-.24.4-.49.83-.8,1.38-.01.01-.02.04-.04.05-.16.23-.28.37-.34.38-4.11,8.83-1.87,19.77,3.3,27.8,2.51,3.07,6.46,7.01,9.89,8.96.46.34.98.66,1.52.96.21.12.41.24.63.35.2.11.4.21.61.31.16.08.33.15.49.23,4.82,2.2,11.28,3,15.12-.45,1.75-1.75,3.5-3.29,5.15-5.16.02,0,.04,0,.07-.01.1.06.18.09.25.12l.28.22c.72,3.81,5.94,17.39,7.44,19.44,4.16,6.55,8.86,12.91,14.59,18.15.98.89,7.41,6.2,8.02,6.36.04.07.08.13.12.18.04.04.24.29.26.38.09.54-.01,1.27-.22,1.71Z"/>
  <path class="cls-47" d="M406.25,134.04c-5.59,6.65-13.44,9.83-22.12,9.67l5.42,5.18c7.07,8.52,10.62,19.76,9.12,30.81-.52,3.87-3.56,14.79-8.63,13.96-1.43-.23-4-5.77-5.61-7.38-4.27-4.27-7.1-6.77-12.93-7.04-1.33-.06-2.53-.26-3.71-.26-.25,0-.51,0-.77.04-.1,0-.2.01-.31.03-.91-.1-1.76-.49-2.43-1.09-3.64-3.29-8.23-5.5-13.16-5.95-.57-.25-.75-.59-.76-1.01-.01-.56.33-1.08.81-1.37,4.77-2.87,8.71-5.86,11.24-10.99.77-1.45.86-1.98.77-1.82-2.45.9-3.9,1.62-7.05,1.17,0,0-1.35-.19-1.58-.22-8.3-1.31-14.79-7.76-17.72-15.46-1.54-4.3-3.32-8.53-5.61-12.34-3.35-5.55-8.41-9.83-14.35-12.37-.14-.07-.29-.13-.44-.19-.51-.22-1.02-.41-1.54-.59l-.05-.02c-.95-.37-2.85-1.71-2.85-1.71-4.15-2.7-7.95-5.82-11.47-9.26-2.44-2.38-4.49-5.14-6-8.2-.19-.38-.35-.73-.47-1.02-.08-.2-.38-.17-.4.05-.17,1.35-.11,4.79-.22,6.84-.13,2.46-.33,4.25-1.17,6.62-.08.22-1.81,3.01-2.33,3.66-2.17,2.74-6.57,5.55-8.94,1.65l-.04-.11-1.55-3.88-.82-2.06c-3.16-6.97-4.34-8.18-10.47-12.58-.07-.05-.16.02-.12.09,4.88,8.22,5.07,18.94-.2,27.01-1.35,1.76-1.49,1.97-3.29,3.77-1.71,1.27-2.61,1.93-3.85,1.79-.9-.11-1.65-.62-2.15-1.33-.26-.38-.45-.83-.54-1.3-.01-.04-.02-.09-.03-.13-.3-1.9-.25-3.99.17-6.25.06-1.77-.38-3.42-1.02-5.02-.49-1.25-1.47-2.24-2.71-2.8-.61-.28-1.3-.64-1.87-1.07-.7-.52-1.45-.96-2.22-1.37-5.84-3.11-10.63-6.58-14.01-12.61-.01-.03-.05-.03-.07,0-.8,1.86-1.4,3.8-1.7,5.77-.97,6.18.55,9.31,9.73,13.27,2.59.88,1.97,4.23-1.11,5.33-.5.18-5.09,1.06-7.47,1.06-.33,0-.61-.01-.83-.05-2.2-.01-4.39-.24-6.55-.68-.59-.12-1.1-.21-1.56-.29-.8-.14-1.47-.24-2.19-.38-.02,0-.05-.01-.07-.01-.91-.19-1.9-.46-3.35-.97-2.69-.96-5.11-2.48-7.31-4.3h0c-1.32-1.09-2.56-2.28-3.74-3.51-1.22-1.27-2.43-2.61-3.01-3.51-.23-.39-.46-.77-.7-1.15-.95-1.54-1.94-2.99-2.97-4.37-.04-.05-.11-.03-.12.03-.67,3.79-1.9,7.23-3.6,10.62l-1.27,2.32c-3.87,5.42-8.39,10.02-14.42,12.34.22,6.03-2.96,13.17-7.07,17.43,0,0-.26.35-.96.91-.33.26-.64.52-.96.8-.08.07-.15.13-.23.2-1,.85-1.98,1.73-2.95,2.62-1.32,1.21-2.82,2.45-4,2.95-2.42,1.01-4.82,1.68-7.46,1.35-.13,12.46-10.53,21.06-22.95,19.45-.7,3.36,2.39,6.83,5.03,8.9.73.98,1.04,1.7-.12,2.41-12.01,6.95-18.76,18.4-23.71,30.79-3.61,8.18-10.88,17.91-20.65,14.51-.07-.02-.12-.04-.19-.07-2.7-2.4-5.42-4.78-6.01-8.83-1.19-8.15,5.89-2.48,9.31-5.07,2.09-1.59,1.37-6.89,1.41-9.41.1-5.71-.14-9.29,2-14.98.85-2.25,2.33-4.24,3.18-6.47-5.71,1.67-10.37,3.29-15.41,6.49-2.53,1.61-5.26,5.51-8.6,3.16-2.14-1.51-4-8.02-4.25-10.59.28-2.98.28-5.98,0-8.95,1.33-13.4,10.22-21.46,20.59-28.16.34-.22,1.39-.38.62-1.05-.23-.2-4.8-.98-5.91-1.4-10.08-3.74-17.3-14.15-18.11-24.77-.26-3.32-.33-12.62,3.43-14.02,2.47-.91,3.03,1.99,4.11,3.19,2.74,3.09,5.35,4.53,9.42,5.42,2.5.28,5.04.44,7.53,0,.27-.1,1.41-.61,1.41-.7-7.61-11.94-5.05-26.05,3.11-36.95,8.8-11.77,23.28-17.68,37.88-15.6-5.97-7.32-8.48-19.73-4.03-28.29,1.49-2.86,5.63-7.09,8.99-5.18,3.34,1.89-.1,9.26,3.86,12.28,4,3.05,6.52-2.61,9.07-4.96,4.21-3.9,11.29-7.75,16.96-8.71.71-.12,1.61.08,2.35,0,.12-.03.3-.43.48-.47,1.27-.29,6.45-.14,8,0,7.88.72,14.9,5,21.2,9.42.55-8.73-3.92-18.93-12.61-22.02-2.49-.88-6.94-.75-7.92-3.87-1.76-5.63,7.68-8.6,11.82-8.97,22.51-2,37.41,11.79,44.28,32.04,3.74-11.59,11.35-24.87,22.36-30.88,6.2-3.37,16.7-3.22,23.82-2.6,4.19.37,13.32,3.74,14.24,8.38.94,4.74-3.82,4.19-6.86,5.18-8.83,2.86-13.22,14.18-15.65,22.27,4.81-2.11,9.75-4.26,15.08-4.71,2.03.33,4.09.33,6.12,0,10.86.94,28.51,13.45,36.94,2.79,2.54-3.22,2.53-9.02,3.57-10.09,1.67-1.73,4.21-.38,5.29,1.32,5.13,8.1,1.07,24.18-5.29,30.96.4.3,6.32-1.3,7.54-1.4,3.13.28,6.29.29,9.42,0,15.61,1.27,30.91,14.14,32.5,30.15-.33,1.88-.31,3.77,0,5.66-1.04,9.44-6.03,3.16-10.12,1.41-5.4-2.3-12.75-1.87-18.15.24,13.98,4.34,21.86,26.88,38.64,17.91,2.19-1.17,6.73-6.13,8.26-1.68,2.48,7.29-2.55,19.52-7.34,25.22Z"/>
  <path class="cls-47" d="M318.38,234.52c-2.99,6.04-9.48,10.55-15.76,12.74-2.53.88-11.18,2.16-16.41,2.48-11.35-.12-21.61-6.79-24.14-9.16-2.77,2.97-12.63,7.79-15.71,9.54,0,0-5.58,3.35-29.73,2.77-2.68-.24-4.07-.67-6.13-1.17-6.92-1.72-14.14-6.03-17.42-12.49-2.44-2.16-5.06-10.11-3.3-12.72,1.67-2.46,5.16.92,7.42,1.3,7.11,1.2,12.19-7.35,18.5-10.25,6.65-3.06,13.3-2.2,20.25-.94h.47l1.22.61c9.2,18.39,50.34,15.57,49.16-8.93,0,0,5.01,5.25,24.04,12.57.7.4,1.45.48,2.23.38,2.87-.38,6.07-3.29,7.66-2.51,3.27,1.59.51,13.71-2.35,15.8Z"/>
</svg>