<?xml version="1.0" encoding="UTF-8"?>
<svg id="Layer_2" data-name="Layer 2" xmlns="http://www.w3.org/2000/svg" viewBox="0 0 663.74 358.91">
  <defs>
    <style>
      .cls-1 {
        fill: #754c24;
      }
    </style>
  </defs>
  <g id="Layer_4" data-name="Layer 4">
    <path class="cls-1" d="M591.59,123.2C535.99,54.74,453.74,8.78,360.64,1.13c-9.11-.75-18.33-1.13-27.64-1.13-10.53,0-20.94.49-31.22,1.45-94.04,8.74-176.74,56.59-231.66,127.12C26.17,185,0,255.95,0,333c0,8.87.35,17.5,1.03,25.91,220.01-2.57,436.82-24.5,662.71-64.64-7.46-64.42-33.31-123.24-72.15-171.07ZM224.49,238.6c-31.94,0-57.83-44.42-57.83-76.36s25.89-86.64,57.83-86.64,57.83,54.7,57.83,86.64-25.89,76.36-57.83,76.36ZM429.16,223.93c-31.94,0-57.83-44.42-57.83-76.36s25.89-86.64,57.83-86.64,57.83,54.7,57.83,86.64-25.89,76.36-57.83,76.36Z"/>
  </g>
</svg>