<?xml version="1.0" encoding="UTF-8"?>
<svg id="Layer_2" data-name="Layer 2" xmlns="http://www.w3.org/2000/svg" viewBox="0 0 520 735.3">
  <defs>
    <style>
      .cls-1 {
        fill: #ae4510;
      }

      .cls-2 {
        fill: #e98a2b;
      }

      .cls-3 {
        fill: #fa9254;
      }

      .cls-4 {
        fill: #8b3a1d;
      }

      .cls-5 {
        fill: #307d7b;
      }

      .cls-6 {
        fill: #b35014;
      }

      .cls-7 {
        fill: #ba5216;
      }

      .cls-8 {
        fill: #c75e1c;
      }

      .cls-9 {
        fill: #d25e34;
      }

      .cls-10 {
        fill: #f48b52;
      }

      .cls-11 {
        fill: #853c26;
      }

      .cls-12 {
        fill: #e87943;
      }

      .cls-13 {
        fill: #f58850;
      }

      .cls-14 {
        fill: #1f5353;
      }

      .cls-15 {
        fill: #fa9658;
      }

      .cls-16 {
        fill: #ecae4c;
      }

      .cls-17 {
        fill: #e7733c;
      }

      .cls-18 {
        fill: #205a5b;
      }

      .cls-19 {
        fill: #f6af45;
      }

      .cls-20 {
        fill: #feeed1;
      }

      .cls-21 {
        fill: #276160;
      }

      .cls-22 {
        fill: #2a6264;
      }

      .cls-23 {
        fill: #9d461f;
      }

      .cls-24 {
        fill: #fc9c5f;
      }

      .cls-25 {
        fill: #f3a53d;
      }

      .cls-26 {
        fill: #ffb273;
      }

      .cls-27 {
        fill: #ffa769;
      }

      .cls-28 {
        fill: #e87a41;
      }

      .cls-29 {
        fill: #2c4568;
      }

      .cls-30 {
        fill: #ffc15a;
      }

      .cls-31 {
        fill: #a74e28;
      }

      .cls-32 {
        fill: #6e2c20;
      }

      .cls-33 {
        fill: #f39f39;
      }

      .cls-34 {
        fill: #c44f30;
      }

      .cls-35 {
        fill: #ad4815;
      }

      .cls-36 {
        fill: #fb9a5c;
      }

      .cls-37 {
        fill: #fde9cc;
      }

      .cls-38 {
        fill: #ffc25b;
      }

      .cls-39 {
        fill: #ffad69;
      }

      .cls-40 {
        fill: #23272f;
      }

      .cls-41 {
        fill: #feb270;
      }

      .cls-42 {
        fill: #ffb274;
      }

      .cls-43 {
        fill: #f48448;
      }

      .cls-44 {
        fill: #1e5152;
      }

      .cls-45 {
        fill: #dc6e1f;
      }

      .cls-46 {
        fill: #cc6a18;
      }

      .cls-47 {
        fill: #cb5515;
      }

      .cls-48 {
        fill: #e68d25;
      }

      .cls-49 {
        fill: #f79053;
      }
    </style>
  </defs>
  <path class="cls-31" d="M249.87,713.75c3.04,9.44-100.89,19.88-103.25,7.38-2.82-14.96,44.82-37.11,44.82-37.11,0,0,1.07-16.5,1.21-26.77,1.98,3.91,44.99,7.63,57.27,2.1.04,0,.06-.02.1-.05.29-.14.57-.28.83-.43-.47,35.61-.99,40.48-.99,54.87Z"/>
  <path class="cls-31" d="M407.34,726.87c-5.93,17.18-84.7,5.31-87.29-10.96-4.87-20.19-8.36-32.8-12.3-53.3,8.13,4.65,34.57-.68,48.07-5.71,2.72-1.01,4.91-2.02,6.32-2.92,0,0,.02,0,.03-.02.91-.59,1.5-1.14,1.68-1.62.05.16.11.32.16.48,5.23,15.21,8.05,31.16,8.05,31.16,0,0,40.24,28.51,35.27,42.9Z"/>
  <path class="cls-48" d="M255.72,653.86c-1.09,5.02-4,4.64-4.86,5.02-.27.15-.55.29-.83.43-.04.03-.06.05-.1.05-12.28,5.53-55.29,1.82-57.27-2.1-2.91-1.54-3.27-1.77-4.92-3.85-1.62-1.3-1.77-18.6,0-23.88,1.71-5.06,6.85-7.4,7.27-7.59.02,0,.03,0,.03,0,0,0,0,.15-.03.46v.05c-.03.66-.05,1.97.02,4.14,0,.03,0,.05.02.05,0,.28.2.54.47.63,1.46.53,2.9,1,4.35,1.43.23.07.47.15.69.21,19.44,5.34,44.93,2.27,48.63-1.05,0-.05.02-.1.02-.16.22-1.95-.44-4.28-.02-5.02.05-.07.14-.09.26-.05,1.21.33,5.89,5.07,6.27,7.96.44,3.19,1.1,18.25,0,23.27Z"/>
  <path class="cls-48" d="M368.29,647.74c-.43,1.96-2.21,3.69-4.27,5.07-.05-.16-.11-.32-.16-.48-.18.48-.77,1.03-1.68,1.62,0,0-.02,0-.03.02-2.69,1.51-5.33,2.44-5.76,2.63-.18.1-.37.2-.57.29-13.51,5.04-39.94,10.37-48.07,5.71-2.91-1.54-5.2-1.97-6.75-7.21-2.25-10.28-3.92-15.38-2.94-22.22.68-4.68,2.88-5.96,3.53-6.23.12-.05.18-.07.18-.07,0,0,.09-.31.93,3.57,14.52,9.13,46.77-.46,52.02-4.86.6-2.51-.47-4.44,0-5.17.83-1.29,7.8,2.66,8.97,5.67,1.52,3.91,5.69,16.65,4.6,21.67Z"/>
  <path class="cls-42" d="M249.92,586.35c0,.22,0,.52,0,.9h0c0,2.18-.03,6.8-.09,12.18-.03,3.08-.06,6.42-.11,9.69-.07,5.06-.16,9.97-.26,13.51-.13-.05-.22-.03-.26.05-.42.74.24,3.07.02,5.02,0,.05,0,.11-.02.16-3.7,3.32-29.19,6.39-48.63,1.05-.23-.06-.47-.14-.69-.21-1.45-.43-2.89-.9-4.35-1.43-.26-.09-.46-.35-.47-.63,0-.02,0-.03,0-.05,0-.89-.03-2.8-.03-4.15v-.05c.02-.31.03-.46.03-.46,0,0,0,0-.03,0,0-5.04.08-12.6.18-20.08.06-5.07.15-10.11.24-14.28.1-4.8.21-8.47.32-9.77.03-.32.05-.5.07-.52,5.08,2.02,12.78,3.84,18.88,4.79.05,0,.09.02.14.02.83.13,1.63.24,2.39.34,2.12.26,3.91.37,5.16.3.68-.04,1.21-.13,1.52-.28.67-.33,1.12-.73,1.43-1.16,0,0,0,0,0-.02.31-.42.47-.87.55-1.26h0c.16-.72.03-1.27.03-1.27.12,0,.24,0,.35,0l.76.03,3.55.12s.05,3.35.47,4.62c.19.56,2.62.99,5.83,1.4,0,0,0,0,0,0,3.6.45,8.19.83,11.72,1.27.46.05.89.12,1.3.17Z"/>
  <path class="cls-10" d="M249.92,586.35c0,.22,0,.52,0,.9h0c0,2.18-.03,6.8-.09,12.18-.79.04-1.58.05-2.38.07-12.26.2-25.94-2.26-36.83-5.63-6.23-1.92-11.54-4.13-15.18-6.31.1-4.8.21-8.47.32-9.77.03-.32.05-.5.07-.52,5.08,2.02,12.78,3.84,18.88,4.79.05,0,.09.02.14.02.83.13,1.63.24,2.39.34,2.12.26,3.91.37,5.16.3.68-.04,1.21-.13,1.52-.28.67-.33,1.12-.73,1.43-1.16,0,0,0,0,0-.02.31-.42.47-.87.55-1.26h0c.16-.72.03-1.27.03-1.27.12,0,.24,0,.35,0l.76.03,3.55.12s.05,3.35.47,4.62c.19.56,2.62.99,5.83,1.4,0,0,0,0,0,0,3.6.45,8.19.83,11.72,1.27.46.05.89.12,1.3.17Z"/>
  <path class="cls-42" d="M354.72,625.58c-5.25,4.41-37.5,13.99-52.02,4.86-.84-3.88-.93-3.57-.93-3.57,0,0-.06.02-.18.07-1.15-4.14-2.87-11.16-4.53-18.21-.56-2.33-1.1-4.65-1.62-6.88h0c-1.4-6.01-2.6-11.31-3.18-13.88-.08-.34-.15-.63-.2-.87.48-.05,1.1-.12,1.83-.2,6.56-.76,22.6-2.97,36.74-7.35,4.67-1.45,9.14-3.13,13-5.08.02.05.05.12.08.24.38,1.27,1.76,6.84,3.41,13.68,1.01,4.21,2.14,8.89,3.19,13.34,2.35,9.88,4.42,18.66,4.42,18.66-.47.73.6,2.66,0,5.17Z"/>
  <path class="cls-10" d="M347.11,588.4h0c-3.67,2.03-6.99,3.73-11.72,5.35-7.43,2.55-18.3,4.9-39.33,8.02-.2.03-.4.06-.6.09h0c-1.4-6.01-2.6-11.31-3.18-13.88-.08-.34-.15-.63-.2-.87.48-.05,1.1-.12,1.83-.2,6.56-.76,22.6-2.97,36.74-7.35,4.67-1.45,9.14-3.13,13-5.08.02.05.05.12.08.24.38,1.27,1.76,6.84,3.41,13.68Z"/>
  <path class="cls-45" d="M365.69,559.68c-.64,3.07-8.72,9.19-21.99,15.04-3.91,1.72-8.28,3.43-13.04,5.02-10.5,3.51-22.92,6.51-36.65,8.05-.57.07-1.16.14-1.75.19-13.13,1.35-27.43,1.37-42.35-.72h0c-.47-.06-.94-.14-1.41-.21-3.82-.57-7.69-1.28-11.6-2.14h0c-1.93-.42-3.88-.89-5.83-1.4-.18-1.38-.26-3.19-.24-5.37.19-19.15,7.81-66.16,11.83-86.26v-.02c.66-3.29,1.21-5.86,1.63-7.46.22-.88.4-1.47.54-1.72.49-.1,1.68-.11,3.42-.09.27,0,.57.02.87.02.05,0,.08,0,.13,0,.26,0,.52,0,.79.02.21,0,.42,0,.64.02.28,0,.57,0,.87.02.7.02,1.46.05,2.24.06.37,0,.77.02,1.16.03,1.09.03,2.24.05,3.44.07.68.02,1.37.03,2.08.04.74.02,1.49.03,2.26.03h.05c.52,0,1.05,0,1.58,0,4.11.02,8.63-.03,13.37-.23.7-.02,1.41-.05,2.12-.09,3.31-.16,6.71-.4,10.11-.74.54-.05,1.08-.11,1.62-.17.39-.04.79-.08,1.2-.13.36-.05.73-.08,1.1-.13.43-.05.86-.11,1.29-.16,1.91-.25,3.81-.53,5.69-.86,2.56-.44,5.09-.95,7.56-1.54.88-.21,1.74-.43,2.6-.67.48-.13.96-.26,1.42-.4.67-.19,1.33-.39,1.98-.6,1.75-.56,3.45-1.16,5.08-1.83,2.06-.84,4.02-1.77,5.85-2.8.15-.07.28-.15.42-.23,1.14-.66,2.22-1.34,3.25-2.08.05.07.12.18.21.32.93,1.43,3.96,6.05,7.93,12.99h0c.15.25.28.49.42.73.44.78.89,1.59,1.36,2.42,1.72,3.09,3.56,6.54,5.46,10.3.38.76.77,1.51,1.15,2.29.05.12.11.24.17.36.22.46.44.9.67,1.36,2.22,4.56,4.46,9.51,6.62,14.74.22.52.43,1.05.65,1.58,1.5,3.7,2.94,7.53,4.29,11.46.2.56.39,1.12.57,1.69.38,1.13.76,2.27,1.11,3.42.18.57.36,1.15.54,1.72.36,1.16.69,2.31,1.03,3.48.33,1.17.66,2.35.97,3.53,0,0,0,.03.02.09h0s0,.05,0,.06c0,.03.02.06.03.09.03.11.06.26.11.44.67,2.52,1.26,5.06,1.8,7.63,0,0,0,.02,0,.03.61,2.88,1.14,5.79,1.58,8.71Z"/>
  <path class="cls-45" d="M239.59,491.59c0,.1-.02.2-.03.3-1.24,12.44-5.66,29.65-8.76,48.12-.08.51-.16,1.01-.25,1.51-2.5,15.56-3.28,30.11-4.9,37l.26.22c.12,0,.24,0,.35,0-.02.05-.03.1-.04.15-.1.39-.21.77-.34,1.1h0c-.16.48-.35.9-.55,1.27,0,0,0,0,0,.02-.38.71-.8,1.21-1.18,1.5-.59,0-1.19-.03-1.78-.05-1.71-.06-3.42-.18-5.13-.37-.81-.07-1.62-.16-2.42-.27-.05,0-.09,0-.14-.02-6.53-.85-12.99-2.38-18.95-4.27-17.07-5.38-30.21-13.62-30.21-16.69-.11-16.84,27.99-80.31,33.16-88.67,2.01,1.97,11.85,5.85,23.74,7.88,3.07.52,6.27.93,9.51,1.14,2.28.16,4.58.22,6.86.16l.85-.03c0,.09.03.18.03.27.09.68.15,1.38.18,2.12.11,2.26,0,4.81-.27,7.59Z"/>
  <path class="cls-23" d="M242.64,491.89c-4.02,20.09-11.64,67.11-11.83,86.26-.16.49-.24.75-.24.75l-4.31-.15c-.11,0-.23,0-.35,0l-.26-.22c1.62-6.89,2.4-21.44,4.9-37,.08-.5.16-1,.25-1.51,3.1-18.47,7.52-35.68,8.76-48.12,1.62.15,3.07,0,3.07,0h0Z"/>
  <path class="cls-11" d="M328.99,470.25c-1.05.68-2.14,1.33-3.24,1.95-2.01,1.14-4.11,2.19-6.28,3.16-1.63.67-3.33,1.27-5.08,1.83-.66.21-1.31.41-1.98.6-.47.14-.94.27-1.42.4-.86.24-1.72.46-2.6.67-2.46.59-4.99,1.1-7.56,1.54-1.88.33-3.78.61-5.69.86-.43.05-.86.11-1.29.16-.36.05-.73.08-1.1.13-.4.05-.79.09-1.2.14-.54.05-1.08.11-1.62.16-3.4.34-6.8.57-10.11.74-.71.04-1.41.07-2.12.09-4.74.2-9.26.25-13.37.23-.53,0-1.06,0-1.58,0h-.05c-.78,0-1.53-.02-2.26-.03-.71,0-1.41-.02-2.08-.04-1.2-.02-2.35-.05-3.44-.07-.39,0-.78-.02-1.16-.03-.78-.02-1.54-.05-2.24-.06-.3,0-.58-.02-.87-.02-.22,0-.43,0-.64-.02-.27,0-.54-.02-.79-.02-.05,0-.08,0-.13,0-.3,0-.59,0-.87-.02-1.74-.02-2.93,0-3.42.09l-2.17-.46h-.02l-2.97-.62-.84.03h0c-2.28.05-4.58,0-6.86-.16-3.24-.21-6.44-.62-9.51-1.14-11.88-2.04-21.73-5.91-23.74-7.88.04-7.32.7-11.65,4.02-21.72,3.13,2.48,10.79,4.28,20.82,5.49,2.74.33,5.66.62,8.71.87,2.07.16,4.2.31,6.37.43h0c2.79.16,5.66.3,8.58.4,5.41.19,10.99.27,16.55.26,9.64-.02,19.23-.33,27.81-.89,15.71-1.02,28.04-2.88,31.07-5.35,2.29,6.4,3.63,12,5.78,17.01.18.44.37.87.57,1.3Z"/>
  <path class="cls-8" d="M364.11,550.98c-7.68,3.71-27.09-8.98-32.26-23.37-5.17-14.38-6.19-23.12-1.83-35.72-.64-.43-1.44-2.49-2.17-5.18-1.25-4.58-2.32-11.01-2.12-14.37,0-.05,0-.09,0-.13,1.1-.62,2.19-1.27,3.24-1.95.05.07.12.18.21.32.93,1.43,3.96,6.05,7.93,12.99h0c.15.25.28.49.42.73.44.78.89,1.59,1.36,2.42,1.72,3.09,3.56,6.54,5.46,10.3.38.76.77,1.51,1.15,2.29.05.12.11.24.17.36.22.46.44.9.67,1.36,2.22,4.56,4.46,9.51,6.62,14.74.22.52.43,1.05.65,1.58,1.5,3.7,2.94,7.53,4.29,11.46.2.56.39,1.12.57,1.69.38,1.13.76,2.27,1.11,3.42.18.57.36,1.15.54,1.72.36,1.16.69,2.31,1.03,3.48.33,1.17.66,2.35.97,3.53,0,0,0,.03.02.09,0,.02,0,.04.02.06,0,.03.02.06.03.09.03.11.06.26.11.44.29,1.24.97,4.08,1.8,7.63,0,0,0,.02,0,.03Z"/>
  <path class="cls-39" d="M422.76,435.53c-.45,3.01-1.72,6.36-3.59,9.91-9.74,18.46-35.79,42.22-47.34,50.98-.18,1.12,4.46,6.94,4.89,13.33,0,0,0,0,0,.02.3.43,1.75,1.93,6.68-1.03.32-.05,9.1-.3,7.3,12.17-.63.88-2.14,2.82-3.7,5.12-2.01,2.99-4.11,6.62-4.42,9.36-1.24,2.23-2.78,3.36-5.88,5.38-3.09,2.04-6.44,2.07-14.56,1.95h0c-14.32-.32-24.21-16.75-27-22.63-2.45-5.19-6.52-16.36-.85-30.63.36-.91.76-1.83,1.2-2.77.48-1.03,1.02-2.08,1.62-3.14h0c5.75-9.97,24.02-35.34,31.19-45.23h0c.14-.2.27-.39.4-.57.57-.78,1.06-1.45,1.45-1.99.12-.16.23-.31.32-.44.02-.02.03-.04.05-.05.09-.13.17-.24.25-.34.1-.14.18-.26.26-.35.05-.06.08-.11.11-.16.05-.05.07-.09.08-.11t0-.02s-.02-.02-.03-.02c-.47-.3-8.03-5.17-8.5-6.27,0-.02,0-.04,0-.05,0-.03,0-.06.02-.11s.03-.09.05-.15c0,0,0,0,0,0,0-.03.03-.06.04-.1,0,0,0,0,0,0,.06-.16.17-.35.31-.57.05-.08.1-.17.16-.27.11-.17.23-.36.36-.55.04-.05.08-.11.12-.17.19-.27.4-.58.64-.9.07-.09.14-.18.2-.27.79-1.07,1.83-2.36,3.04-3.8.15-.17.3-.36.46-.53.46-.54.94-1.09,1.45-1.66.34-.37.68-.76,1.05-1.15.03-.03.05-.06.08-.09.21-.23.43-.46.65-.69.16-.18.34-.37.52-.55.42-.46.87-.91,1.31-1.37.23-.24.47-.47.71-.72l.67-.67c.05-.05.11-.11.16-.16.21-.21.42-.41.64-.62.21-.21.43-.42.65-.62.22-.21.44-.42.67-.63.17-.17.35-.33.52-.49.64-.59,1.29-1.18,1.95-1.76.11-.1.21-.19.32-.28.69-.61,1.4-1.21,2.12-1.81.17-.15.35-.28.52-.43,0,0,0,0,0,0,.18-.15.36-.29.54-.43.14-.12.27-.23.42-.34.26-.21.51-.41.77-.6.25-.2.49-.39.75-.57.35-.27.7-.54,1.06-.79.18-.14.37-.27.56-.41.49-.36.99-.7,1.49-1.04.22-.16.45-.31.67-.46.31-.21.62-.41.92-.6.2-.14.4-.26.61-.39.33-.21.66-.41.99-.61.38-.24.78-.47,1.17-.68.42-.25.84-.48,1.26-.71.34-.18.68-.36,1.02-.53.19-.1.39-.2.58-.29.49-.25.99-.47,1.47-.69.07-.04.14-.06.2-.09.27-.13.55-.24.82-.36.39.21,4.14,2.81,8.65,6.93,1.1.99,2.23,2.08,3.37,3.24,7.27,7.36,14.87,17.82,13.33,28.16Z"/>
  <path class="cls-43" d="M376.7,524.86c-.79,1.02-2.13,1.56-3.38,1.22-.77-.22-1.3-.68-1.65-1.25-.73-1.2-.34-2.77.74-3.69,4.84-4.07,4.32-11.4,4.32-11.4,0,0,0,0,0,.02.16.5,3.46,10.64-.04,15.09Z"/>
  <path class="cls-3" d="M406.06,404.12c-16.96,5.6-25.52,17.82-34.81,30.19,0,0-.02-.02-.03-.02-.47-.3-8.03-5.17-8.5-6.27,0-.02,0-.04,0-.05,0-.03,0-.06.02-.11s.03-.09.05-.15c.02-.04.03-.07.05-.11,0,0,0,0,0,0,.06-.16.17-.35.31-.57.05-.08.1-.17.16-.27.11-.17.23-.36.36-.55.04-.05.08-.11.12-.17.19-.27.4-.58.64-.9.07-.09.14-.18.2-.27.79-1.07,1.83-2.36,3.04-3.8.15-.17.3-.36.46-.53.46-.54.94-1.09,1.45-1.66.34-.37.68-.76,1.05-1.15.03-.03.05-.06.08-.09.21-.23.43-.46.65-.69.16-.18.34-.37.52-.55.42-.46.87-.91,1.31-1.37.23-.24.47-.47.71-.72l.67-.67c.05-.05.11-.11.16-.16.21-.21.42-.41.64-.62.21-.21.43-.42.65-.62.22-.21.44-.42.67-.63.17-.17.35-.33.52-.49.64-.59,1.29-1.18,1.95-1.76.11-.1.21-.19.32-.28.69-.61,1.4-1.21,2.12-1.81.17-.15.35-.28.52-.43,0,0,0,0,0,0,.18-.15.36-.29.54-.43.14-.12.27-.23.42-.34.26-.21.51-.41.77-.6.25-.2.49-.39.75-.57.35-.27.7-.54,1.06-.79.18-.14.37-.27.56-.41.49-.36.99-.7,1.49-1.04.22-.16.45-.31.67-.46.31-.21.62-.41.92-.6.2-.14.4-.26.61-.39.33-.21.66-.41.99-.61.38-.24.78-.47,1.17-.68.42-.25.84-.48,1.26-.71.34-.18.68-.36,1.02-.53.19-.1.39-.2.58-.29.49-.25.99-.47,1.47-.69.07-.04.14-.06.2-.09.27-.13.55-.24.82-.36.39.21,4.14,2.81,8.65,6.93Z"/>
  <path class="cls-23" d="M361.75,439.77c-2.17.26-4.46.24-6.12-.47.29.05,3,.6,6.12.47Z"/>
  <path class="cls-45" d="M397.4,397.2c-.27.12-.55.23-.82.36-.06.03-.13.05-.2.09-.48.22-.98.45-1.47.69-.19.09-.38.19-.58.29-.34.17-.68.35-1.02.53-.42.23-.84.47-1.26.71-.39.22-.78.45-1.17.68-.33.2-.66.4-.99.61-.2.13-.41.26-.61.39-.3.19-.61.39-.92.6-.22.15-.45.29-.67.46-.49.34-.99.68-1.49,1.04-.19.14-.37.27-.56.41-.36.26-.71.52-1.06.79-.26.18-.5.37-.75.57-.26.19-.51.39-.77.6-.15.11-.28.22-.42.34-.18.14-.37.28-.54.43,0,0,0,0,0,0-.17.14-.35.28-.52.43-.72.59-1.42,1.2-2.12,1.81-.11.09-.22.18-.32.28-.67.58-1.31,1.17-1.95,1.76-.17.16-.35.32-.52.49-.23.2-.45.41-.67.63-.22.2-.44.41-.65.62-.22.21-.43.41-.64.62-.05.05-.11.11-.16.16-.23.22-.45.45-.67.67-.25.25-.48.48-.71.72-.46.47-.89.92-1.31,1.37-.18.18-.35.36-.52.55-.22.23-.44.47-.65.69-.03.03-.05.06-.08.09-.37.39-.71.78-1.05,1.15-.51.57-.99,1.12-1.45,1.66-.16.18-.31.36-.46.53-1.21,1.43-2.24,2.73-3.04,3.8-.06.09-.13.18-.2.27-.24.32-.45.63-.64.9-.04.06-.08.12-.12.17-.13.19-.25.37-.36.55-.06.1-.12.19-.16.27-.14.23-.25.42-.31.57-.02.05-.04.07-.05.11,0,0,0,0,0,0-.02.05-.04.1-.05.15s-.02.08-.02.11c0,.02,0,.04,0,.05-1.26.05-7.13,11.26-7.13,11.26-10.72-7.12-18.84-15.11-24.92-22.8-.94-1.19-1.83-2.36-2.67-3.53-1.24-1.71-2.38-3.39-3.43-5.04-8.7-13.63-11.13-24.61-11.25-25.19,0-.02,0-.03,0-.03,0,0,30.22,8.54,84.09,14.49Z"/>
  <path class="cls-6" d="M371.25,434.31s0,0,0,.02c-.11.15-1.03,1.4-2.51,3.43-.53.38-1.1.7-1.71.96-1.23.34-3.2.81-5.27,1.05-3.12.13-5.83-.42-6.12-.47-.02,0-.03,0-.03,0,0,0,5.87-11.22,7.13-11.26.47,1.1,8.03,5.97,8.5,6.27,0,0,.02,0,.03.02Z"/>
  <path class="cls-45" d="M330.68,416.49c-.16,1.38-.36,3.12-.61,5.11-1.2,9.51-3.62,24.49-7.43,30.34-3.03,2.46-15.36,4.33-31.07,5.35-1.15.07-2.32.15-3.5.2-7.65.44-15.96.67-24.3.68-5.57,0-11.14-.07-16.55-.26-2.92-.1-5.79-.24-8.58-.4h0c-2.17-.12-4.3-.26-6.37-.43-3.05-.25-5.97-.54-8.71-.87-10.03-1.21-17.69-3.01-20.82-5.49-5.75-6.21-6.96-20.58-5.95-35.56.12-1.75.26-3.51.45-5.27.47-4.69,1.12-9.35,1.9-13.75,1.51-8.58,3.5-16.18,5.4-21.09,1.29-3.3,2.54-5.39,3.6-5.76,2.97,2.7,5.62,5.78,12.1,10.1.17.12.35.24.52.35.36.24.72.47,1.1.7.37.25.76.49,1.16.73.2.13.4.26.61.37,1.64,1.01,3.49,2.07,5.57,3.2.26.15.53.29.79.43,2.41,1.3,5.13,2.68,8.2,4.17,3.32,1.61,7.05,2.12,10.69,1.48,13.8-2.4,36.02-6,49.01-14.34,5.48.61,15.44,6.22,15.44,6.22,0,0,0,0,0,.03.12.57,2.56,11.55,11.25,25.19,1.05,1.64,2.19,3.33,3.43,5.04.96,1.5,1.87,2.71,2.67,3.53Z"/>
  <path class="cls-7" d="M330.68,416.49c-.16,1.38-.36,3.12-.61,5.11-1.96.07-6.04-6.1-10.24-13.68-5.06-9.15-10.28-20.36-12.17-25.21-69.07,27.82-88.85,3.41-103.13-7.67,1.29-3.3,2.54-5.39,3.6-5.76,2.97,2.7,5.62,5.78,12.1,10.1.17.12.35.24.52.35.36.24.72.47,1.1.7.37.25.76.49,1.16.73.2.13.4.26.61.37,1.64,1.01,3.49,2.07,5.57,3.2.26.15.53.29.79.43,2.41,1.3,5.13,2.68,8.2,4.17,3.32,1.61,7.05,2.12,10.69,1.48,13.8-2.4,36.02-6,49.01-14.34,5.48.61,15.44,6.22,15.44,6.22,0,0,0,0,0,.03.12.57,2.56,11.55,11.25,25.19,1.05,1.64,2.19,3.33,3.43,5.04.96,1.5,1.87,2.71,2.67,3.53Z"/>
  <path class="cls-47" d="M208.13,369.28c-1.07.37-2.32,2.45-3.6,5.76-1.91,4.91-3.89,12.51-5.4,21.09-.78,4.4-1.43,9.06-1.9,13.75-.18,1.76-.33,3.52-.45,5.27-.58.3-1.17.58-1.76.87-.56.27-1.12.55-1.69.81-.03,0-.05.03-.08.04-8.84,4.13-17.89,7.26-26.25,9.02-4.96,1.04-9.66,1.6-13.95,1.6,1.37-.94,3.07-11.54,3.71-15.84.16-1.1.26-1.8.26-1.8.91-.61.46-19.16.46-19.16,0,0,0-.18-.04-.53v-.05s0-.02,0-.03v-.05c0-.05,0-.11-.02-.18v-.05s0-.02,0-.04v-.02s0-.07,0-.12c0-.06,0-.13-.02-.2v-.05c0-.05-.02-.11-.02-.16,0-.03,0-.05,0-.08-.02-.15-.03-.29-.05-.45-.03-.27-.06-.57-.1-.88-.02-.13-.03-.26-.05-.39,0-.05-.02-.11-.02-.17,0-.08-.02-.16-.04-.24-.03-.24-.06-.49-.1-.76-.15-1.07-.35-2.29-.59-3.62l-.02-.08c-.08-.42-.16-.85-.26-1.29-.07-.34-.15-.68-.22-1.03-.14-.62-.29-1.25-.45-1.9-.11-.41-.22-.82-.33-1.23-.09-.32-.18-.65-.27-.97-.32-1.12-.68-2.27-1.1-3.41l-.19-.52c-.18-.48-.36-.97-.57-1.45-.19-.48-.4-.96-.61-1.44-.29-.67-.61-1.33-.94-1.98,0-.02,0-.05-.04-.06-2.07-4.04-4.85-7.69-8.55-10.03-.46-1.07,1.21-4.86,6.99-5.78,5.79-.91,33.92-1.83,44.41-3.5,1.76,4.65,5.53,10.68,10.26,16.85.41.54.83,1.08,1.27,1.62.37.47.76.96,1.15,1.44.39.48.78.96,1.19,1.44Z"/>
  <path class="cls-35" d="M208.13,369.28c-1.07.37-2.32,2.45-3.6,5.76-1.91,4.91-3.89,12.51-5.4,21.09-.78,4.4-1.43,9.06-1.9,13.75-.18,1.76-.33,3.52-.45,5.27-.58.3-1.17.58-1.76.87-.56.27-1.12.55-1.69.81-.03,0-.05.03-.08.04h0c0-1.23.02-3.49.14-6.41.25-6.21.94-15.49,2.81-24.51,1.66-8.04,4.27-15.88,8.33-21.17.41.54.83,1.08,1.27,1.62.37.47.76.96,1.15,1.44.39.48.78.96,1.19,1.44Z"/>
  <path class="cls-1" d="M157.01,409.85s-.09.69-.26,1.8c-.64,4.3-2.34,14.9-3.71,15.84-10.16.48-16.79-14.48-16.89-17.17,0-.15,0-.26.05-.33,2.62,0,6.47-.02,10.14-.05,1.59-.02,3.14-.03,4.55-.04,3.5-.04,6.11-.06,6.11-.06Z"/>
  <path class="cls-16" d="M243.49,447.85c-15.61,0-23.93,8.51-23.93,22.02,0,12.16,10.71,22.02,23.93,22.02s23.93-9.86,23.93-22.02-10.71-22.02-23.93-22.02ZM242.64,482.22c-6.94,0-12.58-5.63-12.58-12.58,0-7.71,4.37-12.58,12.58-12.58,6.94,0,12.58,5.64,12.58,12.58s-5.63,12.58-12.58,12.58Z"/>
  <path class="cls-26" d="M157.01,409.85c-1.7-.07-3.77-.03-6.11.06-4.68.04-10.95.08-14.69.08-.04.07-.05.18-.05.33-8.81-.05-18.51-.91-26.72-4.48-16.1-7-41.7-53.77-44.41-64.18-5.9-.16-28.85-3.05-40.41-29.36-10.87-7.83-20.51-15.09-23.47-23.27-2.84-7.83,2.03-13.62,8.21-10.95,7.35,3.16,26.3,17.4,26.3,17.4.39.26.85-.24.56-.6-5.44-6.77-22.19-28.07-23.51-35.05-1.57-8.34,5.02-14.43,11.86-9.13,6.84,5.29,25.07,26.56,25.07,26.56.26.27.68-.03.51-.36-3.09-5.94-11.87-23.17-13.41-30.47-1.87-8.9,9.13-14.29,16.33-4.23,7.2,10.07,24.41,34.61,24.41,34.61.78,1.12,2.49.9,2.96-.37,2.09-5.7,3.4-15.69,12.27-19.36,8.29-3.43,13.62-.58,13.39,6.39-.23,6.97.91,7.25-4.56,17.34.91,3.17,1.83,28.55-4.26,34.38,1.22,1.26,28.6,37.06,33.16,44.1.76-.56,3.65-1.57,12.44-2.08,3.51,2.77,6.32,6.22,8.55,10.03.03.02.04.05.04.06,5.31,10.4,6.01,23.37,6.01,23.37,0,0,.46,18.55-.46,19.16Z"/>
  <path class="cls-24" d="M157.01,409.85c-1.7-.07-3.77-.03-6.11.06-1.41,0-2.97.02-4.55.04,1.62-5.27,10.04-27.41,10.04-27.41l.02.08c.89,4.69,1.07,8.07,1.07,8.07,0,0,.46,18.55-.46,19.16Z"/>
  <path class="cls-28" d="M36.21,301.48c2.43-3.65,5.58-12.17,16.27-22.97.63-.72,2.75-1.19,2.56.92-.08.88-.58,1.66-1.3,2.17-7.12,5-13.63,19.18-14.89,20.64s-3.44,1.93-2.64-.76Z"/>
  <path class="cls-28" d="M76.17,284.47c3.95-1.62,1.83,1.42,1.83,1.42,0,0-11.84,12.67-6.65,27.5.04.12.09.24.15.36.36.76,1.36,2.85-.61,2.63-.87-.1-1.62-.64-2.1-1.36-7.88-11.94,3.55-28.97,7.4-30.55Z"/>
  <path class="cls-14" d="M198.7,472.44c-5.17,8.36-33.27,71.83-33.16,88.67,0,3.08,13.14,11.31,30.21,16.69-.11,1.31-.22,4.97-.32,9.77-.09,4.17-.17,9.21-.24,14.28-46.77-.3-82.08-28.61-82.89-30.38-.81-1.77-.2-7.96,1.42-12.92,1.32-4.07,39.48-98.53,53.28-132.66,8.36-1.75,17.4-4.88,26.25-9.02.03,0,.05-.03.08-.04.57-.26,1.13-.54,1.69-.81.59-.28,1.18-.57,1.76-.87-1.01,14.98.2,29.36,5.95,35.56-3.32,10.07-3.99,14.4-4.02,21.72Z"/>
  <path class="cls-14" d="M297.07,608.74s-40.07,2.14-47.36.38c.05-3.27.08-6.61.11-9.69.06-5.38.09-10,.09-12.17,14.92,2.09,29.22,2.07,42.35.72.58,2.57,1.79,7.87,3.18,13.88h0c.52,2.23,1.06,4.55,1.62,6.88Z"/>
  <path class="cls-44" d="M368.73,437.76c-.13.18-.26.37-.4.57h0c-7.17,9.89-25.44,35.26-31.19,45.23-3.97-6.94-7-11.55-7.93-12.99-.09-.14-.16-.25-.21-.32-.2-.43-.39-.86-.57-1.3-2.14-5.01-3.49-10.61-5.78-17.01,3.81-5.85,6.22-20.83,7.43-30.34.26-1.99.46-3.73.61-5.11,6.09,7.68,14.2,15.68,24.92,22.8,0,0,0,0,.03,0,1.66.71,3.95.73,6.12.47,2.07-.24,4.04-.71,5.27-1.05.6-.26,1.18-.57,1.71-.96Z"/>
  <path class="cls-21" d="M449.65,570.2c-6.9-.81-9.94-.81-16.64-.4-19.45,1.91-53.81,29.66-82.71,31.94-1.06-4.45-2.18-9.13-3.19-13.34-1.65-6.84-3.03-12.41-3.41-13.68,13.28-5.85,21.35-11.97,21.99-15.04-.44-2.92-.97-5.82-1.58-8.71,0,0,0-.02,0-.03-.54-2.56-1.13-5.11-1.8-7.63-.05-.18-.08-.33-.11-.44,0-.03-.02-.06-.03-.09,0-.02,0-.05,0-.06,8.12.12,11.47.08,14.56-1.95,3.09-2.03,4.64-3.16,5.88-5.38.31-2.75,2.41-6.37,4.42-9.36,1.56-2.3,3.07-4.24,3.7-5.12,1.8-12.47-6.98-12.22-7.3-12.17-4.93,2.96-6.38,1.46-6.68,1.03,0,0,0-.02,0-.02-.43-6.39-5.07-12.21-4.89-13.33,11.54-8.76,37.6-32.51,47.34-50.98.02.02.04.04.05.05,5.89,6.2,33.87,120.05,30.43,124.71Z"/>
  <path class="cls-5" d="M455.33,601.85c-4.31-.31-1.67-27.37-5.68-31.65,3.44-4.66-24.54-118.52-30.43-124.71-.02-.02-.04-.04-.05-.05,1.87-3.55,3.14-6.9,3.59-9.91,1.53-10.34-6.06-20.8-13.33-28.16-1.14-1.16-2.27-2.24-3.37-3.24-4.51-4.12-8.26-6.72-8.65-6.93-53.88-5.95-84.09-14.49-84.09-14.49,0,0-.04-.03-.11-.06-.08-.05-.19-.11-.33-.18-.11-.05-.24-.13-.38-.2-.52-.28-1.27-.68-2.16-1.13-.28-.15-.57-.29-.89-.45-.57-.27-1.17-.57-1.8-.86-.2-.09-.4-.18-.6-.27-.15-.06-.3-.14-.45-.2-.85-.38-1.73-.77-2.62-1.11-.25-.1-.49-.19-.74-.28-.21-.08-.43-.16-.65-.24-.11-.05-.22-.08-.34-.12-.15-.05-.29-.11-.45-.16-.16-.05-.32-.11-.47-.16-.21-.07-.41-.14-.62-.19-.05-.02-.1-.04-.16-.05,0,0-.03,0-.04,0-.32-.09-.64-.17-.94-.25-.05-.02-.09-.03-.14-.04-.16-.04-.33-.07-.49-.1-.1-.02-.19-.04-.28-.05-.09-.02-.17-.04-.26-.05-.18-.03-.36-.05-.53-.07-12.99,8.33-35.21,11.94-49.01,14.34-1.05.18-2.12.27-3.18.26-.09,0-.19,0-.27,0h-.05s-.1,0-.15,0c-.2,0-.39,0-.59-.03h-.05c-.27-.02-.56-.05-.83-.07-.26-.03-.5-.06-.75-.11-.06,0-.12-.02-.18-.03-.27-.05-.56-.1-.83-.16-.04,0-.07-.02-.11-.03-.28-.06-.57-.14-.86-.22-.03,0-.05,0-.08-.03-.03,0-.06-.02-.09-.03-.25-.06-.48-.14-.72-.23-.03,0-.05-.02-.07-.03-.03,0-.05-.02-.08-.03-.1-.03-.2-.06-.29-.11,0,0-.02,0-.03,0-.22-.07-.44-.16-.66-.26-.27-.11-.55-.24-.81-.36-.57-.27-1.13-.55-1.68-.82-.55-.26-1.09-.54-1.62-.8,0,0,0,0-.02,0-.52-.26-1.02-.52-1.52-.78-.5-.26-.99-.51-1.47-.76-.65-.34-1.29-.68-1.9-1-.26-.14-.53-.28-.79-.43-2.08-1.13-3.92-2.19-5.57-3.2-.21-.12-.41-.25-.61-.37-.4-.24-.78-.48-1.16-.73-.37-.23-.74-.47-1.1-.7-.17-.11-.35-.23-.52-.35-6.48-4.33-9.13-7.4-12.1-10.1-.4-.48-.79-.96-1.19-1.44-.39-.48-.78-.97-1.15-1.44-.44-.54-.86-1.08-1.27-1.62-4.73-6.17-8.5-12.19-10.26-16.85h0s0-.05.02-.08.02-.07.04-.13c0-.03.02-.06.03-.1.02-.04.03-.08.05-.13.03-.08.05-.17.09-.27.09-.25.21-.57.36-.93,0-.02,0-.04.02-.05h0c.16-.39.36-.84.6-1.33.08-.16.16-.34.26-.51.09-.17.18-.36.28-.54.15-.26.3-.53.46-.8.08-.14.16-.27.25-.41.33-.55.71-1.12,1.13-1.72.1-.15.21-.3.32-.45.79-1.08,1.73-2.21,2.84-3.34.13-.13.26-.26.39-.39l.12-.12c.18-.17.37-.36.57-.54,1.62-1.51,3.57-2.99,5.87-4.33.16-.1.34-.2.52-.3.6-.34,1.22-.67,1.88-.98.22-.11.44-.22.67-.32.27-.13.55-.26.83-.37.27-.12.56-.24.84-.35.29-.13.59-.24.89-.36.23.11.51.24.84.39.16.06.33.15.51.22.6.26,1.33.57,2.16.9.2.08.41.16.63.25.73.28,1.53.58,2.39.89.45.16.91.33,1.4.49.14.05.27.09.41.14.94.31,1.94.63,3,.95.81.25,1.65.48,2.52.72h.02c.51.14,1.03.27,1.57.41.47.12.96.24,1.45.36.46.11.93.22,1.41.32,1.3.28,2.65.56,4.03.79,1.14.19,2.3.37,3.48.52.78.11,1.58.2,2.38.27,1.2.13,2.43.22,3.67.28.05,0,.07,0,.07,0,.2.37.33,1.49.35,3.04,0,.46,0,.95,0,1.47,0,.18,0,.37-.02.56,0,.19-.02.38-.03.58,0,.2-.02.39-.04.6-.02.21-.03.43-.05.65-.04.44-.08.89-.13,1.35-.08.76-.18,1.52-.31,2.3-.04.26-.08.51-.13.77-.09.52-.19,1.03-.3,1.54-.16.76-.36,1.51-.57,2.23-.81,2.71-1.99,5-3.63,6.05,1.87,2.77,8.61,8.2,11.86,10.04.66-1.49,30.42-19.97,40.91-23.9,0,0,0-.05-.04-.14,0-.04-.02-.09-.04-.16-.03-.14-.06-.27-.09-.42-.02-.07-.04-.14-.05-.21-.05-.27-.11-.55-.16-.84-.36-1.93-.62-4.16-.74-6.21-.02-.37-.04-.72-.05-1.08-.05-1.83,0-3.43.26-4.44.07-.31.28-.57.57-.69.46-.21,1.12-.47,1.93-.78.23-.09.47-.18.72-.28.89-.34,1.92-.72,3-1.13.45-.16.9-.34,1.37-.52,1.27-.48,2.59-.99,3.89-1.51.52-.21,1.03-.42,1.53-.63.34-.14.67-.28.99-.42,0,0,.03,0,.04-.02,1.76-.77,3.32-1.51,4.44-2.19.11-.06.21-.14.31-.2.37-.24.68-.47.9-.68.09-.08.16-.16.23-.24.31-.06.87-.09,1.64-.07h.16c1.49.03,3.7.2,6.36.61,3.5.53,7.78,1.46,12.18,2.98.26.08.51.17.76.26.32.12.64.24.96.36.35.13.69.26,1.03.39.08.04.16.06.25.1.11.04.21.08.31.13.24.09.47.19.7.29.18.06.37.15.54.23.51.23,1.03.46,1.54.7.31.14.61.29.91.45.29.14.57.28.86.43.02.02.05.03.06.04.21.11.42.22.64.34.1.05.2.11.3.17.28.15.56.31.83.47.37.22.74.44,1.1.67.23.15.46.28.68.43.06.05.14.09.2.14.51.33,1.01.67,1.51,1.02.05.03.1.06.15.1.57.41,1.12.83,1.67,1.27.37.3.75.61,1.11.93.37.32.73.65,1.08.98.71.67,1.4,1.37,2.04,2.11.33.36.64.74.95,1.12.16.19.3.38.46.58.15.19.29.39.44.59.15.2.29.4.43.6.14.21.27.41.41.62.14.21.27.42.4.63.13.22.26.43.38.65.11.19.22.37.32.57.26.48.51.97.76,1.47.11.23.21.46.31.68.27.62.53,1.25.76,1.9.08.19.16.39.21.6.15.39.26.8.38,1.21.07.26.15.52.21.78,0,.02,0,.03,0,.05,0,.02.02.04.02.05h0s0,.04,0,.05h0c.26,1,.47,2.03.61,3.09.05.33.09.65.13.99.04.28.06.58.09.88.06.71.11,1.44.13,2.19,4.96,3.67,23.72,11.71,44.92,33.77,3.94,4.11,7.98,8.71,12.02,13.84.57.93,1.19,2,1.83,3.2,7.29,13.38,19.6,43.2,36.24,76.44,17.03,33.99,34.86,67.6,36.56,75.7,2.65,8.04-7.56,32.75-35.69,42.6Z"/>
  <path class="cls-18" d="M359.45,356.31c-5.22-1.3-11.12-.7-17.07.97-1.81.51-3.62,1.11-5.43,1.8-14.31,5.42-27.85,15.6-31.91,18.9.05-.16-.33-.05-1.06.26-.25-.1-.49-.19-.74-.28-.21-.08-.43-.16-.65-.24-.11-.05-.22-.08-.34-.12-.15-.05-.29-.11-.45-.16-.16-.05-.32-.11-.47-.16-.21-.07-.41-.14-.62-.19-.05-.02-.1-.04-.16-.05,0,0-.03,0-.04,0-.32-.09-.64-.17-.94-.25-.05-.02-.09-.03-.14-.04-.16-.04-.33-.07-.49-.1-.1-.02-.19-.04-.28-.05-.09-.02-.17-.04-.26-.05-.18-.03-.36-.05-.53-.07-12.99,8.33-35.21,11.94-49.01,14.34-1.05.18-2.12.27-3.18.26-.09,0-.19,0-.27,0,16.79-1.38,45.13-15.52,57.88-21.79,12.25-7.42,23.12-11.67,31.94-14.09,1.61-.44,3.14-.82,4.6-1.15,12.08-2.69,19.27-1.79,19.27-1.79.05.33.09.65.13.99.04.28.06.58.09.88.06.71.11,1.44.13,2.19Z"/>
  <path class="cls-22" d="M245.53,337l-.16,1.08h-24.83c-11.58,0-25.82,9.55-26.26,9.86,0,0,0-.04.02-.07s.02-.07.04-.13c0-.03.02-.06.03-.1.02-.04.03-.08.05-.13.03-.08.05-.17.09-.27.09-.25.21-.57.36-.93,0-.02.02-.04.03-.05.16-.39.36-.84.6-1.33.08-.16.16-.34.26-.51.09-.17.18-.36.28-.54.15-.26.3-.53.46-.8.08-.14.16-.27.25-.41,2.57-4.13,7.57-9.8,16.86-13.56.89.67,2.09,1.29,3.49,1.86,2.86,1.2,6.58,2.23,10.38,3.08h.02c.51.14,1.03.27,1.57.41.47.12.96.24,1.45.36.46.11.93.22,1.41.32,1.3.29,2.65.56,4.03.79,1.14.19,2.3.37,3.48.52.78.11,1.58.2,2.38.27,1.2.13,2.43.22,3.67.28.05,0,.07,0,.07,0Z"/>
  <path class="cls-22" d="M358.48,349.16c-.38-.41-12.78-13.52-26.15-13.62-1.72,0-3.62.12-5.64.36-.36.05-.71.08-1.07.14-1.92.26-3.93.59-5.96,1-12.61,2.49-26.22,7.24-26.22,7.24,0,0,0-.05-.04-.14,0-.04-.02-.09-.04-.16s-.04-.14-.05-.22c-.02-.06-.03-.14-.04-.2-.02-.07-.04-.14-.05-.21-.05-.27-.11-.55-.16-.84-.36-1.93-.62-4.16-.74-6.21-.02-.37-.04-.72-.05-1.08-.05-1.83,0-3.43.26-4.44,0,0,0,0,.03,0,.47-.19.93-.36,1.39-.54,3.49-1.36,8.18-3.23,12.59-5.43,0,0,.03,0,.04-.02,1.76-.77,3.32-1.51,4.44-2.19.11-.06.21-.14.31-.2.37-.24.68-.47.9-.68.09-.08.16-.16.23-.24.52.02,1.04.04,1.57.06.06,0,.13,0,.19,0,2.06.11,4.21.31,6.41.62,4,.57,8.15,1.48,12.18,2.83.26.08.51.17.76.26.32.12.64.24.96.36.35.13.69.26,1.03.39.08.04.16.06.25.1.08.03.16.05.24.09.03,0,.05.02.07.04.24.09.47.19.7.29.18.06.37.15.54.23.51.23,1.03.46,1.54.7.31.14.61.29.91.45.29.14.57.28.86.43.02.02.05.03.06.04.21.11.42.22.64.34.1.05.2.11.3.17.28.15.56.31.83.47.37.22.74.44,1.1.67.23.15.46.28.68.43.06.05.14.09.2.14,6.44,4.24,11.63,10.21,13.97,18.42,0,.02,0,.03,0,.05,0,.02.02.04.02.05h0s0,.04,0,.05Z"/>
  <path class="cls-27" d="M293.44,344.27c-10.49,3.93-40.25,22.41-40.91,23.9-3.26-1.83-9.99-7.27-11.86-10.04,1.64-1.05,2.82-3.34,3.63-6.05.22-.72.41-1.47.57-2.23.12-.51.22-1.02.3-1.54.05-.26.09-.51.13-.77.13-.78.23-1.54.31-2.3.05-.46.09-.91.13-1.35.02-.22.03-.44.05-.65.02-.21.03-.4.04-.6,0-.2.02-.39.03-.58,0-.19.02-.37.02-.56.02-.52.02-1.01,0-1.47-.02-1.55-.15-2.67-.35-3.04,0,0,24.15,2.96,46.99-6.2h0c-.35,1.05-.47,2.35-.47,3.73,0,.28,0,.57.02.87,0,.29.03.58.05.88.05.81.14,1.62.25,2.4.12.9.26,1.77.41,2.53.2,1.12.41,2.03.54,2.56.02.08.04.16.05.22s.03.12.04.16c.03.09.04.14.04.14Z"/>
  <path class="cls-15" d="M292.78,341.2c-21.07,9.3-43.98,10.69-48.48,10.88.22-.72.41-1.47.57-2.23.11-.51.21-1.02.3-1.54.05-.26.09-.51.13-.77.13-.78.23-1.55.31-2.3.05-.46.09-.91.13-1.35.02-.22.03-.44.05-.65.02-.21.03-.41.04-.6,0-.2.02-.39.03-.58,0-.19.02-.37.02-.56.02-.52.02-1.01,0-1.47-.02-1.55-.15-2.67-.35-3.04,0,0,24.15,2.96,46.99-6.2h0c-.35,1.05-.47,2.35-.47,3.73,0,.28,0,.57.02.87,0,.29.03.58.05.88.05.81.15,1.62.25,2.4.12.9.26,1.77.41,2.53Z"/>
  <path class="cls-41" d="M399.8,261.51c0,5.12-1.22,10.98-4.25,17.63-1.6,2.32-3.18,4.44-4.73,6.35-.19.25-.39.48-.58.71-.85,1.02-1.69,1.99-2.52,2.9-.28.31-.57.62-.85.91-.78.83-1.56,1.62-2.34,2.35-.18.17-.37.35-.56.52-.56.52-1.11,1.01-1.66,1.49-.34.28-.67.56-.99.83-1.31,1.06-2.6,2-3.86,2.82-.16.11-.34.21-.51.32-.75.47-1.48.89-2.2,1.27-.23.14-.47.26-.69.36-.21.11-.43.22-.65.32-.18.09-.36.17-.55.26-.16.07-.33.15-.5.22-1.49.64-2.94,1.12-4.33,1.47-.31.08-.62.16-.92.21-.61.14-1.21.24-1.81.31-.33.05-.65.08-.97.11-.13,0-.25.02-.37.03-1.02.07-2.02.08-2.97.03-.16,0-.33-.02-.49-.04-.2-.02-.41-.04-.61-.05-1.2-.12-2.34-.33-3.42-.61-.26-.06-.5-.14-.75-.21-.22-.06-.43-.13-.64-.2-.18-.05-.36-.11-.53-.17-.27-.09-.54-.19-.8-.29-.16-.06-.34-.13-.5-.2-.19-.08-.38-.16-.57-.25-1.43-.63-2.72-1.35-3.85-2.09-.37-.24-.73-.48-1.08-.73-1.22-.88-2.22-1.72-2.97-2.42-.19-.19-.36-.36-.52-.51-.6-.59-.96-1-1.04-1.11-6.95,10.1-15,17.54-22.61,22.97-2.16,1.55-4.3,2.94-6.36,4.17-.12,0-.24,0-.35,0-.68,0-1.18.03-1.46.08-.06.08-.14.16-.23.24-.23.22-.53.45-.9.68-.1.06-.2.14-.31.2-1.11.68-2.67,1.42-4.44,2.19,0,0-.03,0-.04.02-.33.14-.66.28-.99.42-.5.21-1.01.42-1.53.63-1.3.52-2.62,1.03-3.89,1.51-.47.18-.92.36-1.37.52-1.09.41-2.11.79-3,1.13-.25.1-.49.19-.72.28-.8.31-1.47.57-1.93.78-.29.13-.5.38-.57.69h0c-22.84,9.16-46.99,6.21-46.99,6.21,0,0-.03,0-.07,0-1.24-.06-2.46-.16-3.67-.28-.8-.07-1.6-.16-2.38-.27-1.18-.15-2.34-.33-3.48-.52-1.39-.24-2.73-.51-4.03-.79-.47-.1-.95-.21-1.41-.32-.49-.12-.98-.24-1.45-.36-.54-.14-1.06-.27-1.57-.41h-.02c-.87-.24-1.71-.47-2.52-.72-1.06-.32-2.06-.64-3-.95-.14-.05-.27-.09-.41-.14-.48-.16-.95-.33-1.4-.49-.86-.3-1.66-.6-2.39-.89-.22-.08-.43-.16-.63-.25-.83-.34-1.56-.64-2.16-.9-.18-.07-.36-.16-.51-.22-.33-.16-.61-.28-.84-.39-11.11-6.29-51.64-23.67-51.36-65.91v-.23c1.1-17.42,5.15-25.73,8.82-42.29.15-1.55.33-3.61.52-6.01,0-.07,0-.16.02-.23.03-.33.05-.67.08-1,.12-1.47.24-3.03.36-4.65.75-9.81,1.56-21.76,1.75-26.73,2.27-5.65,6.21-9.48,14.21-13.09,1.47-.66,3.05-1.05,4.65-1.16.59-.04,1.19-.05,1.78,0,1.53.09,3.02.16,4.44.23,11.08.56,18.7.6,23.35.54,3.91-.06,5.72-.2,5.72-.2,0,0,38.72-2.38,65.5-23.73,7.89-5.89,11.24-7.71,19.87-18.25-.51,6.44-.5,12.45,0,18.08.03.32.05.65.09.97.21,2.17.49,4.29.85,6.35.07.46.16.91.25,1.37.08.45.17.89.26,1.34.16.77.32,1.52.5,2.27.07.35.16.68.25,1.02.06.27.14.54.2.8.1.38.2.77.31,1.14.47,1.71.99,3.38,1.57,5.01.14.41.28.81.44,1.22.15.4.3.8.46,1.2.15.37.29.74.44,1.11,1.3,3.19,2.79,6.25,4.47,9.19,6.22,10.94,14.94,20.27,25.34,29.07-4.81,24.44,1.72,39.72,1.72,39.72.03.53.68.75,1.02.35,3.35-3.92,15.18-16.45,27.36-13.45.07.02.15.04.23.06.07.02.16.04.24.06.09.03.17.05.26.08.1.04.21.07.33.12.07.03.16.05.23.08.1.04.2.07.3.12.39.15.81.33,1.27.55.14.06.28.13.43.2.2.1.4.2.6.31.18.09.36.18.55.28.18.1.37.21.56.32.19.11.38.22.57.34.89.52,1.81,1.14,2.76,1.83.24.18.48.37.73.56,1.36,1.06,2.74,2.29,4.04,3.71.24.25.47.5.68.77.77.87,1.49,1.8,2.17,2.8.25.36.48.73.71,1.1.68,1.08,1.3,2.24,1.84,3.46.11.24.21.47.31.72.23.53.44,1.09.62,1.64.05.15.1.29.15.44.19.57.36,1.15.5,1.74.06.24.12.47.17.72.05.22.1.44.14.66.06.31.13.62.17.93.05.32.1.64.15.96.05.38.1.78.14,1.18.02.2.04.4.05.61.04.39.05.79.06,1.2,0,.35.02.69.02,1.04Z"/>
  <path class="cls-13" d="M171.6,214.41c-.2,2.49-.38,4.64-.54,6.24-3.68,16.55-7.73,24.87-8.82,42.29-16.65-24.89-2.9-44.16,2.16-46.8,2.54-1.32,5.18-1.69,7.2-1.73Z"/>
  <path class="cls-17" d="M241.88,245.65c.27.16.56-.15.39-.41-9.23-13.9-19.53.52-19.98,6.6-1.15,15.51,15.29,16.51,18.04,15.29.16-.07.15-.3-.02-.36-23.91-8.11-10.97-28.45,1.57-21.13Z"/>
  <path class="cls-12" d="M372.05,271.94c-.04.98-.16,1.87-.36,2.71-1.99,8.63-11.38,10.17-12.56,9.7-.12-.05-.1-.22,0-.26,6.37-2.87,8.83-7.39,8.62-11.03-.15-2.73-1.78-4.96-4.41-5.62-1.48-.39-3.28-.27-5.29.54-.21.08-.43-.15-.27-.31,1.79-1.83,3.41-2.94,4.86-3.52,5.96-2.41,9.15,4.07,9.4,7.8Z"/>
  <path class="cls-12" d="M386.7,259.14c-.08.16-.25.29-.5.36-.05,0-.14-.03-.25-.06-2.76-2.2-6.89-3.11-8.6-3.07-.09,0-.17,0-.25,0-2.24-.21-10.59,4.12-14.38,5.4-1.02.36-1.71.47-1.85.23-.68-.64.77-2.05,3.08-3.62,0,0,0,0,0,0,2.12-1.44,4.96-3,7.56-4.22h0c2.71-1.26,5.15-2.12,6.23-2.04,2.91-.62,9.88,5.38,8.94,7.03Z"/>
  <path class="cls-36" d="M388.63,264.44c0,5.8-6.31,10.5-14.08,10.5-1.02,0-1.97-.1-2.87-.29.2-.84.33-1.73.36-2.71-.25-3.73-3.44-10.21-9.4-7.8-.02-.27-.03-.56-.03-.83,0-.53.04-1.04.1-1.53,3.79-1.28,12.14-5.61,14.38-5.4.07,0,.16,0,.25,0,1.71-.05,5.84.87,8.6,3.07,1.56,1.24,2.68,2.89,2.68,5.01Z"/>
  <path class="cls-49" d="M323.39,177.21c-1.33-.43-3.09-1.44-5.06-3.75-3.97-4.68-9.39-24.69-9.25-31.69.02-.53-.56-.85-.99-.56-6.82,4.54-31.91,20.53-32.34,20.53-.46,0-20.38,14.14-51.56,14.91-1-.36-2.02-.68-3.02-.97-6.79-1.99-13.37-2.7-15.23-2.84-.08,0-.18,0-.31-.02-.02,0-.04,0-.05,0-1.33-.07-4.96-.14-9.55.42-2.71.33-5.76.88-8.86,1.78-4.64,1.33-9.39,3.45-13.36,6.76,2.27-5.65,6.21-9.48,14.21-13.09,1.47-.66,3.05-1.05,4.65-1.16.59-.04,1.19-.05,1.78,0,1.53.09,3.02.16,4.44.23,11.08.56,18.7.6,23.35.54,3.91-.06,5.72-.2,5.72-.2,0,0,38.72-2.38,65.5-23.73,7.89-5.89,11.24-7.71,19.87-18.25-.51,6.44-.5,12.45,0,18.08.03.32.05.65.09.97.21,2.17.49,4.29.85,6.35.07.46.16.91.25,1.37.08.45.17.89.26,1.34.16.77.32,1.52.5,2.27.07.35.16.68.25,1.02.06.27.14.54.2.8.1.38.2.77.31,1.14.47,1.71.99,3.38,1.57,5.01.14.41.28.81.44,1.22.15.4.3.8.46,1.2.15.37.29.74.44,1.11,1.3,3.19,2.79,6.25,4.47,9.19Z"/>
  <path class="cls-46" d="M224.18,176.66c.07.62-1.02-.03-3.02-.97-2.97-1.4-7.96-3.45-14.1-2.96-.48.04-.97.07-1.44.1-.02,0-.04,0-.05,0-.26.03-.52.04-.78.05-3.65.22-7.1,1.32-10.02,2.58-5.2,2.23-8.72,4.93-8.74,3.9,0-.49.26-2.21,1.12-4.33.96-2.34,2.63-5.17,5.49-7.48,1.87-1.51,4.25-2.78,7.26-3.53,2.34-.59,5.06-.86,8.22-.68,7.93.47,12.01,2.56,14.08,4.96,2.94,3.39,1.85,7.42,1.96,8.35Z"/>
  <path class="cls-46" d="M279.51,181.76c-.8.2-1.6-.35-1.69-1.17-.5-4.4,4.45-11.72,21.47-10.68,19.14,1.17,30.82,22.16,27.38,23.27-3.78-.93-9.03-8.88-20.93-12.71-1.97-.63-4.02-.97-6.09-1.06-9.26-.41-14.58.99-20.13,2.34Z"/>
  <ellipse class="cls-20" cx="208.99" cy="221.84" rx="21.51" ry="28.56"/>
  <ellipse class="cls-20" cx="295.37" cy="229.11" rx="28.88" ry="25.26" transform="translate(56.21 516.39) rotate(-88.02)"/>
  <ellipse class="cls-29" cx="214.46" cy="226.25" rx="13.17" ry="15.71"/>
  <ellipse class="cls-29" cx="299.12" cy="233.03" rx="16.44" ry="14.06" transform="translate(49.12 518.12) rotate(-86.67)"/>
  <path class="cls-40" d="M228.61,210.11c-4.23-7.04-10.98-11.58-18.57-11.58-10.92,0-20.09,9.43-22.54,22.11.47-15.22,9.92-27.37,21.49-27.37,8.73,0,16.25,6.91,19.62,16.84Z"/>
  <path class="cls-40" d="M320.6,229.98c-.12,3.32-.71,6.51-1.73,9.45.25-1.44.4-2.93.46-4.44.55-15.94-10.25-29.25-24.11-29.73-11.48-.39-21.47,8.14-24.86,20.14,1.74-14.56,12.9-25.6,26.01-25.14,13.93.47,24.79,13.79,24.24,29.73Z"/>
  <path class="cls-32" d="M291.84,277.82c0,16.58-17.03,35.29-36.65,35.79-22.86.3-36.05-19.32-36.05-35.89.41-4.87,8.49,6.08,36.6,3.95,19.06-.51,34.58-15.72,36.1-3.85Z"/>
  <path class="cls-37" d="M252.81,293.47c-24.75,1.27-23.78-13.64-23.74-14.15,5.67,1.68,14.2,3.3,26.67,2.36,11.46-.3,21.64-5.92,28.26-7.78,1.29,3.52,2.67,15.02-31.2,19.57Z"/>
  <path class="cls-9" d="M282.29,300.22c-6.8,7.61-16.58,13.12-27.1,13.4-4.71.06-9.01-.72-12.87-2.15,0,0,13.1-17.64,39.97-11.24Z"/>
  <path class="cls-30" d="M396.15,247.32c-5.09-9.07-14.08-13.62-17.33-14.42-12.18-3-24.01,9.53-27.36,13.45-.34.4-.99.18-1.02-.35,0,0-6.52-15.29-1.72-39.72-10.4-8.8-19.12-18.12-25.34-29.07-1.68-2.94-3.17-6-4.47-9.19-.15-.37-.29-.74-.44-1.11-.16-.4-.31-.8-.46-1.2-.16-.41-.3-.81-.44-1.22-.57-1.63-1.1-3.3-1.57-5.01-.11-.37-.21-.76-.31-1.14-.06-.26-.14-.53-.2-.8-.09-.34-.17-.68-.25-1.02-.18-.75-.35-1.51-.5-2.27-.09-.45-.18-.89-.26-1.34-.09-.46-.17-.91-.25-1.37-.36-2.06-.64-4.18-.85-6.35-.04-.32-.06-.65-.09-.97-.49-5.63-.5-11.64,0-18.08-8.62,10.54-11.97,12.37-19.87,18.25-26.78,21.34-65.5,23.73-65.5,23.73,0,0-1.82.14-5.72.2-2.07-2.41-6.15-4.5-14.08-4.96-7.24-.42-12.16,1.53-15.49,4.21-1.6.11-3.18.5-4.65,1.16-8,3.6-11.94,7.44-14.21,13.09-.19,4.97-1,16.92-1.75,26.73-19.88-9.86-33.87-26.73-36.1-46.55-1.72-63.24,65.05-86.57,80.71-89.43,79.97-16.05,130.93,32.37,138.77,37.85.28.31.58.64.9.98,13.89,14.38,39.71,33.28,49.66,64.64.24.55.47,1.08.7,1.59,12.1,39.07-10.54,69.72-10.54,69.72Z"/>
  <path id="inner_hair" data-name="inner hair" class="cls-2" d="M429.08,412.6c5.13-10.93-2.51-16.69-3.45-17.16-6.56-4.73-12.41-3.44-21.26-5.38-15.79-16.43-30.23-25.09-38.62-29.94-2.87-1.67-5.04-2.88-6.3-3.82-.02-.75-.06-1.48-.13-2.19-.02-.29-.05-.59-.09-.88-.04-.34-.08-.66-.13-.99-.15-1.07-.36-2.09-.61-3.08h0s0-.04,0-.05h0s0-.05-.02-.06c0-.02,0-.03,0-.05-.06-.26-.14-.53-.21-.78-.12-.41-.24-.82-.38-1.21-.05-.21-.13-.41-.21-.6-.23-.65-.48-1.28-.76-1.9-.1-.23-.2-.46-.31-.68-.25-.5-.49-.99-.76-1.47-.1-.19-.21-.37-.32-.57-.12-.22-.26-.43-.38-.65-.13-.21-.26-.42-.4-.63-.14-.21-.27-.41-.41-.62-.14-.2-.28-.4-.43-.6-.15-.2-.29-.4-.44-.59-.16-.2-.3-.39-.46-.58-.31-.38-.62-.76-.95-1.12-.64-.74-1.32-1.44-2.04-2.11-.35-.33-.71-.66-1.08-.98-.37-.32-.74-.63-1.11-.93-.55-.44-1.1-.86-1.67-1.27-.05-.04-.1-.07-.15-.1-.5-.36-1-.69-1.51-1.02-.06-.05-.14-.09-.2-.14-.22-.15-.45-.28-.68-.43-.36-.23-.73-.45-1.1-.67-.27-.16-.55-.32-.83-.47-.1-.06-.2-.12-.3-.17-.22-.12-.43-.23-.64-.34-.02,0-.05-.02-.06-.04-.28-.15-.57-.29-.86-.43-.3-.16-.6-.31-.91-.45-.51-.25-1.03-.47-1.54-.7-.17-.08-.36-.16-.54-.23-.23-.1-.47-.2-.7-.29-.03-.02-.05-.03-.07-.04-.08-.04-.16-.06-.24-.09-.08-.04-.16-.06-.25-.1-.34-.14-.68-.26-1.03-.39-.32-.12-.64-.24-.96-.36-.25-.08-.5-.17-.76-.26-4.41-1.52-8.68-2.45-12.18-2.98v-5.01c7.61-5.43,15.66-12.87,22.61-22.97.39.48,6.37,7.4,15.91,8.71,3.15.44,6.68.26,10.53-.96h0s-8.05,54.45,41.63,80.92c29.66,13.08,21.83,27.83,17.77,29.9Z"/>
  <path id="moon_hair" data-name="moon hair" class="cls-25" d="M519.68,304.27c-.24,8.41-3.73,14.3-10.55,22.73-17.51,14.96-39.04,7.03-39.58,6.83.04.05.22.33.5.81-5.96-3.71-11.33-10-14.2-20.48,30.8,31.87,64.3-3.5,63.2-16.04.34,2.15.54,4.21.63,6.15Z"/>
  <path class="cls-19" d="M430.43,412.16c-.58.15-1.04.29-1.35.45,3.8-1.93,10.91-14.98-12.51-27.37-1.61-.84-3.36-1.69-5.26-2.53-49.68-26.46-41.63-80.92-41.63-80.92,7.58-2.41,16.39-8.86,25.87-22.65,6.34-13.93,4.78-24.39.6-31.82,0,0,22.64-30.65,10.54-69.72-.2-.65-.41-1.3-.63-1.94,0,0,1.07-7.46,0-19.47,7.96,6.68,14.45,16.61,18.82,27.92,5.08,13.14,7.32,28.16,5.69,42.14-3.05,26.02-13.33,66.93-5.79,90.14,2.18,8.72,19.73,39.95,19.47,55.21.36,4.26,2.74,23.35-13.82,40.55Z"/>
  <path class="cls-38" d="M519.68,304.27c-.09-1.94-.29-4-.63-6.15,1.1,12.55-32.4,47.91-63.2,16.04,2.87,10.48,8.24,16.76,14.2,20.48,2.43,4.1,12.47,22.78,5.27,40.45-12.85,32.83-37.97,35.33-44.89,37.07,16.55-17.2,14.17-36.29,13.82-40.55.26-15.26-17.29-46.49-19.47-55.21-7.55-23.22,2.74-64.13,5.79-90.14,1.63-13.98-.6-29-5.69-42.14-4.37-11.31-10.86-21.24-18.82-27.92-4.93-43.04-48.33-46.5-48.33-46.5.89-1.1,2.13-2.85,3.83-4.91,6.05-7.28,17.96-18.38,40.6-17.63,40.82,2.02,60.99,35.91,67.33,47.05,6.34,11.14,11.75,44.04,4.86,72.76-6.89,28.73-12.78,54.3-6.08,69.6,6.69,15.29,28.38,31.14,49.53,13.49,1.36,5.68,1.98,10.24,1.88,14.23Z"/>
  <path class="cls-34" d="M406.69,177.6c-.23-.51-.47-1.04-.7-1.59-9.96-31.36-35.77-50.26-49.66-64.64-.32-.34-.62-.67-.9-.98.47.33.78.5.94.5.3,0,.74-.45,1.36-1.21,0,0,43.4,3.47,48.33,46.5,1.08,12.01,0,19.47,0,19.47.22.65.43,1.3.63,1.94Z"/>
  <path class="cls-33" d="M159.76,200.98s-.06-.04-.13-.09c-6.73-5.09-12.32-11.13-16.41-17.88-3.32-29.05,30.57-59.09,42.81-56.88-51.08,36.15-26.77,74.07-26.27,74.85Z"/>
  <path class="cls-33" d="M199.92,164.02c-3.01.75-5.39,2.03-7.26,3.53-1.6.11-3.18.5-4.65,1.16-8,3.6-11.94,7.44-14.21,13.09-.19,4.97-1,16.92-1.75,26.73-2.77-1.37-5.42-2.87-7.94-4.52-3.58-11.17-1.82-13.97.41-20.86,7.08-15.21,32.62-19.86,35.39-19.13h0Z"/>
  <path class="cls-4" d="M193.02,685.38c2.84,1.12,21.85,11,22.23,10.47s-4.84-7.63-9.61-9.71c-4.77-2.08-15.46-1.88-12.62-.76Z"/>
  <path class="cls-4" d="M368.05,687.07c-3.07,1.35-23.63,13.27-24.05,12.63s5.24-9.21,10.39-11.71c5.15-2.51,16.73-2.26,13.65-.92Z"/>
  <path class="cls-33" d="M457.53,194.1c1.76,0,1.76-2.74,0-2.74s-1.76,2.74,0,2.74h0Z"/>
</svg>